<?xml version="1.0" encoding="UTF-8" standalone="no"?>
<!-- Created with Inkscape (http://www.inkscape.org/) -->
<svg
   xmlns:svg="http://www.w3.org/2000/svg"
   xmlns="http://www.w3.org/2000/svg"
   version="1.0"
   width="1580"
   height="560"
   id="svg2">
  <defs
     id="defs4" />
  <path
     d="M 657.81247,167.83824 L 657.81247,189.97637 L 686.51005,189.97637 L 686.51005,384.30004 L 656.99254,384.30004 L 656.99254,408.89798 L 759.48393,408.89798 L 759.48393,384.30004 L 720.94717,384.30004 L 720.94717,296.56742 L 779.9822,296.56742 L 779.9822,326.90487 L 805.40006,326.90487 L 805.40006,248.19148 L 779.9822,248.19148 L 779.9822,277.709 L 720.94717,277.709 L 720.94717,189.15644 L 798.84062,189.15644 L 798.84062,222.77361 L 825.89834,222.77361 L 825.89834,168.65817 L 657.81247,167.83824 z "
     style="fill:#2b5283;fill-opacity:1;fill-rule:evenodd;stroke-width:1px;stroke-linecap:butt;stroke-linejoin:miter;stroke-opacity:1"
     id="path1882" />
  <path
     d="M 846.39661,167.83824 L 846.39661,191.61624 L 875.91414,191.61624 L 875.91414,385.9399 L 847.21656,385.9399 L 847.21656,412.1777 L 1013.6626,412.1777 L 1013.6626,356.42239 L 988.2447,356.42239 L 988.2447,385.9399 L 907.89145,385.9399 L 907.89145,294.92756 L 969.38629,294.92756 L 969.38629,324.44507 L 994.80415,324.44507 L 994.80415,247.37155 L 969.38627,247.37155 L 969.38627,276.88907 L 907.89145,276.88907 L 907.89145,191.61623 L 988.2447,191.61623 L 988.2447,222.77361 L 1013.6626,222.77361 L 1013.6626,168.65817 L 846.39661,167.83824 z "
     style="fill:#2b5283;fill-opacity:1;fill-rule:evenodd;stroke-width:1px;stroke-linecap:butt;stroke-linejoin:miter;stroke-opacity:1"
     id="path1884" />
  <path
     d="M 1034.1608,168.65817 L 1034.1608,191.61624 L 1061.2186,191.61624 L 1061.2186,388.39969 L 1034.1608,388.39969 L 1034.1608,410.53784 L 1115.334,410.53784 L 1115.334,387.57976 L 1082.5368,387.57976 L 1082.5368,232.61279 L 1171.0893,403.15846 L 1265.3814,224.41348 L 1265.3814,385.9399 L 1234.224,385.9399 L 1234.224,410.53784 L 1333.4356,410.53784 L 1333.4356,385.9399 L 1303.0982,385.9399 L 1303.0982,188.33651 L 1333.4356,188.33651 L 1333.4356,166.19838 L 1271.9409,166.19838 L 1181.7484,342.48355 L 1094.0158,168.65817 L 1034.1608,168.65817 z "
     style="fill:#2b5283;fill-opacity:1;fill-rule:evenodd;stroke-width:1px;stroke-linecap:butt;stroke-linejoin:miter;stroke-opacity:1"
     id="path1886" />
  <path
     d="M 1449.0467,164.73999 L 1361.7312,387.29992 L 1342.1075,387.29992 L 1342.9989,410.25268 L 1410.5779,410.25268 L 1410.5779,388.14999 L 1388.4616,388.14999 L 1414.2694,322.73658 L 1500.7355,322.73658 L 1524.7339,387.2989 L 1501.4947,387.2989 L 1501.4947,410.25198 L 1577.816,410.25198 L 1577.816,387.29992 L 1559.9215,387.29992 L 1474.3927,164.68011 L 1449.0467,164.73999 z M 1459.2027,208.0178 L 1493.6061,297.23425 L 1423.1832,297.23425 L 1459.2027,208.0178 z "
     style="fill:#2b5283;fill-opacity:1;fill-rule:evenodd;stroke-width:1px;stroke-linecap:butt;stroke-linejoin:miter;stroke-opacity:1"
     id="path1888" />
  <g
     transform="matrix(1.552943,0,0,1.552943,10.00002,2.753026)"
     id="g3056">
    <g
       id="g3058">
      <circle
         cx="178.755"
         cy="179.10201"
         r="176.55299"
         style="fill:white"
         id="circle3060" />
      <path
         d="M 293.496,194.116 L 284.712,196.821 L 286.699,197.632 L 283.623,199.58 C 283.95,197.788 284.268,195.991 284.517,194.175 L 289.331,190.152 L 289.443,192.271 L 294.863,184.864 L 286.513,188.697 L 288.569,189.234 L 284.731,192.447 C 285.004,190.23 285.195,187.999 285.341,185.753 L 290.082,180.504 L 290.482,182.594 L 294.862,174.528 L 287.084,179.44 L 289.223,179.679 L 285.439,183.756 C 285.473,182.345 285.517,180.948 285.517,179.537 C 285.517,168.956 283.959,158.741 281.074,149.088 C 276.274,149.532 271.46,147.999 269.15,147.555 C 275.297,151.159 277.426,155.055 278.339,159.533 C 273.422,160.632 266.845,159.02 263.241,156.203 C 266.766,159.279 268.988,164.123 269.144,169.118 C 264.071,169.372 259.388,166.999 255.946,163.542 C 258.153,166.008 260.946,172.243 260.292,176.682 C 256.049,176.228 251.078,173.45 248.358,170.139 C 250.609,175.1 251.678,179.123 251.405,183.567 C 247.201,182.771 244.008,181.58 240.238,177.976 C 242.054,182.507 242.723,187.068 242.313,190.808 C 237.455,189.089 234.222,187.141 231.483,182.566 C 232.943,186.609 233.89,191.907 232.884,195.007 C 228.768,193.772 226.043,191.291 223.909,187.087 C 226.023,191.55 225.755,196.735 225.052,199.421 C 223.323,199.084 221.068,197.888 219.891,196.565 C 219.818,197.38 219.759,198.162 219.725,198.923 C 219.505,201.941 218.914,204.768 217.928,207.361 C 218.27,207.732 219.085,208.684 219.11,208.723 C 221.273,211.047 224.237,213.259 226.571,214.001 C 225.56,214.147 224.178,215.012 222.787,215.173 C 224.33,216.921 227.475,217.312 229.418,219.299 C 227.909,219.48 227.553,220.573 225.712,220.368 C 229.218,223.078 232.431,223.166 234.223,223.381 C 234.951,223.459 237.309,223.684 238.803,223.449 C 240.917,223.127 243.095,224.177 243.94,224.665 C 245.239,225.427 245.17,227.214 244.912,228.122 C 244.756,228.659 244.526,229.304 243.55,229.807 C 242.993,229.973 242.627,230.022 243.194,229.602 C 243.702,229.231 244.166,226.965 242.994,226.077 C 242.135,225.452 240.924,224.934 239.498,225.008 C 237.916,225.081 235.499,225.213 234.327,225.106 C 233.258,224.984 232.584,226.395 232.432,226.991 C 232.051,228.402 231.612,230.145 229.576,229.281 C 227.071,227.845 223.512,227.968 219.42,226.312 C 219.996,227.567 219.752,228.661 220.377,230.067 C 216.73,229.169 215.807,227.313 212.33,226.092 C 212.911,227.357 212.74,228.348 213.526,229.539 C 210.601,229.031 207.872,226.394 203.804,225.31 C 203.672,225.349 203.56,225.403 203.438,225.427 C 201.959,225.871 200.596,226.291 199.361,226.687 C 202.242,229.949 204.625,233.953 205.738,238.796 C 205.738,238.796 203.707,238.855 200.704,237.81 C 201.563,240.456 202.091,243.293 202.14,246.331 C 202.14,246.331 199.86,245.911 196.73,243.968 C 197.018,246.844 196.916,249.837 196.315,252.908 C 196.315,252.908 193.678,251.819 190.563,248.655 C 190.202,251.624 189.464,254.617 188.19,257.605 C 188.19,257.605 185.773,255.969 183.307,252.156 C 182.291,255.13 180.861,258.05 178.903,260.838 C 178.903,260.838 176.276,258.074 174.494,252.508 C 172.121,256.077 169.86,257.606 169.86,257.606 C 168.586,254.618 167.839,251.625 167.477,248.641 C 164.367,251.82 161.73,252.909 161.73,252.909 C 161.12,249.838 161.022,246.845 161.3,243.969 C 158.18,245.912 155.88,246.332 155.88,246.332 C 155.934,243.295 156.461,240.458 157.34,237.811 C 154.318,238.856 152.291,238.797 152.291,238.797 C 153.438,233.856 156.676,228.773 158.854,226.492 C 157.785,226.15 156.642,225.808 155.397,225.428 C 155.28,225.404 155.168,225.35 155.026,225.311 C 150.963,226.395 148.244,229.032 145.304,229.54 C 146.08,228.349 145.929,227.357 146.5,226.093 C 143.038,227.314 142.101,229.169 138.473,230.068 C 139.078,228.662 138.834,227.568 139.43,226.313 C 136.046,227.968 131.422,229.116 129.376,229.555 C 127.105,230.024 126.974,226.65 126.231,225.903 C 125.914,225.581 124.087,225.449 123.326,225.566 C 122.198,225.756 120.015,225.659 118.385,225.629 C 116.744,225.595 115.616,226.078 114.772,226.733 C 113.566,227.602 114.137,229.961 114.655,230.346 C 115.217,230.751 114.87,230.698 114.308,230.546 C 113.341,230.048 113.092,229.394 112.936,228.857 C 112.697,227.968 112.604,226.171 113.922,225.429 C 114.752,224.916 116.944,223.871 119.064,224.199 C 120.548,224.428 122.902,224.199 123.615,224.116 C 124.333,224.033 129.621,223.081 133.112,220.371 C 131.281,220.576 130.924,219.482 129.401,219.302 C 131.364,217.315 134.504,216.924 136.042,215.176 C 134.665,215.015 133.444,213.911 132.434,213.755 C 135.515,212.046 137.556,211.05 139.729,208.726 C 139.753,208.687 140.564,207.774 140.886,207.398 C 139.905,204.805 139.299,201.944 139.089,198.926 C 139.04,198.189 138.991,197.432 138.938,196.655 C 138.186,197.49 136.633,198.33 134.114,199.238 C 132.937,196.377 133.499,191.04 135.003,186.904 C 132.85,191.113 130.433,193.852 126.307,195.083 C 125.301,191.997 125.907,186.611 127.347,182.568 C 124.613,187.143 121.688,189.467 116.815,191.186 C 116.405,187.451 116.795,182.509 118.597,177.978 C 114.837,181.582 111.639,182.773 107.425,183.569 C 107.166,179.126 108.24,175.102 110.472,170.141 C 107.777,173.452 102.166,175.717 97.923,176.171 C 98.25,172.318 100.95,167.05 102.523,163.964 C 98.534,166.825 94.286,168.876 89.691,169.12 C 90.267,164.75 92.22,160.023 95.589,156.205 C 91.629,159.14 85.589,160.722 81.038,160.101 C 82.137,155.306 85.091,150.633 89.07,148.123 C 86.76,148.582 82.576,149.534 77.757,149.09 C 74.92,158.592 73.367,168.646 73.328,179.051 C 70.921,177.161 69.241,176.683 67.596,175.052 C 67.899,177.308 68.197,178.538 68.441,181.322 C 68.885,186.342 70.795,189.213 73.944,191.014 C 74.086,192.44 74.271,193.851 74.481,195.267 C 72.152,193.778 69.022,192.85 64.901,192.899 C 67.406,201.068 70.995,201.678 75.799,202.445 C 75.965,203.197 76.146,203.939 76.321,204.681 C 73.762,204.012 70.681,204.002 67.185,204.969 C 69.602,208.724 72.956,210.985 78.308,211.79 C 78.318,211.824 78.332,211.849 78.352,211.883 C 75.056,211.619 71.492,212.108 68.64,213.553 C 72.703,217.049 76.697,218.382 80.5,217.977 C 80.695,218.485 80.891,218.983 81.096,219.481 C 78.088,220.277 75.432,221.835 73.948,223.29 C 77.117,224.291 80.369,224.823 83.308,224.52 C 83.328,224.593 83.371,224.662 83.396,224.735 C 81.677,226.053 80.183,228.182 79.246,231.507 C 81.507,230.945 83.826,230.789 86.136,230.13 C 86.595,230.994 87.069,231.834 87.562,232.669 C 86.341,234.988 85.916,237.898 86.629,241.131 C 88.572,240.672 90.169,239.92 91.497,238.948 C 91.951,239.622 92.41,240.281 92.889,240.955 C 92.401,244.656 93.255,248.377 95.452,250.857 C 96.482,249.7 97.307,248.586 97.967,247.522 C 117.42,270.828 146.688,285.652 179.412,285.652 C 225.071,285.652 263.987,256.804 278.953,216.36 L 283.772,214.27 L 283.406,216.379 L 290.359,210.363 L 281.355,212.228 L 283.25,213.205 L 279.544,214.733 C 280.193,212.873 280.804,210.968 281.356,209.064 L 286.634,206.139 L 286.448,208.283 L 292.835,201.652 L 284.041,204.313 L 286.023,205.143 L 281.794,207.462 C 282.36,205.397 282.873,203.292 283.308,201.188 L 287.327,198.639 L 287.156,200.763 L 293.496,194.116"
         style="fill:#2b5283"
         id="path3062" />
      <path
         d="M 288.423,114.966 C 286.411,115.654 284.404,116.206 282.456,116.636 C 293.628,134.927 300.054,156.416 300.054,179.419 C 300.054,246.035 246.045,300.039 179.444,300.039 C 112.818,300.039 58.824,246.035 58.824,179.419 C 58.824,155.405 65.831,133.037 77.921,114.238 C 76.007,113.691 74.122,112.959 72.242,112.06 C 59.957,131.567 52.843,154.667 52.843,179.418 C 52.843,249.325 109.532,306.015 179.445,306.015 C 249.347,306.015 306.032,249.326 306.032,179.418 C 306.03,155.879 299.614,133.843 288.423,114.966"
         style="fill:#9e2935"
         id="path3064" />
      <path
         d="M 109.302,81.265 C 129.073,67.119 153.281,58.785 179.444,58.785 C 208.648,58.785 235.445,69.181 256.319,86.466 C 258.668,85.797 260.963,85.187 263.311,84.591 C 240.972,64.825 211.607,52.823 179.444,52.823 C 150.596,52.823 124,62.476 102.715,78.721 C 103.721,79.087 104.736,79.453 105.767,79.849 C 106.978,80.317 108.169,80.786 109.302,81.265"
         style="fill:#9e2935"
         id="path3066" />
      <path
         d="M 179.409,347.725 C 86.47,347.725 11.118,272.359 11.118,179.419 C 11.118,86.47 86.47,11.123 179.409,11.123 C 272.358,11.123 347.71,86.47 347.71,179.419 C 347.71,272.358 272.358,347.725 179.409,347.725 M 179.409,0 C 80.327,0 0,80.337 0,179.419 C 0,278.506 80.327,358.833 179.409,358.833 C 278.501,358.833 358.828,278.506 358.828,179.419 C 358.828,80.337 278.501,0 179.409,0 z "
         style="fill:#afafaf"
         id="path3068" />
      <path
         d="M 136.118,143.452 C 133.574,142.143 131.343,140.625 128.94,138.437 C 121.245,131.416 119.419,124.047 121.704,115.581 C 123.052,110.522 125.112,107.993 124.409,102.725 C 124.004,99.717 121.865,97.286 119.736,95.24 C 114.59,90.299 108.486,87.247 99.472,84.2 C 93.896,82.33 77.704,77.301 70.566,70.836 C 68.935,75.592 72.387,81.91 76.518,82.75 C 72.866,83.121 69.76,85.021 68.31,87.086 C 71.064,90.274 76.552,93.59 81.083,93.683 C 78.993,95.079 76.425,98.053 75.58,99.723 C 79.501,101.813 85.761,103.566 90.57,103.219 C 88.544,104.84 86.791,106.901 85.653,108.785 C 88.895,110.269 95.228,112.413 101.249,112.862 C 99.027,113.956 95.863,117.745 94.228,120.079 C 97.617,121.588 104.951,122.501 109.501,122.965 C 106.244,124.674 102.836,128.087 100.961,131.178 C 104.262,132.76 110.468,134.528 115.536,134.357 C 113.031,136.764 111.386,139.674 110.443,142.487 C 114.276,143.278 118.304,143.293 122.987,142.663 C 120.15,146.262 119.012,151.017 118.617,154.401 C 122.416,154.303 127.46,153.429 131.019,151.3 C 130.248,154.205 130.414,158.141 131.673,160.914 C 133.167,160.572 134.901,159.952 136.79,158.936 C 136.528,153.525 136.284,148.003 136.118,143.452"
         style="fill:#2b5283"
         id="path3070" />
      <path
         d="M 290.732,79.556 C 283.579,86.031 272.148,87.764 260.151,91.729 C 251.113,94.703 245.503,96.451 237.412,102.901 C 235.102,104.742 232.9,107.447 233.149,112.095 C 233.422,117.256 234.257,119.483 234.404,126.699 C 234.497,131.85 232.719,136.001 230.551,138.437 C 228.271,141.03 225.307,143.276 222.641,144.667 C 222.49,149.052 222.289,153.471 222.045,158.598 C 223.925,159.623 226.327,160.571 227.826,160.912 C 229.066,158.139 229.242,154.203 228.466,151.298 C 232.03,153.427 237.084,154.301 240.878,154.399 C 240.473,151.015 239.34,146.259 236.503,142.661 C 241.171,143.291 245.209,143.276 249.047,142.485 C 248.09,139.672 246.44,136.762 243.94,134.355 C 249.023,134.526 255.214,132.758 258.52,131.176 C 256.645,128.085 253.247,124.672 249.99,122.963 C 254.536,122.499 262.075,121.615 265.459,120.102 C 263.823,117.778 260.439,113.955 258.242,112.861 C 264.258,112.412 270.576,110.268 273.843,108.784 C 272.696,106.899 270.938,104.839 268.936,103.218 C 274.576,102.852 279.986,101.812 283.902,99.722 C 283.052,98.052 280.499,95.078 278.409,93.682 C 290.508,90.308 290.708,84.272 290.732,79.556"
         style="fill:#2b5283"
         id="path3072" />
      <path
         d="M 239.868,92.329 C 222.72,80.425 201.885,73.428 179.409,73.428 C 158.94,73.428 139.8,79.253 123.589,89.297 C 127.793,92.568 130.288,96.03 130.908,99.619 C 131.43,102.759 131.792,106.553 129.98,112.085 C 128.056,117.954 126.997,123.984 131.337,130.107 C 135.644,136.206 141.249,138.833 145.883,139.721 C 151.967,138.657 158.696,137.787 165.414,137.25 C 166.278,134.403 168.861,131.937 171.469,129.926 C 175.234,126.987 174.408,124.428 173.52,122.436 C 172.812,120.873 171.469,119.614 169.526,118.608 C 167.832,117.734 161.616,117.075 161.792,121.059 C 160.771,119.614 159.951,117.67 160.552,115.185 C 161.382,111.713 167.051,110.839 168.462,110.937 C 167.368,110.014 168.042,108.53 170.523,107.836 C 173.541,107.001 176.392,106.874 179.161,106.947 C 184.84,107.084 185.728,108.48 188.614,111.034 C 192.086,114.125 196.69,115.199 198.497,113.334 C 197.193,116.293 193.067,117.865 190.416,117.411 C 191.71,121.503 192.174,125.057 192.633,129.359 C 192.848,131.312 193.258,134.593 193.785,137.274 C 201.388,137.904 209.044,138.949 215.704,140.228 C 218.463,139.427 221.329,137.811 223.883,134.842 C 226.329,132.029 228.571,128.45 227.643,119.461 C 227.379,116.927 226.12,110.457 226.295,107.42 C 226.689,100.508 231.816,96.006 239.868,92.329"
         style="fill:#2b5283"
         id="path3074" />
      <path
         d="M 169.414,111.265 C 170.459,112.061 171.074,112.168 171.421,112.085 C 171.455,112.285 171.817,112.524 171.885,112.607 C 172.11,112.802 172.237,112.988 172.29,113.203 C 172.764,113.003 174.033,112.485 175.195,112.085 C 176.357,111.646 177.973,111.182 177.973,111.182 C 172.959,110.117 172.197,111.646 169.414,111.265"
         style="fill:#2b5283"
         id="path3076" />
      <path
         d="M 319.844,131.958 C 326.099,129.219 328.926,122.231 326.284,116.206 C 323.647,110.176 316.606,107.573 310.356,110.317 C 304.101,113.051 301.22,120.009 303.862,126.045 C 306.494,132.065 313.594,134.697 319.844,131.958 M 312.388,114.932 C 317.329,112.759 322.989,113.755 324.419,117.027 C 325.874,120.338 322.773,125.172 317.817,127.335 C 312.851,129.513 307.168,128.531 305.717,125.221 C 304.297,121.953 307.393,117.114 312.388,114.932 z "
         style="fill:#2b5283"
         id="path3078" />
      <polyline
         style="fill:#2b5283"
         points="311.104,148.257 308.721,138.823 310.171,138.442 310.845,141.084 330.806,136.021     330.122,133.384 331.587,133.018 335.21,147.3 336.182,147.046 336.65,148.926 331.133,150.322 330.669,148.486 333.169,147.852     331.338,140.649 323.159,142.729 324.58,148.271 326.934,147.671 327.432,149.531 320.615,151.26 320.107,149.395     322.529,148.784 321.123,143.242 311.978,145.566 312.559,147.876 311.104,148.257   "
         id="polyline3080" />
      <path
         d="M 32.007,122.944 L 31.148,125.825 L 44.029,129.663 C 47.911,130.825 49.942,132.895 50.445,136.206 C 50.679,137.91 50.548,139.712 50.035,141.489 C 48.37,147.031 44.249,149.717 39.517,148.32 L 25.689,144.189 L 24.903,146.792 L 23.458,146.357 L 26.324,136.777 L 27.755,137.202 L 26.998,139.775 L 39.771,143.588 C 43.238,144.613 44.991,144.467 46.446,142.997 C 47.091,142.294 47.637,141.366 47.935,140.336 C 49.17,136.23 47.456,133.114 43.262,131.859 L 30.518,128.05 L 29.673,130.902 L 28.194,130.472 L 30.572,122.523 L 32.007,122.944"
         style="fill:#2b5283"
         id="path3082" />
      <path
         d="M 54.663,128.525 C 54.136,129.731 52.744,130.302 51.514,129.804 C 50.303,129.291 49.722,127.88 50.235,126.664 C 50.748,125.443 52.164,124.862 53.37,125.37 C 54.595,125.884 55.166,127.285 54.663,128.525"
         style="fill:#2b5283"
         id="path3084" />
      <path
         d="M 59.106,118.315 L 58.154,120.024 L 52.544,116.865 L 53.511,115.161 L 55.811,116.46 C 57.715,115.679 58.716,114.858 59.585,113.33 C 60.664,111.396 60.293,109.346 58.687,108.433 C 57.271,107.642 55.787,107.994 52.281,109.839 C 48.624,111.802 48.106,112.002 46.715,112.29 C 45.372,112.554 43.902,112.266 42.526,111.494 C 39.093,109.551 38.234,105.752 40.382,101.958 C 41.07,100.737 41.798,99.873 42.95,98.975 L 42.027,98.448 L 42.969,96.773 L 48.296,99.761 L 47.349,101.446 L 45.191,100.235 C 43.628,101.08 42.842,101.739 42.203,102.896 C 41.29,104.512 41.734,106.402 43.189,107.227 C 44.449,107.935 45.616,107.652 49.214,105.728 C 50.952,104.815 52.017,104.234 52.461,104.039 C 53.369,103.59 54.409,103.331 55.552,103.272 C 56.856,103.218 58.032,103.526 59.248,104.195 C 62.803,106.192 63.843,110.186 61.797,113.834 C 60.776,115.636 59.668,116.744 58.013,117.701 L 59.106,118.315"
         style="fill:#2b5283"
         id="path3086" />
      <path
         d="M 68.486,102.119 C 68.486,103.428 67.446,104.468 66.142,104.468 C 64.838,104.468 63.813,103.428 63.813,102.119 C 63.813,100.825 64.838,99.785 66.142,99.785 C 67.446,99.785 68.486,100.825 68.486,102.119"
         style="fill:#2b5283"
         id="path3088" />
      <polyline
         style="fill:#2b5283"
         points="123.794,56.138 108.657,63.936 107.983,62.588 110.396,61.353 100.962,43.052 98.55,44.292     97.866,42.954 110.962,36.211 110.503,35.327 112.207,34.443 114.819,39.487 113.135,40.352 111.958,38.071 105.347,41.47     109.204,48.975 114.297,46.353 113.169,44.194 114.883,43.281 118.105,49.551 116.406,50.454 115.264,48.232 110.171,50.85     114.219,58.701 121.118,55.146 119.912,52.798 121.606,51.924 123.794,56.138   "
         id="polyline3090" />
      <path
         d="M 138.359,50.874 L 128.525,54.145 L 128.042,52.714 L 130.625,51.86 L 124.136,32.314 L 121.563,33.168 L 121.089,31.737 L 131.377,28.339 C 135.576,26.933 139.175,28.573 140.464,32.48 C 141.704,36.176 139.448,40.312 135.474,41.621 C 134.898,41.821 134.512,41.909 133.575,42.041 L 133.028,40.366 C 133.497,40.322 133.677,40.259 133.975,40.176 C 136.285,39.409 137.027,37.305 136.016,34.292 C 134.971,31.099 133.155,29.844 130.708,30.664 L 128.672,31.343 L 135.005,50.415 L 137.876,49.458 L 138.359,50.874"
         style="fill:#2b5283"
         id="path3092" />
      <path
         d="M 167.412,42.939 L 165.923,43.188 L 153.281,22.202 L 151.142,22.578 L 145.956,46.665 L 143.764,47.041 L 144.028,48.516 L 151.318,47.251 L 151.059,45.772 L 148.242,46.265 L 149.546,40.166 L 158.106,38.682 L 161.285,44.004 L 158.805,44.424 L 159.064,45.908 L 167.663,44.419 L 167.412,42.939 M 150.02,37.866 L 152.046,28.437 L 156.919,36.669 L 150.02,37.866 z "
         style="fill:#2b5283"
         id="path3094" />
      <path
         d="M 192.104,42.954 L 190.62,42.954 C 189.912,42.954 189.482,42.632 188.647,41.377 L 183.608,33.564 C 186.967,32.529 188.613,30.478 188.623,27.251 C 188.623,25.352 188.066,23.818 186.89,22.622 C 185.611,21.343 183.882,20.869 180.821,20.854 L 170.269,20.844 L 170.269,22.338 L 172.979,22.353 L 172.945,42.939 L 170.211,42.934 L 170.196,44.423 L 180.225,44.447 L 180.225,42.953 L 177.535,42.953 L 177.559,33.934 L 178.531,33.958 L 183.873,42.361 C 185.089,44.251 185.44,44.465 187.55,44.47 L 192.086,44.485 L 192.104,42.954 M 177.598,22.866 L 179.829,22.866 C 182.378,22.871 183.857,24.512 183.848,27.387 C 183.848,30.195 182.139,32.167 179.673,32.167 L 177.569,32.143 L 177.598,22.866 z "
         style="fill:#2b5283"
         id="path3096" />
      <polyline
         style="fill:#2b5283"
         points="208.276,47.319 196.914,45.4 197.173,43.931 200.581,44.492 203.916,24.795 197.827,23.77     197.324,26.694 195.381,26.362 196.396,20.371 198.345,20.693 198.179,21.685 214.868,24.507 215.054,23.525 216.982,23.843     215.972,29.834 214.019,29.517 214.531,26.597 208.462,25.562 205.132,45.264 208.516,45.835 208.276,47.319   "
         id="polyline3098" />
      <polyline
         style="fill:#2b5283"
         points="241.685,58.604 231.768,54.756 232.31,53.359 235.117,54.468 240.703,40.054 227.119,53.34     225.229,34.395 219.751,48.501 222.563,49.575 222.017,50.986 214.307,48.003 214.854,46.597 217.646,47.676 225.103,28.481     222.305,27.397 222.842,25.986 228.74,28.286 230.63,46.841 243.623,34.048 250.195,36.597 249.663,38.013 246.86,36.929     239.424,56.123 242.236,57.202 241.685,58.604   "
         id="polyline3100" />
      <polyline
         style="fill:#2b5283"
         points="259.087,69.995 244.746,60.83 245.562,59.565 247.837,61.03 258.931,43.662 256.646,42.222     257.437,40.942 269.858,48.872 270.386,48.027 272.017,49.063 268.97,53.867 267.368,52.842 268.755,50.679 262.49,46.665     257.949,53.779 262.769,56.865 264.072,54.814 265.723,55.815 261.924,61.758 260.288,60.747 261.621,58.628 256.812,55.562     252.061,62.998 258.584,67.173 260.015,64.951 261.655,65.986 259.087,69.995   "
         id="polyline3102" />
      <path
         d="M 95.918,70.986 L 93.584,72.685 L 81.973,56.88 L 84.41,55.073 C 87.789,52.602 93.326,54.111 96.436,58.349 C 99.771,62.876 99.551,68.32 95.918,70.986 M 100.503,55.361 C 96.587,50.034 89.312,48.999 83.862,53.003 L 74.873,59.6 L 75.757,60.816 L 77.949,59.2 L 90.117,75.767 C 90.693,75.996 91.274,76.202 91.841,76.416 L 97.793,72.036 C 100.615,69.966 102.1,67.685 102.637,64.614 C 103.203,61.289 102.446,58.013 100.503,55.361 z "
         style="fill:#2b5283"
         id="path3104" />
      <path
         d="M 289.526,65.093 L 288.52,66.211 L 290.61,68.096 L 280.507,79.185 L 283.056,59.2 L 277.807,54.4 L 276.791,55.513 L 278.7,57.246 L 278.304,59.36 L 265.658,73.227 L 263.475,71.225 L 262.45,72.333 L 268.422,77.782 L 269.438,76.669 L 267.358,74.765 L 277.88,63.222 L 275.619,81.562 C 277.807,80.986 280.15,80.375 282.655,79.672 C 282.88,79.609 283.06,79.545 283.27,79.501 L 292.259,69.623 L 294.495,71.64 L 295.506,70.541 L 289.526,65.093"
         style="fill:#2b5283"
         id="path3106" />
      <path
         d="M 313.594,91.089 L 312.803,91.69 L 302.515,78.228 L 303.311,77.613 L 302.12,76.046 L 297.286,79.747 L 298.477,81.314 L 300.84,79.507 L 304.59,84.424 L 288.711,96.568 L 287.896,95.484 C 287.432,95.738 286.978,95.967 286.504,96.158 L 292.398,103.858 L 293.599,102.945 L 291.519,100.23 L 307.393,88.077 L 311.128,92.979 L 308.77,94.781 L 309.957,96.334 L 314.786,92.647 L 313.594,91.089"
         style="fill:#2b5283"
         id="path3108" />
      <path
         d="M 209.077,336.567 L 207.158,336.987 L 205.776,330.708 L 207.7,330.283 L 208.257,332.866 C 210.108,333.764 211.392,333.97 213.12,333.594 C 215.278,333.12 216.562,331.49 216.162,329.673 C 215.82,328.106 214.56,327.197 210.854,325.806 C 206.958,324.405 206.459,324.146 205.322,323.291 C 204.223,322.471 203.462,321.187 203.125,319.644 C 202.285,315.801 204.561,312.627 208.828,311.69 C 210.181,311.392 211.318,311.377 212.768,311.631 L 212.534,310.581 L 214.419,310.176 L 215.728,316.153 L 213.843,316.568 L 213.311,314.171 C 211.631,313.531 210.625,313.39 209.332,313.668 C 207.52,314.073 206.393,315.68 206.749,317.311 C 207.066,318.703 208.058,319.401 211.876,320.817 C 213.722,321.491 214.864,321.896 215.309,322.091 C 216.237,322.482 217.14,323.082 217.931,323.898 C 218.844,324.845 219.406,325.919 219.708,327.292 C 220.572,331.271 218.287,334.694 214.19,335.593 C 212.173,336.028 210.611,335.93 208.809,335.339 L 209.077,336.567"
         style="fill:#2b5283"
         id="path3110" />
      <polyline
         style="fill:#2b5283"
         points="245.42,325.132 229.58,331.357 229.033,329.956 231.558,328.955 224.033,309.79 221.499,310.796     220.962,309.399 234.678,304.004 234.302,303.066 236.099,302.363 238.179,307.656 236.411,308.35 235.483,305.957     228.53,308.677 231.631,316.533 236.953,314.434 236.074,312.178 237.876,311.436 240.43,317.988 238.652,318.745 237.72,316.406     232.407,318.486 235.635,326.709 242.847,323.872 241.885,321.421 243.691,320.718 245.42,325.132   "
         id="polyline3112" />
      <path
         d="M 269.248,310.625 C 267.231,313.149 265.815,314.473 263.491,315.874 C 257.051,319.78 249.819,318.232 246.133,312.153 C 242.476,306.128 244.351,298.857 250.493,295.122 C 252.466,293.916 253.999,293.354 256.25,293.037 L 255.469,291.763 L 257.154,290.738 L 260.465,296.217 L 258.79,297.238 L 257.599,295.275 C 255.109,295.124 253.922,295.378 252.316,296.349 C 248.068,298.932 247.248,304.274 250.334,309.352 C 253.337,314.298 258.933,316.178 263.156,313.62 C 264.679,312.682 265.583,311.686 266.481,309.924 L 265.065,307.61 L 266.779,306.575 L 269.248,310.625"
         style="fill:#2b5283"
         id="path3114" />
      <path
         d="M 280.01,273.73 L 277.783,275.751 L 286.841,285.683 C 289.57,288.671 290.244,291.479 288.965,294.575 C 288.291,296.167 287.256,297.646 285.889,298.887 C 281.612,302.808 276.695,302.969 273.365,299.346 L 263.629,288.672 L 261.622,290.493 L 260.621,289.389 L 268.004,282.646 L 269.02,283.754 L 267.038,285.551 L 276.032,295.414 C 278.459,298.075 280.046,298.856 282.038,298.349 C 282.971,298.076 283.903,297.578 284.694,296.84 C 287.868,293.959 288,290.385 285.05,287.162 L 276.09,277.343 L 273.902,279.345 L 272.872,278.202 L 278.98,272.616 L 280.01,273.73"
         style="fill:#2b5283"
         id="path3116" />
      <polyline
         style="fill:#2b5283"
         points="320.156,252.876 315.396,261.675 314.067,260.957 315.366,258.56 297.256,248.76     295.947,251.152 294.658,250.43 299.409,241.631 300.728,242.354 299.438,244.697 317.563,254.507 318.833,252.158     320.156,252.876   "
         id="polyline3118" />
      <polyline
         style="fill:#2b5283"
         points="329.297,231.475 325.234,242.251 323.838,241.714 325.054,238.472 306.353,231.431     304.16,237.212 306.953,238.257 306.25,240.107 300.566,237.959 301.245,236.123 302.202,236.47 308.169,220.62 307.231,220.269     307.925,218.418 313.613,220.566 312.92,222.412 310.142,221.357 307.974,227.109 326.68,234.155 327.886,230.947     329.297,231.475   "
         id="polyline3120" />
      <polyline
         style="fill:#2b5283"
         points="335.625,205.171 333.706,214.995 332.222,214.707 332.744,212.08 323.071,210.181     311.172,215.073 310.742,217.29 309.268,216.982 311.191,207.163 312.661,207.461 312.148,210.059 320.801,206.592     314.043,200.405 313.452,203.384 311.987,203.101 313.584,194.917 315.044,195.21 314.561,197.739 323.032,205.469     333.628,207.549 334.15,204.888 335.625,205.171   "
         id="polyline3122" />
      <path
         d="M 286.772,265.488 L 288.11,263.676 C 289.619,261.625 291.826,261.445 294.116,263.149 C 296.377,264.838 296.968,267.348 295.488,269.331 L 294.238,271.02 L 286.772,265.488 M 311.563,265.752 L 310.679,266.939 C 310.249,267.51 309.737,267.676 308.233,267.579 L 298.946,267.003 C 300.128,263.697 299.434,261.129 296.861,259.21 C 295.333,258.087 293.756,257.623 292.105,257.867 C 290.298,258.136 288.917,259.234 287.076,261.715 L 280.797,270.182 L 281.988,271.071 L 283.624,268.893 L 300.152,281.164 L 298.536,283.342 L 299.737,284.24 L 305.709,276.198 L 304.498,275.309 L 302.901,277.472 L 295.674,272.081 L 296.24,271.314 L 306.181,272.022 C 308.422,272.173 308.813,272.007 310.077,270.318 L 312.777,266.666 L 311.563,265.752 z "
         style="fill:#2b5283"
         id="path3124" />
      <polyline
         style="fill:#2b5283"
         points="28.247,227.285 25.854,217.554 27.319,217.202 27.969,219.81 37.09,217.578 34.326,206.299     25.2,208.521 25.84,211.128 24.39,211.475 22.012,201.763 23.457,201.406 24.116,204.048 44.121,199.16 43.481,196.514     44.927,196.167 47.295,205.884 45.835,206.235 45.2,203.638 36.387,205.786 39.155,217.075 47.974,214.917 47.319,212.31     48.799,211.963 51.167,221.68 49.712,222.041 49.063,219.409 29.058,224.287 29.717,226.938 28.247,227.285   "
         id="polyline3126" />
      <path
         d="M 49.58,249.644 C 55.806,246.817 58.53,239.805 55.806,233.814 C 53.067,227.823 45.992,225.308 39.781,228.145 C 33.58,230.982 30.782,237.974 33.511,243.965 C 36.23,249.956 43.369,252.48 49.58,249.644 M 41.875,232.725 C 46.792,230.484 52.461,231.392 53.94,234.654 C 55.439,237.935 52.402,242.818 47.495,245.064 C 42.539,247.31 36.855,246.402 35.366,243.121 C 33.882,239.854 36.919,234.985 41.875,232.725 z "
         style="fill:#2b5283"
         id="path3128" />
      <polyline
         style="fill:#2b5283"
         points="58.662,283.613 52.432,275.015 53.638,274.136 55.405,276.567 67.905,267.495 49.287,271.279     57.964,254.351 45.718,263.223 47.495,265.659 46.274,266.543 41.416,259.863 42.632,258.979 44.404,261.406 61.06,249.297     59.297,246.875 60.518,246.001 64.224,251.108 55.762,267.744 73.604,264.014 77.773,269.746 76.548,270.625 74.785,268.198     58.115,280.298 59.888,282.729 58.662,283.613   "
         id="polyline3130" />
      <polyline
         style="fill:#2b5283"
         points="77.266,301.899 64.741,290.366 65.767,289.272 67.769,291.094 81.724,275.962 79.727,274.111     80.737,273.018 91.587,282.998 92.241,282.256 93.687,283.569 89.829,287.744 88.428,286.465 90.166,284.585 84.702,279.531     78.984,285.732 83.188,289.604 84.844,287.817 86.279,289.106 81.504,294.287 80.073,293.008 81.753,291.157 77.554,287.29     71.563,293.774 77.271,299.038 79.063,297.095 80.479,298.398 77.266,301.899   "
         id="polyline3132" />
      <polyline
         style="fill:#2b5283"
         points="98.55,316.494 84.541,307.07 85.391,305.83 87.646,307.354 99.136,290.254 96.885,288.745     97.725,287.495 106.03,293.076 105.186,294.331 102.974,292.832 91.812,309.419 98.13,313.682 99.604,311.479 101.206,312.563     98.55,316.494   "
         id="polyline3134" />
      <path
         d="M 124.321,327.446 L 122.954,326.826 L 124.35,302.363 L 122.368,301.46 L 104.507,318.433 L 102.49,317.515 L 101.87,318.877 L 108.599,321.943 L 109.234,320.581 L 106.617,319.394 L 111.143,315.082 L 119.043,318.676 L 118.657,324.872 L 116.391,323.842 L 115.756,325.199 L 123.695,328.812 L 124.321,327.446 M 112.813,313.452 L 119.81,306.816 L 119.195,316.357 L 112.813,313.452 z "
         style="fill:#2b5283"
         id="path3136" />
      <polyline
         style="fill:#2b5283"
         points="149.058,335.894 146.626,335.308 138.604,315.361 134.971,330.557 137.715,331.221     137.368,332.676 129.512,330.806 129.858,329.331 132.739,330.024 137.119,311.772 136.421,309.736 133.916,309.141     134.263,307.671 141.196,309.331 148.613,328.057 152.109,313.491 149.36,312.827 149.707,311.367 157.578,313.247     157.212,314.712 154.282,314.009 149.058,335.894   "
         id="polyline3138" />
      <path
         d="M 171.382,337.651 C 174.883,337.778 177.451,336.914 179.78,334.848 C 182.295,332.568 183.735,329.555 183.857,326.264 C 184.091,319.653 179.023,314.326 172.265,314.081 L 161.118,313.666 L 161.074,315.18 L 163.789,315.268 L 163.042,335.844 L 160.327,335.751 L 160.278,337.255 L 171.382,337.651 M 168.652,316.748 L 171.674,316.87 C 175.863,317.026 179.272,321.655 179.096,326.899 C 178.881,332.509 175.326,336.635 170.844,336.479 L 167.939,336.372 L 168.652,316.748 z "
         style="fill:#2b5283"
         id="path3140" />
      <path
         d="M 179.404,232.734 L 178.271,232.734 C 177.7,229.165 175.107,226.963 171.333,225.805 C 168.462,224.911 164.302,223.559 155.395,220.834 C 145.068,217.66 139.799,209.35 139.086,198.92 C 138.085,184.169 136.615,158.251 136.064,141.752 C 147.719,138.896 164.921,136.649 179.404,136.649 C 193.891,136.649 211.084,138.895 222.744,141.752 C 222.217,158.251 220.713,184.169 219.726,198.92 C 219.008,209.35 213.745,217.66 203.417,220.834 C 194.506,223.559 190.351,224.911 187.479,225.805 C 183.695,226.962 181.102,229.164 180.545,232.734 L 179.404,232.734"
         style="fill:white"
         id="path3142" />
      <path
         d="M 176.455,195.078 L 174.341,194.018 L 172.979,190.458 L 169.888,189.105 L 166.402,185.995 L 164.332,188.275 L 161.241,189.003 L 159.595,191.606 L 157.11,194.248 L 153.726,196.05 L 151.387,200.01 L 150.059,201.763 L 147.779,203.545 L 146.514,202.207 L 145.161,203.496 L 143.472,206.626 C 142.583,204.287 142.046,202.476 141.778,198.735 C 141.28,191.801 140.777,183.1 140.289,174.189 C 151.725,171.723 166.28,170.092 178.097,169.98 L 178.097,196.987 C 177.554,196.66 177.012,196.401 176.455,195.078"
         style="fill:#2973a2"
         id="path3144" />
      <path
         d="M 178.096,208.086 L 144.087,208.086 C 144.59,209.141 145.161,210.117 145.825,211.045 C 148.271,214.483 151.758,217.022 156.181,218.379 C 162.182,220.22 166.015,221.426 168.803,222.315 L 172.133,223.355 C 174.853,224.195 176.757,225.425 178.095,226.773 L 178.095,208.086"
         style="fill:#639130"
         id="path3146" />
      <path
         d="M 214.009,194.941 C 214.942,194.199 216.011,193.335 217.422,192.822 C 217.622,189.643 217.827,186.25 218.042,182.734 C 217.666,182.988 217.275,183.31 216.792,183.691 C 215.171,185.004 213.145,186.655 209.575,186.655 C 206.235,186.655 204.067,185.317 202.329,184.243 C 200.918,183.369 199.78,182.685 198.115,182.685 C 196.279,182.685 194.702,183.623 193.022,184.633 C 191.21,185.707 189.165,186.933 186.66,186.933 C 184.092,186.933 182.236,186.142 180.718,185.317 L 180.718,194.863 C 181.06,195.058 181.397,195.263 181.724,195.464 C 183.247,196.402 184.566,197.212 186.661,197.212 C 187.955,197.212 189.239,196.441 190.753,195.527 C 192.77,194.326 195.065,192.959 198.116,192.959 C 201.016,192.959 202.935,194.126 204.649,195.171 C 206.163,196.118 207.486,196.914 209.576,196.914 C 211.572,196.914 212.661,196.05 214.009,194.941"
         style="fill:#2b5283"
         id="path3148" />
      <path
         d="M 186.66,216.704 C 184.092,216.704 182.236,215.923 180.718,215.078 L 180.718,226.767 C 182.051,225.424 183.95,224.194 186.685,223.354 L 190,222.314 C 192.793,221.425 196.606,220.219 202.627,218.378 C 204.38,217.836 205.991,217.118 207.451,216.215 C 205.263,215.815 203.672,214.838 202.329,214.013 C 200.918,213.139 199.78,212.45 198.115,212.45 C 196.279,212.45 194.702,213.402 193.022,214.403 C 191.211,215.474 189.165,216.704 186.66,216.704"
         style="fill:#2b5283"
         id="path3150" />
      <path
         d="M 214.009,180.259 C 215.122,179.365 216.47,178.291 218.321,177.866 C 218.394,176.65 218.463,175.42 218.531,174.189 C 207.095,171.723 192.554,170.092 180.718,169.98 L 180.718,180.18 C 181.06,180.385 181.397,180.576 181.724,180.785 C 183.247,181.713 184.566,182.538 186.661,182.538 C 187.955,182.538 189.239,181.747 190.753,180.849 C 192.77,179.628 195.065,178.266 198.116,178.266 C 201.016,178.266 202.935,179.462 204.649,180.488 C 206.163,181.43 207.486,182.236 209.576,182.236 C 211.572,182.236 212.661,181.367 214.009,180.259"
         style="fill:#2973a2"
         id="path3152" />
      <path
         d="M 180.718,200 L 180.718,209.946 C 181.06,210.136 181.397,210.351 181.724,210.547 C 183.247,211.485 184.566,212.3 186.661,212.3 C 187.955,212.3 189.239,211.519 190.753,210.62 C 192.77,209.414 195.065,208.042 198.116,208.042 C 201.016,208.042 202.935,209.219 204.649,210.254 C 206.163,211.201 207.486,212.007 209.576,212.007 C 211.202,212.007 212.218,211.426 213.277,210.625 C 215.46,207.393 216.729,203.389 217.037,198.735 C 217.042,198.53 217.061,198.339 217.076,198.154 C 216.983,198.217 216.89,198.3 216.793,198.374 C 215.172,199.687 213.146,201.318 209.576,201.318 C 206.236,201.318 204.068,200 202.33,198.935 C 200.919,198.046 199.781,197.358 198.116,197.358 C 196.28,197.358 194.703,198.3 193.023,199.321 C 191.211,200.395 189.166,201.616 186.661,201.616 C 184.092,201.616 182.236,200.835 180.718,200"
         style="fill:#2973a2"
         id="path3154" />
      <path
         d="M 140.137,171.587 C 139.595,161.655 139.121,151.65 138.824,143.765 C 150.889,141.021 166.856,139.214 179.405,139.214 C 191.954,139.214 207.945,141.021 219.981,143.765 C 219.708,151.651 219.224,161.656 218.672,171.587 C 207.315,169.19 192.295,167.398 179.404,167.398 C 166.523,167.397 151.499,169.189 140.137,171.587"
         style="fill:#2b5283"
         id="path3156" />
      <polyline
         style="fill:white"
         points="148.057,150.322 148.496,148.184 146.514,147.28 148.677,147.051 148.896,144.883     149.785,146.88 151.895,146.44 150.293,147.9 151.387,149.8 149.502,148.691 148.057,150.322   "
         id="polyline3158" />
      <polyline
         style="fill:white"
         points="161.289,148.569 159.458,147.378 157.93,148.95 158.477,146.831 156.548,145.845     158.696,145.703 159.028,143.545 159.814,145.576 161.958,145.229 160.288,146.626 161.289,148.569   "
         id="polyline3160" />
      <polyline
         style="fill:white"
         points="171.216,147.798 169.453,146.519 167.856,148.003 168.511,145.918 166.626,144.834     168.784,144.81 169.229,142.661 169.912,144.741 172.061,144.502 170.313,145.796 171.216,147.798   "
         id="polyline3162" />
      <polyline
         style="fill:white"
         points="181.138,147.583 179.453,146.211 177.778,147.583 178.545,145.542 176.719,144.336     178.892,144.453 179.453,142.339 180.005,144.453 182.173,144.336 180.371,145.542 181.138,147.583   "
         id="polyline3164" />
      <polyline
         style="fill:white"
         points="209.399,148.716 207.524,149.814 208.604,147.915 206.997,146.455 209.116,146.904     210.01,144.888 210.22,147.065 212.388,147.3 210.396,148.208 210.854,150.342 209.399,148.716   "
         id="polyline3166" />
      <polyline
         style="fill:white"
         points="198.604,146.626 196.919,145.234 199.053,145.591 199.858,143.545 200.181,145.703     202.349,145.835 200.41,146.831 200.967,148.95 199.424,147.378 197.603,148.579 198.604,146.626   "
         id="polyline3168" />
      <polyline
         style="fill:white"
         points="188.589,145.806 186.855,144.502 189.009,144.751 189.688,142.666 190.132,144.824     192.295,144.834 190.4,145.928 191.06,148.018 189.463,146.519 187.7,147.798 188.589,145.806   "
         id="polyline3170" />
      <polyline
         style="fill:white"
         points="149.502,166.392 149.946,164.258 147.983,163.34 150.132,163.135 150.386,160.962     151.255,162.969 153.364,162.544 151.758,163.989 152.813,165.889 150.942,164.771 149.502,166.392   "
         id="polyline3172" />
      <polyline
         style="fill:white"
         points="162.373,164.771 160.552,163.564 159.014,165.112 159.57,163.008 157.651,161.997 159.81,161.88     160.151,159.722 160.938,161.777 163.071,161.436 161.382,162.813 162.373,164.771   "
         id="polyline3174" />
      <polyline
         style="fill:white"
         points="171.919,164.077 170.146,162.788 168.555,164.272 169.214,162.178 167.339,161.089     169.502,161.084 169.937,158.936 170.61,161.011 172.778,160.767 171.025,162.075 171.919,164.077   "
         id="polyline3176" />
      <polyline
         style="fill:white"
         points="181.47,163.901 179.78,162.52 178.101,163.901 178.882,161.841 177.061,160.645 179.214,160.762     179.78,158.647 180.337,160.762 182.5,160.645 180.688,161.841 181.47,163.901   "
         id="polyline3178" />
      <polyline
         style="fill:white"
         points="208.613,164.893 206.738,166.006 207.822,164.102 206.211,162.642 208.325,163.066     209.204,161.084 209.429,163.247 211.592,163.467 209.614,164.375 210.073,166.519 208.613,164.893   "
         id="polyline3180" />
      <polyline
         style="fill:white"
         points="198.188,162.891 196.504,161.509 198.647,161.841 199.424,159.805 199.756,161.973     201.929,162.085 199.99,163.081 200.537,165.195 199.014,163.643 197.188,164.844 198.188,162.891   "
         id="polyline3182" />
      <polyline
         style="fill:white"
         points="188.53,162.109 186.807,160.811 188.96,161.05 189.639,158.979 190.078,161.113 192.256,161.157     190.352,162.217 191.001,164.307 189.409,162.827 187.651,164.106 188.53,162.109   "
         id="polyline3184" />
      <polyline
         style="fill:white"
         points="154.233,156.909 154.741,154.78 152.793,153.818 154.961,153.657 155.249,151.484     156.06,153.506 158.184,153.135 156.548,154.546 157.578,156.479 155.732,155.327 154.233,156.909   "
         id="polyline3186" />
      <polyline
         style="fill:white"
         points="144.741,158.418 145.181,156.265 143.184,155.381 145.332,155.137 145.547,152.964     146.445,154.946 148.569,154.512 146.963,155.972 148.057,157.876 146.177,156.772 144.741,158.418   "
         id="polyline3188" />
      <polyline
         style="fill:white"
         points="167.08,155.571 165.298,154.316 163.716,155.845 164.341,153.73 162.422,152.69 164.6,152.637     164.976,150.474 165.708,152.539 167.856,152.246 166.143,153.589 167.08,155.571   "
         id="polyline3190" />
      <polyline
         style="fill:white"
         points="176.592,155.112 174.863,153.774 173.228,155.215 173.94,153.149 172.085,152.007     174.238,152.051 174.741,149.922 175.366,152.007 177.524,151.846 175.742,153.101 176.592,155.112   "
         id="polyline3192" />
      <polyline
         style="fill:white"
         points="186.108,155.239 184.463,153.794 182.744,155.117 183.584,153.101 181.816,151.846     183.97,152.017 184.595,149.927 185.088,152.065 187.256,152.017 185.4,153.159 186.108,155.239   "
         id="polyline3194" />
      <polyline
         style="fill:white"
         points="213.174,156.841 211.26,157.905 212.388,156.045 210.825,154.541 212.925,155.029     213.843,153.037 214.019,155.215 216.177,155.498 214.17,156.348 214.58,158.511 213.174,156.841   "
         id="polyline3196" />
      <polyline
         style="fill:white"
         points="202.793,154.609 201.128,153.198 203.262,153.574 204.102,151.553 204.38,153.73     206.533,153.892 204.595,154.839 205.098,156.968 203.613,155.381 201.753,156.558 202.793,154.609   "
         id="polyline3198" />
      <polyline
         style="fill:white"
         points="193.188,153.633 191.479,152.285 193.633,152.573 194.355,150.518 194.741,152.661     196.914,152.754 195,153.774 195.596,155.884 194.033,154.37 192.256,155.605 193.188,153.633   "
         id="polyline3200" />
      <path
         d="M 82.769,203.828 C 85.967,199.282 91.983,198.301 89.268,186.094 C 82.446,189.077 79.268,197.583 82.769,203.828"
         style="fill:white"
         id="path3202" />
      <path
         d="M 82.324,173.311 C 80.136,174.214 77.046,177.247 75.654,181.246 C 77.949,183.897 78.921,187.154 78.818,190.113 C 82.993,186.289 84.443,179.692 82.324,173.311"
         style="fill:white"
         id="path3204" />
      <path
         d="M 86.372,215.537 C 86.65,215.576 86.582,215.547 86.274,215.449 C 83.066,213.662 80.8,213.042 76.396,213.637 C 80.527,213.94 83.423,214.517 86.372,215.537"
         style="fill:white"
         id="path3206" />
      <path
         d="M 99.775,230.361 C 99.736,230.454 99.692,230.551 99.668,230.649 C 99.551,235.586 102.715,241.084 97.056,248.881 C 96.783,249.814 96.411,251.83 99.322,248.373 C 105.063,241.558 100.181,235.996 99.775,230.361"
         style="fill:white"
         id="path3208" />
      <path
         d="M 88.345,238.086 C 88.819,235.01 90.86,231.343 93.858,228.872 C 95.943,227.143 97.125,226.509 95.377,228.345 C 92.725,231.113 89.644,235.61 88.345,238.086"
         style="fill:white"
         id="path3210" />
      <path
         d="M 94.897,246.47 C 93.75,243.579 94.751,238.936 95.991,235.889 C 96.86,233.799 98.999,230.616 99.678,230.318 C 97.305,233.97 94.771,243.667 94.897,246.47"
         style="fill:white"
         id="path3212" />
      <path
         d="M 85.283,206.138 C 85.068,205.044 84.004,204.326 82.915,204.556 C 81.816,204.776 81.108,205.835 81.333,206.929 C 81.553,208.028 82.627,208.731 83.706,208.521 C 84.8,208.301 85.518,207.236 85.283,206.138"
         style="fill:white"
         id="path3214" />
      <path
         d="M 102.881,208.901 C 102.954,205.883 102.49,202.768 102.837,199.243 C 96.826,203.638 94.771,211.338 97.266,216.714 C 97.007,216.675 96.753,216.66 96.485,216.729 C 95.352,216.958 94.625,218.057 94.849,219.2 C 95.074,220.318 96.182,221.055 97.325,220.826 C 98.453,220.601 99.195,219.493 98.961,218.365 C 98.829,217.789 98.502,217.31 98.043,217.022 C 97.047,212.261 97.867,206.309 100.362,203.804 C 99.591,206.783 98.17,213.028 99.083,218.784 C 100.069,217.661 100.807,216.582 101.354,215.498 C 101.471,216.416 101.681,217.349 102.062,218.335 C 102.199,213.75 103.727,209.219 108.488,206.055 C 105.002,210.474 103.009,215.635 102.594,219.527 C 105.123,216.309 110.875,215.352 111.29,202.755 C 108.374,203.638 104.883,205.757 102.881,208.901"
         style="fill:white"
         id="path3216" />
      <path
         d="M 106.855,221.86 C 106.606,220.659 105.468,219.892 104.282,220.136 C 103.086,220.38 102.324,221.523 102.563,222.729 C 102.802,223.911 103.969,224.663 105.151,224.423 C 106.338,224.175 107.1,223.037 106.855,221.86"
         style="fill:white"
         id="path3218" />
      <path
         d="M 106.094,228.491 C 105.85,227.3 104.693,226.533 103.506,226.762 C 102.334,227.006 101.558,228.154 101.802,229.34 C 102.036,230.531 103.189,231.293 104.39,231.064 C 105.571,230.83 106.338,229.653 106.094,228.491"
         style="fill:white"
         id="path3220" />
      <path
         d="M 93.418,196.167 C 88.965,199.883 87.72,204.546 88.203,208.647 C 88.017,208.627 87.847,208.627 87.681,208.657 C 86.743,208.852 86.153,209.741 86.338,210.659 C 86.528,211.577 87.427,212.182 88.335,211.987 C 88.55,211.948 88.735,211.86 88.901,211.762 C 89.316,212.949 89.882,214.037 90.522,214.975 C 90.131,213.598 89.843,212.079 89.687,210.522 C 89.697,210.346 89.711,210.161 89.667,209.995 C 89.667,209.946 89.643,209.917 89.633,209.878 C 89.399,206.397 89.946,202.788 91.869,200.186 C 91.273,203.999 90.375,211.338 91.229,215.909 C 92.534,211.045 99.541,208.901 93.418,196.167"
         style="fill:white"
         id="path3222" />
      <path
         d="M 111.211,224.819 C 111.011,223.916 110.127,223.31 109.19,223.496 C 108.277,223.682 107.676,224.58 107.852,225.493 C 108.062,226.421 108.946,227.016 109.869,226.831 C 110.796,226.636 111.387,225.732 111.211,224.819"
         style="fill:white"
         id="path3224" />
      <path
         d="M 101.792,224.507 C 101.616,223.657 100.801,223.106 99.946,223.277 C 99.096,223.448 98.55,224.273 98.716,225.123 C 98.882,225.968 99.717,226.519 100.562,226.353 C 101.407,226.187 101.953,225.347 101.792,224.507"
         style="fill:white"
         id="path3226" />
      <path
         d="M 80.327,202.915 C 80.21,202.222 79.59,201.724 78.921,201.724 C 76.714,198.736 73.54,195.542 68.252,195.005 C 71.152,196.362 75.508,199.043 78.525,201.763 C 77.807,201.953 77.338,202.657 77.461,203.409 C 77.603,204.195 78.35,204.722 79.155,204.596 C 79.927,204.453 80.469,203.706 80.327,202.915"
         style="fill:white"
         id="path3228" />
      <path
         d="M 80.396,192.896 C 80.196,191.905 79.224,191.265 78.228,191.475 C 78.194,191.48 78.15,191.485 78.106,191.509 C 76.9,186.817 75.748,183.174 70.435,179.522 C 73.086,182.94 76.167,187.906 77.896,191.573 C 77.105,191.9 76.617,192.75 76.792,193.629 C 76.987,194.625 77.959,195.265 78.96,195.069 C 79.946,194.863 80.591,193.896 80.396,192.896"
         style="fill:white"
         id="path3230" />
      <path
         d="M 85.786,211.299 C 85.654,210.523 84.917,209.986 84.111,210.117 C 83.725,210.185 83.393,210.395 83.188,210.693 C 78.491,206.533 75.253,206.508 72.773,206.396 C 74.267,206.928 79.643,208.476 83.066,210.898 C 82.924,211.157 82.871,211.464 82.924,211.787 C 83.051,212.588 83.822,213.125 84.599,212.993 C 85.391,212.847 85.933,212.104 85.786,211.299"
         style="fill:white"
         id="path3232" />
      <path
         d="M 89.736,217.183 C 89.516,216.05 88.403,215.318 87.27,215.537 C 86.147,215.766 85.41,216.87 85.634,218.008 C 85.863,219.146 86.967,219.878 88.105,219.639 C 89.238,219.419 89.961,218.296 89.736,217.183"
         style="fill:white"
         id="path3234" />
      <path
         d="M 92.783,220.786 C 92.651,219.99 91.904,219.468 91.118,219.599 C 90.61,219.677 90.21,219.999 90.029,220.429 C 85.932,219.892 81.479,220.458 77.729,222.543 C 81.928,221.571 86.323,220.668 89.917,220.658 C 89.937,220.658 89.937,220.658 89.941,220.658 C 89.887,220.853 89.878,221.058 89.897,221.268 C 90.053,222.049 90.805,222.601 91.591,222.459 C 92.397,222.334 92.92,221.572 92.783,220.786"
         style="fill:white"
         id="path3236" />
      <path
         d="M 96.997,223.237 C 96.797,222.207 95.791,221.548 94.761,221.762 C 93.75,221.948 93.076,222.949 93.277,223.969 C 93.238,223.969 93.209,223.954 93.145,223.945 C 90.118,223.842 85.069,224.638 81.973,228.31 C 85.147,226.44 90.201,224.516 93.238,224.101 C 93.258,224.111 93.292,224.101 93.321,224.101 C 93.575,225.053 94.532,225.659 95.513,225.468 C 96.533,225.259 97.192,224.263 96.997,223.237"
         style="fill:white"
         id="path3238" />
      <path
         d="M 123.545,232.759 C 132.188,239.268 137.095,248.301 138.345,255.567 C 137.261,254.771 135.22,253.946 133.97,254.18 C 132.847,246.509 128.848,240.303 122.569,235.269 C 122.827,234.106 123.193,233.306 123.545,232.759"
         style="fill:white"
         id="path3240" />
      <path
         d="M 116.943,239.512 C 118.994,240.327 120.024,240.025 120.551,239.292 C 121.645,237.749 121.117,235.679 120.424,235.327 C 120.58,235.957 120.551,236.616 120.404,237.368 C 120.292,237.973 119.979,238.974 118.846,238.843 C 118.241,238.77 117.122,238.472 116.463,238.028 C 115.994,237.701 115.994,236.885 116.263,236.187 C 116.39,235.86 116.541,235.362 116.961,235.015 C 116.263,235.181 115.843,235.542 115.291,235.972 C 114.744,236.397 113.934,236.48 113.465,235.982 C 112.889,235.337 112.523,234.849 112.327,234.424 C 111.853,233.316 113.284,232.486 114.119,232.051 C 112.674,232.066 112.425,232.613 111.277,232.417 C 110.095,232.222 109.798,230.347 109.802,229.727 C 109.802,229.273 110.364,228.833 111.032,228.667 C 111.681,228.525 112.458,228.584 112.883,228.623 C 112.815,228.34 112.78,227.978 112.785,227.607 C 111.618,227.338 109.338,227.729 108.908,228.374 C 108.366,229.204 108.508,229.629 108.942,231.094 C 109.372,232.505 109.704,233.008 110.617,233.145 C 110.866,233.179 111.359,233.243 111.906,233.038 C 111.618,233.219 111.427,233.38 111.286,233.751 C 111.125,234.122 110.871,234.752 111.994,236.095 C 112.956,237.262 113.908,237.706 114.699,237.272 C 115.153,237.018 115.324,236.74 115.534,236.52 C 115.407,236.823 115.275,237.169 115.207,237.506 C 114.995,238.647 115.854,239.097 116.943,239.512"
         style="fill:white"
         id="path3242" />
      <path
         d="M 115.439,230.532 C 116.02,229.795 117.446,229.702 118.252,230.215 C 117.705,231.25 117.651,232.969 117.954,233.814 C 115.923,233.501 115.557,231.553 115.439,230.532"
         style="fill:white"
         id="path3244" />
      <path
         d="M 118.628,230.415 C 119.824,230.327 120.274,229.727 120.483,229.141 C 120.698,228.575 121.337,228.218 121.357,229.092 C 121.362,229.971 121.367,230.366 120.874,230.601 C 120.371,230.854 119.482,230.923 118.628,230.415"
         style="fill:white"
         id="path3246" />
      <path
         d="M 119.238,232.305 C 119.126,232.945 118.896,233.56 118.491,234.146 C 118.183,234.585 117.749,234.844 117.431,235.132 C 117.983,235.542 118.764,235.781 119.418,235.752 C 120.058,235.713 120.097,235.63 120.058,235.376 C 119.912,234.282 119.482,232.734 119.238,232.305"
         style="fill:white"
         id="path3248" />
      <path
         d="M 239.644,229.473 C 240.201,230.503 240.24,232.242 239.937,233.072 C 241.988,232.75 242.339,230.811 242.466,229.796 C 241.87,229.053 240.454,228.97 239.644,229.473"
         style="fill:white"
         id="path3250" />
      <path
         d="M 239.272,229.678 C 238.081,229.585 237.631,228.994 237.417,228.423 C 237.197,227.842 236.558,227.476 236.553,228.364 C 236.543,229.238 236.533,229.624 237.027,229.858 C 237.524,230.112 238.408,230.176 239.272,229.678"
         style="fill:white"
         id="path3252" />
      <path
         d="M 239.399,233.389 C 239.003,232.818 238.774,232.202 238.657,231.563 C 238.408,231.998 237.993,233.541 237.837,234.634 C 237.803,234.888 237.817,234.986 238.477,235.01 C 239.136,235.039 239.917,234.815 240.459,234.4 C 240.137,234.121 239.712,233.853 239.399,233.389"
         style="fill:white"
         id="path3254" />
      <path
         d="M 274.917,200.977 L 276.978,201.553 L 245.909,226.089 L 245.914,226.089 L 245.182,226.68 C 245.148,226.685 245.094,226.685 245.055,226.704 C 245.079,227.051 245.055,227.402 244.996,227.72 C 245.431,227.696 246.031,227.696 246.549,227.832 C 247.223,228.018 247.765,228.462 247.745,228.911 C 247.745,229.536 247.398,231.406 246.217,231.577 C 245.055,231.733 244.825,231.186 243.38,231.128 C 244.186,231.587 245.616,232.441 245.084,233.54 C 244.884,233.979 244.518,234.448 243.912,235.073 C 243.443,235.561 242.628,235.459 242.096,235.01 C 241.564,234.571 241.149,234.195 240.455,234.009 C 240.875,234.365 241.007,234.863 241.119,235.205 C 241.363,235.889 241.348,236.714 240.875,237.026 C 240.191,237.446 239.073,237.714 238.463,237.773 C 237.34,237.88 237.042,236.865 236.944,236.264 C 236.822,235.512 236.817,234.838 236.993,234.218 C 236.28,234.565 235.694,236.601 236.759,238.183 C 237.247,238.925 238.263,239.238 240.338,238.515 C 241.442,238.119 242.33,237.7 242.135,236.542 C 242.081,236.186 241.959,235.858 241.842,235.541 C 242.057,235.775 242.194,236.054 242.638,236.322 C 243.444,236.771 244.391,236.351 245.397,235.214 C 246.53,233.91 246.305,233.261 246.168,232.89 C 246.031,232.519 245.841,232.353 245.563,232.177 C 246.1,232.402 246.569,232.343 246.833,232.304 C 247.766,232.201 248.103,231.708 248.571,230.317 C 249.059,228.862 249.201,228.437 248.678,227.597 C 248.458,227.241 247.716,226.952 246.881,226.791 L 277.711,202.475 L 277.784,204.619 L 283.326,197.28 L 274.917,200.977"
         style="fill:white"
         id="path3256" />
      <path
         d="M 258.35,208.521 L 280.24,180.801 L 280.821,182.866 L 284.493,174.448 L 277.168,180 L 279.321,180.083 L 259.487,205.21 C 257.949,207.559 256.294,210.064 254.741,212.407 L 254.77,212.436 C 255.947,211.157 257.139,209.854 258.35,208.521"
         style="fill:white"
         id="path3258" />
      <path
         d="M 255.742,216.763 C 257.578,215.303 259.487,213.794 261.367,212.3 L 279.599,195.43 L 279.868,197.559 L 284.78,189.795 L 276.709,194.165 L 278.804,194.57 L 260.503,211.518 C 258.872,213.33 257.261,215.093 255.742,216.763"
         style="fill:white"
         id="path3260" />
      <path
         d="M 276.001,212.783 L 250.313,225.644 C 249.869,226 249.502,226.289 249.278,226.469 C 249.459,226.611 249.6,226.772 249.722,226.952 C 249.776,227.03 249.81,227.108 249.849,227.181 L 276.519,213.841 L 276.158,215.945 L 283.072,209.895 L 274.083,211.809 L 276.001,212.783"
         style="fill:white"
         id="path3262" />
      <path
         d="M 237.197,239.98 C 236.806,239.853 236.469,239.663 236.181,239.404 L 231.586,248.93 L 231.61,248.945 L 229.935,249.502 L 224.491,259.927 L 227.133,259.131 L 228.08,261.714 L 233.231,251.143 L 232.626,249.444 L 237.197,239.98"
         style="fill:white"
         id="path3264" />
      <path
         d="M 255.088,221.89 C 256.856,221.001 258.887,219.976 260.947,218.936 L 278.027,207.793 L 277.915,209.932 L 284.072,203.12 L 275.376,206.055 L 277.373,206.807 L 258.809,218.951 C 257.485,219.99 256.235,220.977 255.088,221.89"
         style="fill:white"
         id="path3266" />
      <path
         d="M 235.103,237.437 C 234.966,236.924 234.927,236.397 234.966,235.874 L 228.872,242.529 L 227.07,242.675 L 226.914,242.826 L 226.914,242.836 L 218.433,251.317 L 218.833,251.293 L 218.794,251.317 L 218.906,251.293 L 220.991,251.195 L 221.362,253.27 L 228.393,244.027 L 229.75,243.734 L 235.103,237.437"
         style="fill:white"
         id="path3268" />
      <path
         d="M 246.343,224.175 C 247.085,223.594 248.164,222.739 249.453,221.719 L 279.429,188.965 L 279.839,191.06 L 284.131,182.94 L 276.426,187.93 L 278.55,188.164 L 247.178,222.485 C 246.88,223.101 246.606,223.667 246.343,224.175"
         style="fill:white"
         id="path3270" />
      <path
         d="M 219.521,246.582 L 230.688,238.716 C 231.962,237.31 233.374,235.801 233.862,235.259 L 219.917,244.468 L 219.927,244.478 L 218.179,244.117 L 217.163,244.757 L 208.218,250.343 L 210.728,250.861 L 211.036,252.756 L 218.243,246.521 L 219.521,246.582"
         style="fill:white"
         id="path3272" />
      <path
         d="M 210.278,247.607 L 214.751,244.819 L 218.916,241.982 L 220.342,242.251 C 220.342,242.251 230.513,235.981 232.984,234.365 C 233.116,234.272 233.189,234.223 233.189,234.223 C 233.218,234.213 233.238,234.194 233.267,234.179 L 219.927,240.829 L 218.223,240.302 L 207.603,245.351 L 209.996,246.23 L 210.278,247.607"
         style="fill:white"
         id="path3274" />
      <path
         d="M 260.625,185.952 L 262.725,185.581 L 243.545,224.448 C 243.691,224.531 243.838,224.609 243.941,224.663 C 244.166,224.795 244.356,224.961 244.512,225.142 L 263.78,186.109 L 264.771,188.004 L 266.636,179.01 L 260.625,185.952"
         style="fill:white"
         id="path3276" />
      <path
         d="M 262.915,192.5 L 265.059,192.388 L 253.023,210.684 C 251.607,213.545 250.235,216.329 249.024,218.76 C 249.087,218.692 249.146,218.628 249.2,218.555 L 266.055,193.052 L 266.787,195.054 L 269.751,186.348 L 262.915,192.5"
         style="fill:white"
         id="path3278" />
    </g>
  </g>
</svg>
