<?xml version="1.0" encoding="utf-8"?>
<!DOCTYPE svg PUBLIC "-//W3C//DTD SVG 1.1//EN" "http://www.w3.org/Graphics/SVG/1.1/DTD/svg11.dtd">
<svg version="1.1" id="Layer_1" xmlns="http://www.w3.org/2000/svg" xmlns:xlink="http://www.w3.org/1999/xlink" x="0px" y="0px"
	 width="360px" height="108px" viewBox="0 0 360 108" enable-background="new 0 0 360 108" xml:space="preserve">
<path fill="#FFFFFF" d="M54.492,0.354c-29.627,0-53.645,24.02-53.645,53.645c0,29.629,24.018,53.648,53.645,53.648
	c29.625,0,53.645-24.02,53.645-53.648C108.137,24.373,84.117,0.354,54.492,0.354"/>
<g>
	<g>
		<path fill="#005287" d="M341.676,33.451h2.592V21.986h-2.592v-1.402h5.734v1.605c1.674-1.227,3.379-2.012,5.289-2.012
			c2.254,0,3.926,1.434,3.926,4.16v9.113h2.527v1.402h-7.92v-1.402h2.258v-8.395c0-1.945-1.063-2.969-2.533-2.969
			c-1.053,0-2.352,0.547-3.547,1.504v9.859h2.35v1.402h-8.084V33.451z"/>
		<path fill="#005287" d="M125.008,14.416h8.938v1.707h-2.863v10.34c0,4.91,2.387,7.098,5.426,7.098c2.9,0,5.426-1.777,5.426-7.336
			V16.123h-2.799v-1.707h8.428v1.707h-2.764v10.613c0,5.492-3,8.523-8.428,8.523c-5.086,0-8.602-2.348-8.602-9.172v-9.965h-2.762
			V14.416z"/>
		<path fill="#005287" d="M150.689,33.049c0,1.191-0.959,2.145-2.15,2.145c-1.189,0-2.152-0.953-2.152-2.145
			s0.963-2.152,2.152-2.152C149.73,30.896,150.689,31.857,150.689,33.049"/>
		<path fill="#005287" d="M154.943,28.713h1.709v2.598c1.367,1.637,2.699,2.352,4.129,2.352c1.912,0,3.41-1.434,3.41-3.27
			c0-3.453-4.738-4.137-7.504-6.895c-1.332-1.336-1.846-2.734-1.846-4.133c0-2.699,2.252-5.289,5.803-5.289
			c1.469,0,2.795,0.266,3.961,1.02v-1.09h1.705v5.563h-1.705V17.35c-0.854-1.094-2.154-1.742-3.553-1.742
			c-2.283,0-3.273,1.367-3.273,2.941c0,3.203,4.672,3.676,7.611,6.617c1.293,1.297,1.736,2.457,1.736,4.129
			c0,3.477-2.455,5.906-6.141,5.906c-1.572,0-2.799-0.48-4.334-1.438v1.496h-1.709V28.713z"/>
		<path fill="#005287" d="M173.686,33.049c0,1.191-0.965,2.145-2.154,2.145c-1.188,0-2.146-0.953-2.146-2.145
			s0.959-2.152,2.146-2.152C172.721,30.896,173.686,31.857,173.686,33.049"/>
		<polygon fill="#005287" points="125.012,93.057 127.777,93.057 127.777,76.021 125.012,76.021 125.012,74.314 139.316,74.314 
			139.316,78.752 137.609,78.752 137.609,76.021 131.09,76.021 131.09,83.393 136.107,83.393 136.107,80.904 137.814,80.904 
			137.814,88.037 136.107,88.037 136.107,85.1 131.09,85.1 131.09,93.057 137.846,93.057 137.846,90.182 139.553,90.182 
			139.553,94.764 125.012,94.764"/>
		<path fill="#005287" d="M141.662,93.365h2.596V81.893h-2.596v-1.398h5.734v1.602c1.672-1.23,3.377-2.008,5.287-2.008
			c2.256,0,3.926,1.43,3.926,4.16v9.117h2.525v1.398h-7.918v-1.398h2.258v-8.398c0-1.949-1.061-2.969-2.529-2.969
			c-1.061,0-2.354,0.543-3.549,1.504v9.863h2.352v1.398h-8.086V93.365z"/>
		<path fill="#005287" d="M160.535,93.365h2.531v-11.27h-2.322v-1.602h2.322v-1.539c0-1.363,0.336-3.516,1.119-4.742
			c1.301-2.012,4.027-2.969,6.793-2.969c0.648,0,1.229,0.035,2.393,0.172v4.473h-1.127c-0.139-1.473-0.305-3.109-2.529-3.109
			c-3.238,0-3.514,3.449-3.514,4.852v2.863h3.412v1.602h-3.412v11.27h2.764v1.398h-8.43V93.365z"/>
		<path fill="#005287" d="M174.459,87.627c0-3.859,1.641-6.145,4.332-6.145c2.736,0,4.34,2.285,4.34,6.145s-1.604,6.145-4.34,6.145
			C176.1,93.771,174.459,91.486,174.459,87.627 M170.943,87.627c0,4.234,3.451,7.543,7.848,7.543c4.404,0,7.854-3.309,7.854-7.543
			c0-4.23-3.449-7.539-7.854-7.539C174.395,80.088,170.943,83.396,170.943,87.627"/>
		<path fill="#005287" d="M188.283,93.365h2.563V81.893h-2.563v-1.398h5.701v2.391h0.066c1.707-2.117,2.563-2.797,3.484-2.797
			c0.859,0,1.611,0.406,2.436,1.363c-0.275,1.434-0.725,2.59-1.305,3.516c-0.822-1.504-1.301-2.016-2.26-2.016
			c-0.922,0-1.639,0.613-2.422,1.707v8.707h2.559v1.398h-8.26V93.365z"/>
		<path fill="#005287" d="M213.318,84.592h-0.99c-0.377-2.082-1.879-3.109-3.412-3.109c-2.289,0-3.824,1.668-3.824,5.328
			c0,4.195,1.605,6.445,4.576,6.445c2.318,0,3.684-1.566,4.025-1.566c0.273,0,0.475,0.613,0.475,0.852
			c0,0.578-2.352,2.629-5.559,2.629c-3.998,0-7.029-3.414-7.029-7.887c0-4.195,2.834-7.195,6.824-7.195
			c1.193,0,2.078,0.199,3.654,0.883l0.27-0.852h0.99V84.592z"/>
		<path fill="#005287" d="M219.256,85.1c0.207-2.422,0.99-3.617,2.863-3.617c1.809,0,2.941,1.293,3.211,3.617H219.256z
			 M228.674,86.498c-0.545-4.125-2.799-6.41-6.346-6.41c-3.924,0-6.488,2.797-6.488,7.129c0,3.996,2.631,7.953,7.479,7.953
			c1.945,0,3.039-0.375,5.355-1.805l0.24-1.539c-1.703,1.09-3.277,1.637-4.744,1.637c-3.039,0-4.914-2.867-4.914-6.965H228.674z"/>
		<path fill="#005287" d="M230.348,93.365h2.525V81.893h-2.525v-1.398h5.666v1.641c2.184-1.16,3.822-2.047,5.635-2.047
			c1.635,0,2.967,0.887,3.516,2.387c1.467-1.125,3.822-2.387,5.734-2.387c2.656,0,4.09,1.699,4.09,4.777v8.5h2.492v1.398h-8.02
			v-1.398h2.389v-7.582c0-2.457-0.852-3.621-2.631-3.621c-1.057,0-2.453,0.652-3.715,1.535v9.668h2.494v1.398h-8.027v-1.398h2.391
			v-7.137c0-2.422-0.342-4.066-2.557-4.066c-1.301,0-2.189,0.555-3.791,1.535v9.668h2.424v1.398h-8.09V93.365z"/>
		<path fill="#005287" d="M262.639,85.1c0.203-2.422,0.988-3.617,2.865-3.617c1.811,0,2.934,1.293,3.209,3.617H262.639z
			 M272.059,86.498c-0.553-4.125-2.801-6.41-6.354-6.41c-3.926,0-6.482,2.797-6.482,7.129c0,3.996,2.627,7.953,7.475,7.953
			c1.947,0,3.035-0.375,5.361-1.805l0.238-1.539c-1.707,1.09-3.281,1.637-4.746,1.637c-3.037,0-4.912-2.867-4.912-6.965H272.059z"/>
		<path fill="#005287" d="M273.623,93.365h2.596V81.893h-2.596v-1.398h5.734v1.602c1.676-1.23,3.381-2.008,5.291-2.008
			c2.256,0,3.93,1.43,3.93,4.16v9.117h2.523v1.398h-7.922v-1.398h2.256v-8.398c0-1.949-1.059-2.969-2.525-2.969
			c-1.059,0-2.352,0.543-3.553,1.504v9.863h2.355v1.398h-8.09V93.365z"/>
		<path fill="#005287" d="M292.193,81.893l5.121-5.289v3.891h3.99v1.398h-3.99v8.262c0,2.25,0.615,3.313,1.912,3.313
			c1.369,0,2.049-1.098,2.387-1.098c0.207,0,0.34,0.277,0.34,0.441c0,0.379-1.262,2.359-3.756,2.359
			c-2.588,0-4.021-1.672-4.021-4.742v-8.535H292.193z"/>
		<path fill="#005287" d="M204.029,62.826c-1.98,1.637-4.504,2.453-7.42,2.453c-6.107,0-10.371-4.641-10.371-10.41
			c0-6.246,4.504-10.852,10.682-10.852c1.715,0,3.361,0.309,4.928,0.887l0.24-1.16h1.262v5.973h-1.502
			c-0.576-2.527-2.422-3.992-5.064-3.992c-3.93,0-6.553,3.445-6.553,8.668c0,5.496,2.967,9.184,7.41,9.184
			c1.986,0,4.037-0.75,6.389-2.492V62.826z"/>
		<path fill="#005287" d="M205.195,50.604h5.703v9.828c0,1.844,0.988,2.938,2.592,2.938c0.955,0,2.184-0.516,3.479-1.473v-9.891
			h-2.523v-1.402h5.664v12.867h2.563v1.398h-5.703v-1.703c-1.771,1.5-3.451,2.109-5.117,2.109c-2.525,0-4.1-1.426-4.1-4.363v-8.906
			h-2.557V50.604z"/>
		<path fill="#005287" d="M224.443,60.467h0.754c0.477,2.121,2.078,3.418,3.75,3.418c1.506,0,2.531-0.75,2.531-1.883
			c0-2.219-3.35-2.219-5.738-4.605c-0.92-0.918-1.367-1.973-1.367-3.008c0-2.316,2.121-4.199,4.713-4.199
			c0.992,0,1.701,0.211,2.832,0.824v-0.781h1.063v3.785h-0.824c-0.406-1.535-1.5-2.422-2.932-2.422
			c-1.232,0-2.189,0.813-2.189,1.871c0,2.02,3.689,2.598,5.906,4.816c0.824,0.816,1.199,1.777,1.199,2.797
			c0,2.496-1.984,4.199-4.85,4.199c-1.365,0-2.15-0.23-3.65-1.051l-0.209,0.988h-0.988V60.467z"/>
		<path fill="#005287" d="M235.262,52.006l5.123-5.289v3.887h3.996v1.402h-3.996v8.258c0,2.25,0.611,3.313,1.912,3.313
			c1.363,0,2.043-1.094,2.387-1.094c0.203,0,0.344,0.273,0.344,0.445c0,0.375-1.266,2.348-3.76,2.348
			c-2.59,0-4.023-1.664-4.023-4.738v-8.531H235.262z"/>
		<path fill="#005287" d="M249.877,57.74c0-3.863,1.633-6.145,4.33-6.145c2.729,0,4.334,2.281,4.334,6.145
			c0,3.855-1.605,6.145-4.334,6.145C251.51,63.885,249.877,61.596,249.877,57.74 M246.357,57.74c0,4.23,3.443,7.539,7.85,7.539
			c4.4,0,7.852-3.309,7.852-7.539s-3.451-7.547-7.852-7.547C249.801,50.193,246.357,53.51,246.357,57.74"/>
		<path fill="#005287" d="M263.76,63.471h2.527V52.006h-2.527v-1.402h5.67v1.633c2.18-1.156,3.82-2.047,5.629-2.047
			c1.641,0,2.969,0.891,3.514,2.391c1.469-1.121,3.824-2.391,5.73-2.391c2.666,0,4.105,1.715,4.105,4.781v8.5h2.486v1.398h-8.021
			v-1.398h2.393v-7.582c0-2.453-0.855-3.613-2.631-3.613c-1.055,0-2.455,0.648-3.715,1.539v9.656h2.486v1.398h-8.021v-1.398h2.391
			v-7.133c0-2.422-0.342-4.063-2.561-4.063c-1.297,0-2.188,0.547-3.785,1.539v9.656h2.422v1.398h-8.092V63.471z"/>
		<path fill="#005287" d="M292.699,60.467h0.756c0.475,2.121,2.08,3.418,3.75,3.418c1.504,0,2.531-0.75,2.531-1.883
			c0-2.219-3.344-2.219-5.734-4.605c-0.928-0.918-1.369-1.973-1.369-3.008c0-2.316,2.121-4.199,4.715-4.199
			c0.988,0,1.703,0.211,2.83,0.824v-0.781h1.063v3.785h-0.826c-0.408-1.535-1.5-2.422-2.932-2.422c-1.23,0-2.188,0.813-2.188,1.871
			c0,2.02,3.691,2.598,5.904,4.816c0.822,0.816,1.201,1.777,1.201,2.797c0,2.496-1.986,4.199-4.855,4.199
			c-1.363,0-2.146-0.23-3.641-1.051l-0.213,0.988h-0.992V60.467z"/>
		<path fill="#005287" d="M127.254,52.557c1.701-1.504,3.723-2.352,5.426-2.352c2.764,0,4.473,1.906,4.473,5.012v5.84
			c0,1.43,0.609,2.32,1.467,2.32c0.268,0,1.16-0.133,1.471-0.203v0.957c-1.061,0.746-2.121,1.164-3.111,1.164
			c-1.088,0-1.838-0.617-2.588-2.121c-1.711,1.262-2.939,2.121-4.166,2.121c-1.881,0-3.313-1.676-3.313-3.762
			c0-2.109,1.158-3.309,3.957-3.996l3.145-0.781v-1.914c0-1.672-0.516-2.832-2.393-2.832c-1.09,0-2.32,0.48-4.025,1.539
			L127.254,52.557z M129.848,61.127c0,1.086,0.785,1.91,1.842,1.91c0.682,0,1.434-0.34,2.324-1.059v-3.824
			C131.039,58.869,129.848,59.729,129.848,61.127"/>
		<path fill="#005287" d="M141.008,63.482h2.596V52.01h-2.596v-1.398h5.734v1.605c1.676-1.227,3.377-2.012,5.287-2.012
			c2.256,0,3.926,1.43,3.926,4.16v9.117h2.525v1.395h-7.914v-1.395h2.248V55.08c0-1.941-1.059-2.969-2.523-2.969
			c-1.061,0-2.357,0.547-3.549,1.504v9.867h2.354v1.395h-8.088V63.482z"/>
		<path fill="#005287" d="M169.824,63.482h-1.363c-3.377,0-5.801-1.609-5.801-5.973c0-3.484,1.43-5.5,3.82-5.5
			c1.096,0,2.283,0.547,3.344,1.605V63.482z M167.299,43.822h2.525v8.188c-1.398-1.188-2.9-1.805-4.332-1.805
			c-3.449,0-6.348,3.305-6.348,7.305c0,4.504,3.203,7.367,8.154,7.367h8.191v-1.395h-2.525V42.42h-5.666V43.822z"/>
		<polygon fill="#005287" points="183.148,33.143 185.984,33.143 185.984,16.111 183.148,16.111 183.148,14.404 192.123,14.404 
			192.123,16.111 189.291,16.111 189.291,33.143 192.123,33.143 192.123,34.85 183.148,34.85"/>
		<path fill="#005287" d="M194.178,33.451h2.533V21.982h-2.533v-1.398h5.676v1.641c2.186-1.164,3.82-2.051,5.631-2.051
			c1.639,0,2.967,0.887,3.518,2.391c1.463-1.129,3.82-2.391,5.73-2.391c2.668,0,4.098,1.707,4.098,4.777v8.5h2.492v1.402h-8.023
			v-1.402h2.393v-7.578c0-2.457-0.855-3.617-2.631-3.617c-1.055,0-2.455,0.648-3.723,1.535v9.66h2.494v1.402h-8.02v-1.402h2.385
			v-7.137c0-2.418-0.334-4.059-2.555-4.059c-1.295,0-2.186,0.547-3.789,1.535v9.66h2.424v1.402h-8.1V33.451z"/>
		<path fill="#005287" d="M222.617,33.451h2.529V21.982h-2.529v-1.398h5.666v1.641c2.186-1.164,3.826-2.051,5.635-2.051
			c1.635,0,2.967,0.887,3.516,2.391c1.467-1.129,3.822-2.391,5.734-2.391c2.658,0,4.09,1.707,4.09,4.777v8.5h2.498v1.402h-8.021
			v-1.402h2.387v-7.578c0-2.457-0.854-3.617-2.627-3.617c-1.061,0-2.461,0.648-3.725,1.535v9.66h2.498v1.402h-8.025v-1.402h2.389
			v-7.137c0-2.418-0.34-4.059-2.557-4.059c-1.299,0-2.188,0.547-3.791,1.535v9.66h2.426v1.402h-8.092V33.451z"/>
		<path fill="#005287" d="M257.125,15.529c0,1.059-0.885,1.949-1.943,1.949c-1.061,0-1.947-0.891-1.947-1.949
			c0-1.055,0.887-1.941,1.947-1.941C256.24,13.588,257.125,14.475,257.125,15.529"/>
		<polygon fill="#005287" points="251.426,33.447 253.918,33.447 253.918,21.982 251.426,21.982 251.426,20.584 257.053,20.584 
			257.053,33.447 259.48,33.447 259.48,34.854 251.426,34.854"/>
		<path fill="#005287" d="M264.91,25.604c0-2.598,1.158-4.168,3.105-4.168c1.912,0,2.998,1.605,2.998,4.336
			c0,2.594-1.154,4.164-2.998,4.164C266.068,29.936,264.91,28.299,264.91,25.604 M275.383,20.584h-4.434
			c-0.443,0-0.857-0.102-1.332-0.207c-0.512-0.102-1.092-0.203-1.947-0.203c-3.545,0-6.004,2.219-6.004,5.465
			c0,2.727,1.602,4.566,4.707,5.387v0.07l-0.51,0.098c-1.672,0.449-2.426,1.234-2.426,2.227c0,0.852,0.615,1.668,1.74,2.387
			c-2.867,0.992-4.191,2.184-4.191,3.582c0,1.777,2.553,3.957,7.029,3.957c4.334,0,7.164-1.84,7.164-4.703
			c0-0.887-0.203-1.539-0.953-2.289c-2.186-2.184-7.814-2.152-7.814-3.859c0-0.203,0.068-0.27,0.236-0.441
			c1.021-1.027,3.547-0.238,6.109-2.801c0.992-0.988,1.502-2.422,1.502-3.754c0-1.293-0.479-2.457-1.432-3.516h2.555V20.584z
			 M266.373,36.318c4.613,1.297,6.145,1.98,6.145,3.242c0,0.582-0.443,1.164-1.125,1.402c-0.75,0.273-2.049,0.473-3.242,0.473
			c-2.461,0-4.098-0.953-4.098-2.355C264.053,38.092,264.666,37.381,266.373,36.318"/>
		<path fill="#005287" d="M276.24,33.451h2.557V21.982h-2.557v-1.398h5.695v2.391h0.072c1.703-2.113,2.555-2.801,3.48-2.801
			c0.85,0,1.6,0.41,2.424,1.367c-0.277,1.434-0.719,2.594-1.299,3.516c-0.82-1.504-1.297-2.016-2.252-2.016
			c-0.922,0-1.645,0.617-2.426,1.707v8.703h2.563v1.402h-8.258V33.451z"/>
		<path fill="#005287" d="M296.582,28.127v3.824c-0.887,0.715-1.639,1.059-2.32,1.059c-1.061,0-1.846-0.824-1.846-1.914
			C292.416,29.697,293.611,28.842,296.582,28.127 M290.164,23.518c1.709-1.055,2.934-1.535,4.027-1.535
			c1.881,0,2.391,1.164,2.391,2.832v1.918l-3.143,0.785c-2.793,0.68-3.959,1.875-3.959,3.992c0,2.074,1.436,3.75,3.314,3.75
			c1.225,0,2.455-0.852,4.16-2.113c0.752,1.5,1.502,2.113,2.598,2.113c0.982,0,2.045-0.406,3.102-1.16v-0.953
			c-0.305,0.063-1.195,0.199-1.467,0.199c-0.85,0-1.469-0.883-1.469-2.32v-5.836c0-3.102-1.705-5.016-4.469-5.016
			c-1.705,0-3.721,0.852-5.424,2.355L290.164,23.518z"/>
		<path fill="#005287" d="M303.314,21.982l5.119-5.293v3.895h3.996v1.398h-3.996v8.262c0,2.25,0.611,3.309,1.908,3.309
			c1.367,0,2.049-1.09,2.393-1.09c0.203,0,0.338,0.273,0.338,0.441c0,0.375-1.262,2.355-3.752,2.355
			c-2.598,0-4.029-1.676-4.029-4.742v-8.535H303.314z"/>
		<path fill="#005287" d="M320.102,15.529c0,1.059-0.885,1.949-1.945,1.949c-1.055,0-1.947-0.891-1.947-1.949
			c0-1.055,0.893-1.941,1.947-1.941C319.217,13.588,320.102,14.475,320.102,15.529"/>
		<polygon fill="#005287" points="314.406,33.447 316.896,33.447 316.896,21.982 314.406,21.982 314.406,20.584 320.033,20.584 
			320.033,33.447 322.455,33.447 322.455,34.854 314.406,34.854"/>
		<path fill="#005287" d="M327.885,27.717c0-3.859,1.641-6.145,4.336-6.145c2.732,0,4.338,2.285,4.338,6.145
			s-1.605,6.145-4.338,6.145C329.525,33.861,327.885,31.576,327.885,27.717 M324.367,27.717c0,4.234,3.451,7.543,7.854,7.543
			s7.85-3.309,7.85-7.543s-3.447-7.543-7.85-7.543S324.367,23.482,324.367,27.717"/>
	</g>
	<g>
		<path fill="#C31230" d="M87.086,34.729c-0.602,0.207-1.201,0.371-1.787,0.5c3.344,5.469,5.268,11.895,5.268,18.77
			c0,19.918-16.148,36.066-36.066,36.066S18.434,73.916,18.434,53.998c0-7.176,2.1-13.863,5.715-19.484
			c-0.576-0.168-1.139-0.387-1.703-0.652c-3.672,5.832-5.797,12.738-5.797,20.137c0,20.906,16.947,37.852,37.852,37.852
			s37.852-16.945,37.852-37.852C92.352,46.959,90.432,40.373,87.086,34.729"/>
		<path fill="#C31230" d="M33.531,24.654c5.91-4.23,13.146-6.719,20.969-6.719c8.736,0,16.746,3.102,22.988,8.27
			c0.703-0.199,1.387-0.379,2.09-0.559c-6.676-5.91-15.457-9.5-25.078-9.5c-8.623,0-16.576,2.887-22.939,7.746
			c0.299,0.105,0.604,0.219,0.91,0.336C32.836,24.369,33.189,24.51,33.531,24.654"/>
		<path fill="#C0C1C3" d="M54.492,0.354c-29.627,0-53.645,24.02-53.645,53.645c0,29.629,24.018,53.648,53.645,53.648
			c29.625,0,53.645-24.02,53.645-53.648C108.137,24.373,84.117,0.354,54.492,0.354 M54.494,104.322
			c-27.795,0-50.324-22.527-50.324-50.324c0-27.789,22.529-50.32,50.324-50.32c27.789,0,50.318,22.531,50.318,50.32
			C104.813,81.795,82.283,104.322,54.494,104.322"/>
		<path fill="#005287" d="M41.547,43.244c-0.764-0.391-1.432-0.84-2.146-1.496c-2.303-2.098-2.85-4.305-2.168-6.836
			c0.404-1.508,1.023-2.27,0.813-3.84c-0.121-0.902-0.758-1.629-1.396-2.242c-1.541-1.48-3.363-2.391-6.061-3.301
			c-1.666-0.559-6.506-2.059-8.645-3.996c-0.482,1.422,0.551,3.313,1.781,3.566c-1.09,0.105-2.021,0.676-2.455,1.297
			c0.824,0.949,2.467,1.941,3.82,1.969c-0.627,0.418-1.389,1.309-1.645,1.809c1.172,0.621,3.041,1.145,4.479,1.047
			c-0.604,0.48-1.129,1.098-1.469,1.656c0.973,0.445,2.865,1.09,4.666,1.223c-0.664,0.328-1.611,1.461-2.1,2.156
			c1.012,0.453,3.207,0.727,4.568,0.863c-0.977,0.512-1.994,1.535-2.555,2.457c0.984,0.477,2.842,1.004,4.357,0.953
			c-0.746,0.715-1.24,1.586-1.525,2.43c1.148,0.234,2.357,0.242,3.752,0.055c-0.85,1.074-1.189,2.496-1.309,3.508
			c1.137-0.031,2.646-0.289,3.713-0.93c-0.234,0.871-0.182,2.047,0.191,2.875c0.449-0.098,0.967-0.285,1.531-0.594
			C41.668,46.26,41.596,44.607,41.547,43.244"/>
		<path fill="#005287" d="M87.775,24.143c-2.139,1.938-5.557,2.453-9.145,3.637c-2.699,0.891-4.377,1.414-6.797,3.344
			c-0.691,0.551-1.348,1.355-1.273,2.746c0.082,1.547,0.332,2.211,0.369,4.371c0.029,1.539-0.5,2.777-1.148,3.508
			c-0.68,0.773-1.57,1.445-2.361,1.859c-0.051,1.316-0.107,2.633-0.182,4.168c0.563,0.305,1.283,0.59,1.727,0.691
			c0.375-0.828,0.43-2.004,0.195-2.875c1.064,0.641,2.574,0.898,3.709,0.93c-0.117-1.012-0.457-2.434-1.309-3.508
			c1.396,0.184,2.605,0.18,3.754-0.055c-0.285-0.844-0.779-1.715-1.527-2.434c1.518,0.051,3.375-0.473,4.361-0.949
			c-0.564-0.922-1.58-1.945-2.555-2.457c1.359-0.137,3.613-0.398,4.625-0.852c-0.486-0.699-1.498-1.84-2.156-2.168
			c1.801-0.133,3.691-0.777,4.666-1.219c-0.344-0.563-0.869-1.18-1.469-1.66c1.688-0.117,3.307-0.426,4.477-1.047
			c-0.256-0.5-1.02-1.391-1.645-1.813C87.707,27.357,87.77,25.549,87.775,24.143"/>
		<path fill="#005287" d="M72.568,27.963c-5.129-3.559-11.359-5.648-18.074-5.648c-6.127,0-11.844,1.738-16.693,4.742
			c1.258,0.977,2.002,2.008,2.186,3.082c0.16,0.941,0.27,2.074-0.277,3.727c-0.576,1.758-0.891,3.559,0.404,5.391
			c1.291,1.824,2.967,2.609,4.354,2.879c1.816-0.32,3.832-0.582,5.836-0.742c0.264-0.852,1.037-1.586,1.813-2.191
			c1.127-0.875,0.879-1.645,0.613-2.238c-0.209-0.465-0.613-0.844-1.193-1.145c-0.506-0.262-2.365-0.457-2.314,0.73
			c-0.303-0.43-0.549-1.012-0.367-1.754c0.248-1.039,1.941-1.301,2.361-1.27c-0.324-0.277-0.121-0.723,0.619-0.93
			c0.9-0.25,1.754-0.285,2.582-0.266c1.695,0.043,1.963,0.461,2.826,1.227c1.041,0.922,2.412,1.242,2.955,0.684
			c-0.387,0.887-1.623,1.355-2.416,1.219c0.387,1.223,0.523,2.289,0.662,3.57c0.064,0.586,0.186,1.566,0.344,2.371
			c2.279,0.188,4.563,0.5,6.555,0.883c0.826-0.242,1.682-0.727,2.447-1.613c0.73-0.84,1.4-1.91,1.123-4.598
			c-0.076-0.754-0.457-2.691-0.402-3.602C68.627,30.404,70.162,29.057,72.568,27.963"/>
		<path fill="#005287" d="M51.5,33.623c0.316,0.238,0.498,0.266,0.604,0.242c0.008,0.059,0.111,0.133,0.135,0.156
			c0.066,0.059,0.105,0.117,0.123,0.18c0.143-0.059,0.52-0.215,0.865-0.336c0.352-0.129,0.836-0.27,0.836-0.27
			C52.563,33.279,52.334,33.736,51.5,33.623"/>
		<path fill="#0079AD" d="M53.605,58.682l-0.629-0.316l-0.408-1.063l-0.926-0.406l-1.041-0.93l-0.619,0.684l-0.922,0.215
			l-0.492,0.781l-0.748,0.789l-1.01,0.539l-0.701,1.18l-0.395,0.527l-0.686,0.531l-0.375-0.398l-0.404,0.387l-0.504,0.938
			c-0.266-0.703-0.43-1.242-0.51-2.363c-0.148-2.07-0.299-4.676-0.447-7.34c3.42-0.734,7.773-1.223,11.307-1.258v8.074
			C53.938,59.158,53.771,59.08,53.605,58.682"/>
		<path fill="#5D9632" d="M54.096,62.572H43.93c0.148,0.313,0.32,0.605,0.518,0.883c0.732,1.031,1.773,1.789,3.098,2.195
			c1.797,0.551,2.941,0.91,3.775,1.176l0.994,0.309c0.813,0.254,1.381,0.617,1.781,1.023V62.572z"/>
		<path fill="#005287" d="M64.838,58.646c0.275-0.223,0.598-0.488,1.02-0.641c0.061-0.945,0.123-1.961,0.186-3.012
			c-0.113,0.074-0.232,0.168-0.375,0.285c-0.486,0.391-1.092,0.879-2.156,0.879c-1.002,0-1.65-0.395-2.168-0.715
			c-0.426-0.262-0.764-0.465-1.258-0.465c-0.551,0-1.023,0.281-1.523,0.582c-0.539,0.32-1.152,0.688-1.902,0.688
			c-0.766,0-1.324-0.234-1.779-0.484v2.855c0.107,0.059,0.207,0.121,0.301,0.18c0.455,0.281,0.85,0.523,1.479,0.523
			c0.385,0,0.773-0.234,1.221-0.504c0.607-0.363,1.289-0.77,2.205-0.77c0.865,0,1.441,0.352,1.949,0.66
			c0.455,0.285,0.846,0.523,1.477,0.523C64.109,59.232,64.432,58.975,64.838,58.646"/>
		<path fill="#005287" d="M56.66,65.15c-0.766,0-1.324-0.234-1.779-0.484v3.492c0.402-0.406,0.971-0.77,1.783-1.02l0.996-0.313
			c0.832-0.262,1.973-0.625,3.773-1.176c0.521-0.16,1.004-0.375,1.438-0.645c-0.654-0.121-1.127-0.414-1.527-0.66
			c-0.426-0.266-0.766-0.473-1.258-0.473c-0.551,0-1.023,0.285-1.523,0.586C58.023,64.783,57.41,65.15,56.66,65.15"/>
		<path fill="#0079AD" d="M64.838,54.252c0.334-0.266,0.73-0.59,1.289-0.715c0.021-0.363,0.041-0.73,0.063-1.098
			c-3.422-0.738-7.768-1.223-11.309-1.262v3.051c0.107,0.059,0.207,0.121,0.301,0.18c0.455,0.281,0.85,0.523,1.479,0.523
			c0.385,0,0.773-0.234,1.221-0.504c0.607-0.359,1.289-0.77,2.205-0.77c0.865,0,1.441,0.352,1.949,0.664
			c0.455,0.281,0.846,0.52,1.477,0.52C64.109,54.842,64.432,54.584,64.838,54.252"/>
		<path fill="#0079AD" d="M54.881,60.154v2.977c0.105,0.055,0.205,0.117,0.301,0.18c0.455,0.281,0.85,0.52,1.479,0.52
			c0.385,0,0.771-0.23,1.221-0.5c0.605-0.363,1.289-0.773,2.205-0.773c0.865,0,1.439,0.355,1.947,0.664
			c0.455,0.281,0.848,0.52,1.477,0.52c0.488,0,0.789-0.168,1.105-0.41c0.652-0.965,1.033-2.164,1.127-3.555
			c0.002-0.059,0.006-0.121,0.012-0.176c-0.029,0.02-0.057,0.043-0.088,0.066c-0.484,0.395-1.092,0.883-2.156,0.883
			c-1,0-1.648-0.395-2.168-0.715c-0.424-0.262-0.764-0.473-1.256-0.473c-0.553,0-1.023,0.285-1.525,0.586
			c-0.539,0.324-1.15,0.691-1.9,0.691C55.893,60.639,55.336,60.404,54.881,60.154"/>
		<path fill="#005287" d="M42.746,51.658c-0.162-2.973-0.303-5.961-0.389-8.32c3.602-0.82,8.381-1.359,12.131-1.359
			c3.754,0,8.529,0.539,12.133,1.359c-0.084,2.359-0.227,5.348-0.391,8.32c-3.396-0.719-7.889-1.254-11.742-1.254
			C50.637,50.404,46.146,50.939,42.746,51.658"/>
		<polygon fill="#FFFFFF" points="45.113,45.303 45.248,44.658 44.656,44.393 45.299,44.322 45.367,43.674 45.631,44.271 
			46.264,44.139 45.783,44.576 46.107,45.146 45.545,44.814"/>
		<polygon fill="#FFFFFF" points="49.074,44.775 48.525,44.42 48.072,44.889 48.234,44.252 47.652,43.959 48.301,43.92 
			48.396,43.271 48.633,43.885 49.273,43.775 48.773,44.193"/>
		<polygon fill="#FFFFFF" points="52.041,44.549 51.514,44.166 51.035,44.607 51.23,43.982 50.666,43.662 51.314,43.654 
			51.443,43.014 51.65,43.635 52.291,43.561 51.771,43.951"/>
		<polygon fill="#FFFFFF" points="55.008,44.486 54.504,44.068 54,44.486 54.232,43.869 53.688,43.514 54.336,43.545 54.504,42.916 
			54.672,43.545 55.318,43.514 54.773,43.869"/>
		<polygon fill="#FFFFFF" points="63.459,44.818 62.898,45.15 63.221,44.58 62.742,44.146 63.373,44.275 63.641,43.678 
			63.705,44.326 64.352,44.396 63.758,44.666 63.893,45.307"/>
		<polygon fill="#FFFFFF" points="60.23,44.193 59.729,43.779 60.365,43.885 60.604,43.271 60.701,43.92 61.348,43.955 
			60.77,44.252 60.934,44.889 60.479,44.424 59.93,44.779"/>
		<polygon fill="#FFFFFF" points="57.236,43.951 56.715,43.564 57.361,43.635 57.568,43.014 57.695,43.654 58.344,43.662 
			57.779,43.986 57.975,44.611 57.496,44.166 56.967,44.549"/>
		<polygon fill="#FFFFFF" points="45.545,50.104 45.684,49.467 45.092,49.193 45.738,49.131 45.811,48.479 46.07,49.08 
			46.703,48.951 46.219,49.389 46.539,49.955 45.98,49.619"/>
		<polygon fill="#FFFFFF" points="49.396,49.619 48.852,49.26 48.395,49.725 48.563,49.088 47.982,48.791 48.629,48.756 
			48.732,48.107 48.965,48.725 49.604,48.619 49.102,49.033"/>
		<polygon fill="#FFFFFF" points="52.25,49.412 51.727,49.025 51.246,49.471 51.441,48.846 50.877,48.518 51.527,48.514 
			51.66,47.873 51.861,48.498 52.506,48.428 51.984,48.814"/>
		<polygon fill="#FFFFFF" points="55.105,49.361 54.602,48.947 54.1,49.361 54.332,48.748 53.787,48.389 54.434,48.424 
			54.602,47.791 54.771,48.424 55.418,48.389 54.871,48.748"/>
		<polygon fill="#FFFFFF" points="63.225,49.658 62.664,49.99 62.986,49.42 62.504,48.986 63.135,49.115 63.4,48.514 63.469,49.166 
			64.113,49.232 63.521,49.502 63.658,50.143"/>
		<polygon fill="#FFFFFF" points="60.105,49.057 59.602,48.643 60.242,48.744 60.479,48.135 60.578,48.779 61.225,48.818 
			60.646,49.115 60.811,49.748 60.354,49.283 59.809,49.643"/>
		<polygon fill="#FFFFFF" points="57.219,48.826 56.701,48.436 57.346,48.51 57.551,47.889 57.68,48.529 58.328,48.533 
			57.764,48.861 57.959,49.486 57.48,49.037 56.951,49.424"/>
		<polygon fill="#FFFFFF" points="46.963,47.268 47.117,46.631 46.529,46.346 47.178,46.299 47.266,45.65 47.512,46.256 
			48.148,46.143 47.656,46.564 47.961,47.143 47.41,46.795"/>
		<polygon fill="#FFFFFF" points="44.125,47.721 44.254,47.08 43.658,46.814 44.303,46.74 44.365,46.092 44.633,46.686 
			45.266,46.549 44.789,46.99 45.117,47.557 44.553,47.229"/>
		<polygon fill="#FFFFFF" points="50.805,46.869 50.27,46.498 49.801,46.951 49.982,46.322 49.412,46.01 50.061,45.99 
			50.176,45.346 50.395,45.963 51.035,45.873 50.523,46.275"/>
		<polygon fill="#FFFFFF" points="53.648,46.732 53.131,46.334 52.643,46.764 52.855,46.146 52.297,45.807 52.945,45.818 
			53.094,45.182 53.281,45.807 53.928,45.752 53.396,46.127"/>
		<polygon fill="#FFFFFF" points="56.492,46.768 56.004,46.338 55.486,46.736 55.74,46.131 55.207,45.752 55.854,45.811 
			56.041,45.182 56.189,45.822 56.836,45.811 56.281,46.15"/>
		<polygon fill="#FFFFFF" points="64.586,47.252 64.016,47.572 64.354,47.006 63.879,46.561 64.51,46.705 64.785,46.111 
			64.84,46.764 65.484,46.846 64.885,47.104 65.008,47.748"/>
		<polygon fill="#FFFFFF" points="61.482,46.584 60.988,46.158 61.625,46.275 61.871,45.67 61.959,46.318 62.605,46.369 
			62.02,46.654 62.174,47.291 61.727,46.814 61.172,47.162"/>
		<polygon fill="#FFFFFF" points="58.609,46.287 58.1,45.889 58.742,45.975 58.959,45.357 59.076,46.002 59.725,46.021 
			59.152,46.334 59.332,46.967 58.863,46.51 58.328,46.881"/>
		<path fill="#005287" d="M94.25,34.721c1.479-0.652,3.172-0.355,3.604,0.625c0.43,0.988-0.498,2.434-1.977,3.082
			c-1.488,0.652-3.186,0.355-3.617-0.629C91.832,36.818,92.76,35.369,94.25,34.721 M96.48,39.811c1.871-0.82,2.715-2.91,1.928-4.711
			c-0.791-1.801-2.895-2.582-4.762-1.762c-1.873,0.82-2.734,2.902-1.945,4.699C92.492,39.842,94.609,40.631,96.48,39.811"/>
		<polygon fill="#005287" points="93.867,44.682 93.154,41.861 93.59,41.752 93.787,42.537 99.756,41.025 99.559,40.236 
			99.992,40.127 101.076,44.396 101.365,44.318 101.508,44.881 99.859,45.299 99.721,44.748 100.465,44.561 99.918,42.404 
			97.473,43.025 97.896,44.682 98.6,44.506 98.75,45.061 96.711,45.58 96.559,45.021 97.283,44.838 96.863,43.182 94.125,43.877 
			94.301,44.568"/>
		<path fill="#005287" d="M10.418,37.115l-0.258,0.859l3.852,1.148c1.158,0.348,1.766,0.965,1.916,1.957
			c0.07,0.512,0.033,1.043-0.125,1.582c-0.494,1.656-1.729,2.461-3.141,2.039l-4.139-1.234l-0.232,0.777l-0.432-0.129l0.855-2.867
			l0.434,0.129l-0.23,0.77l3.82,1.137c1.035,0.309,1.559,0.27,1.994-0.176c0.195-0.207,0.355-0.484,0.447-0.789
			c0.365-1.23-0.146-2.164-1.398-2.539l-3.811-1.133l-0.254,0.852l-0.439-0.133l0.709-2.375L10.418,37.115z"/>
		<path fill="#005287" d="M17.188,38.779c-0.152,0.367-0.572,0.535-0.938,0.383s-0.537-0.57-0.383-0.934
			c0.152-0.367,0.572-0.539,0.938-0.387S17.342,38.412,17.188,38.779"/>
		<path fill="#005287" d="M18.521,35.732l-0.289,0.512l-1.678-0.941l0.291-0.516l0.686,0.387c0.574-0.23,0.873-0.48,1.129-0.934
			c0.326-0.578,0.215-1.191-0.268-1.465c-0.418-0.238-0.871-0.133-1.914,0.418c-1.094,0.59-1.248,0.648-1.664,0.734
			c-0.402,0.082-0.844-0.008-1.25-0.238c-1.029-0.578-1.285-1.711-0.643-2.852c0.201-0.363,0.422-0.617,0.768-0.891l-0.277-0.16
			l0.281-0.5l1.592,0.895l-0.281,0.504l-0.643-0.359c-0.469,0.25-0.705,0.445-0.9,0.793c-0.273,0.484-0.137,1.051,0.301,1.297
			c0.373,0.211,0.727,0.125,1.801-0.449c0.518-0.27,0.836-0.445,0.969-0.504c0.27-0.133,0.584-0.215,0.926-0.23
			c0.389-0.016,0.742,0.074,1.107,0.277c1.061,0.598,1.371,1.793,0.76,2.883c-0.305,0.539-0.637,0.867-1.129,1.156L18.521,35.732z"
			/>
		<path fill="#005287" d="M21.322,30.889c0,0.391-0.309,0.699-0.699,0.699c-0.389,0-0.697-0.309-0.697-0.699
			s0.309-0.699,0.697-0.699C21.014,30.189,21.322,30.498,21.322,30.889"/>
		<polygon fill="#005287" points="37.861,17.139 33.338,19.471 33.131,19.068 33.854,18.697 31.035,13.225 30.314,13.596 
			30.109,13.193 34.023,11.182 33.887,10.916 34.4,10.65 35.178,12.162 34.676,12.424 34.322,11.736 32.346,12.752 33.5,14.998 
			35.02,14.217 34.686,13.568 35.195,13.291 36.162,15.166 35.652,15.439 35.311,14.775 33.787,15.557 34.998,17.908 37.061,16.846 
			36.697,16.139 37.209,15.877"/>
		<path fill="#005287" d="M42.215,15.568l-2.941,0.973l-0.143-0.426l0.773-0.258l-1.939-5.844l-0.771,0.258l-0.141-0.426l3.074-1.02
			c1.258-0.418,2.334,0.07,2.719,1.238c0.367,1.105-0.305,2.344-1.492,2.734c-0.172,0.059-0.287,0.086-0.566,0.121l-0.166-0.496
			c0.143-0.012,0.195-0.031,0.285-0.063c0.689-0.227,0.91-0.852,0.609-1.754c-0.314-0.957-0.854-1.328-1.586-1.086L39.32,9.725
			l1.891,5.703l0.865-0.289L42.215,15.568z"/>
		<path fill="#005287" d="M45.701,11.674l0.607-2.816l1.457,2.461L45.701,11.674z M50.902,13.193l-0.443,0.078l-3.781-6.277
			l-0.643,0.109l-1.547,7.203l-0.654,0.113l0.078,0.438l2.18-0.375l-0.076-0.441l-0.844,0.148l0.389-1.828l2.559-0.441l0.949,1.59
			l-0.736,0.129l0.076,0.441l2.57-0.445L50.902,13.193z"/>
		<path fill="#005287" d="M53.947,7.186l0.674,0.004c0.76,0,1.199,0.496,1.195,1.348c-0.002,0.848-0.506,1.434-1.242,1.434
			l-0.633-0.004L53.947,7.186z M58.285,13.193h-0.439c-0.213,0-0.342-0.098-0.586-0.469l-1.514-2.336
			c1.006-0.309,1.498-0.926,1.5-1.891c0.002-0.566-0.166-1.023-0.518-1.379c-0.385-0.387-0.898-0.527-1.816-0.527l-3.154-0.008
			v0.449h0.813l-0.016,6.16l-0.813-0.004v0.449l2.994,0.008v-0.449l-0.803-0.004l0.006-2.691h0.289l1.598,2.516
			c0.363,0.566,0.469,0.633,1.1,0.637h1.357L58.285,13.193z"/>
		<polygon fill="#005287" points="63.121,14.502 59.727,13.928 59.801,13.486 60.824,13.658 61.82,7.768 59.996,7.459 59.85,8.334 
			59.27,8.236 59.572,6.443 60.154,6.541 60.102,6.838 65.098,7.682 65.148,7.389 65.727,7.486 65.424,9.275 64.844,9.178 
			64.994,8.303 63.18,7.998 62.184,13.889 63.195,14.061"/>
		<polygon fill="#005287" points="73.109,17.881 70.15,16.729 70.313,16.311 71.148,16.639 72.818,12.33 68.756,16.307 
			68.189,10.639 66.555,14.854 67.395,15.178 67.23,15.596 64.928,14.705 65.09,14.287 65.926,14.611 68.152,8.869 67.318,8.549 
			67.479,8.127 69.242,8.811 69.809,14.361 73.688,10.533 75.66,11.303 75.496,11.721 74.662,11.396 72.438,17.135 73.273,17.459 		
			"/>
		<polygon fill="#005287" points="78.316,21.279 74.025,18.541 74.268,18.162 74.951,18.604 78.266,13.412 77.582,12.975 
			77.824,12.596 81.535,14.967 81.693,14.717 82.184,15.025 81.268,16.459 80.789,16.154 81.205,15.506 79.332,14.307 
			77.977,16.432 79.414,17.354 79.809,16.74 80.297,17.041 79.164,18.818 78.672,18.518 79.076,17.889 77.633,16.967 76.211,19.189 
			78.168,20.439 78.594,19.771 79.08,20.084"/>
		<path fill="#005287" d="M30.898,16.908c-1.17-1.594-3.35-1.902-4.977-0.707l-2.688,1.973l0.264,0.363l0.656-0.48l3.637,4.953
			c0.174,0.066,0.344,0.129,0.514,0.191l1.783-1.309c0.846-0.621,1.285-1.301,1.447-2.219
			C31.703,18.678,31.479,17.701,30.898,16.908 M29.525,21.576l-0.697,0.516l-3.477-4.73l0.732-0.539c1.01-0.742,2.67-0.289,3.6,0.98
			C30.678,19.154,30.611,20.779,29.525,21.576"/>
		<path fill="#005287" d="M87.418,19.818l-0.303,0.332l0.625,0.57l-3.02,3.309l0.762-5.973l-1.57-1.438l-0.303,0.332l0.568,0.52
			l-0.115,0.633l-3.783,4.148l-0.654-0.602l-0.301,0.332l1.783,1.629l0.303-0.336l-0.625-0.566l3.148-3.449l-0.672,5.48
			c0.652-0.168,1.35-0.355,2.102-0.566c0.063-0.016,0.121-0.031,0.182-0.051l2.691-2.949l0.664,0.602l0.303-0.332L87.418,19.818z"/>
		<path fill="#005287" d="M94.613,27.592l-0.238,0.18l-3.074-4.023l0.236-0.184l-0.357-0.469l-1.441,1.102l0.355,0.469l0.705-0.539
			l1.121,1.469l-4.746,3.629l-0.246-0.32c-0.135,0.074-0.273,0.145-0.412,0.199l1.762,2.305l0.355-0.273l-0.621-0.813l4.748-3.629
			l1.113,1.461l-0.703,0.539l0.357,0.465l1.441-1.102L94.613,27.592z"/>
		<path fill="#005287" d="M63.359,100.99l-0.574,0.125l-0.414-1.879l0.576-0.129l0.17,0.773c0.553,0.273,0.936,0.332,1.451,0.219
			c0.645-0.141,1.031-0.629,0.914-1.172c-0.105-0.473-0.482-0.738-1.59-1.152c-1.164-0.426-1.314-0.5-1.654-0.754
			c-0.328-0.246-0.555-0.633-0.654-1.094c-0.252-1.148,0.426-2.098,1.699-2.375c0.408-0.09,0.746-0.098,1.18-0.02l-0.068-0.309
			l0.561-0.125l0.395,1.785l-0.566,0.125l-0.156-0.723c-0.5-0.188-0.803-0.227-1.189-0.145c-0.543,0.121-0.879,0.598-0.77,1.09
			c0.092,0.418,0.391,0.625,1.529,1.039c0.551,0.211,0.895,0.332,1.027,0.391c0.275,0.113,0.547,0.293,0.785,0.539
			c0.27,0.281,0.438,0.605,0.527,1.016c0.26,1.188-0.422,2.215-1.645,2.48c-0.607,0.133-1.07,0.105-1.613-0.074L63.359,100.99z"/>
		<polygon fill="#005287" points="74.229,97.572 69.492,99.432 69.328,99.014 70.084,98.717 67.834,92.986 67.076,93.279 
			66.914,92.865 71.016,91.252 70.904,90.975 71.439,90.764 72.063,92.346 71.533,92.557 71.256,91.838 69.184,92.65 70.105,94.998 
			71.697,94.373 71.432,93.697 71.965,93.475 72.736,95.436 72.201,95.654 71.93,94.959 70.336,95.584 71.299,98.041 73.461,97.193 
			73.17,96.459 73.707,96.248"/>
		<path fill="#005287" d="M81.354,93.232c-0.604,0.754-1.027,1.148-1.725,1.57c-1.928,1.168-4.088,0.703-5.191-1.117
			c-1.09-1.801-0.531-3.977,1.307-5.09c0.592-0.359,1.051-0.527,1.721-0.617l-0.23-0.387l0.502-0.309l0.992,1.641l-0.502,0.305
			l-0.357-0.586c-0.744-0.051-1.098,0.027-1.582,0.32c-1.268,0.773-1.514,2.367-0.592,3.887c0.9,1.48,2.574,2.039,3.836,1.273
			c0.459-0.277,0.727-0.574,0.992-1.102l-0.42-0.695l0.512-0.309L81.354,93.232z"/>
		<path fill="#005287" d="M84.568,82.197l-0.664,0.609l2.709,2.969c0.816,0.891,1.018,1.73,0.637,2.66
			c-0.205,0.477-0.512,0.918-0.922,1.289c-1.279,1.168-2.75,1.223-3.744,0.133l-2.912-3.191l-0.6,0.551l-0.301-0.332l2.209-2.02
			l0.301,0.332l-0.592,0.539l2.689,2.949c0.729,0.797,1.201,1.027,1.799,0.875c0.275-0.078,0.557-0.23,0.791-0.449
			c0.949-0.863,0.99-1.93,0.111-2.891l-2.68-2.941l-0.656,0.602l-0.311-0.344l1.832-1.672L84.568,82.197z"/>
		<polygon fill="#005287" points="96.574,75.967 95.148,78.596 94.752,78.381 95.141,77.666 89.73,74.736 89.338,75.447 
			88.945,75.236 90.371,72.6 90.764,72.818 90.383,73.521 95.797,76.455 96.178,75.752"/>
		<polygon fill="#005287" points="99.305,69.564 98.094,72.787 97.674,72.627 98.039,71.658 92.447,69.553 91.795,71.283 
			92.623,71.596 92.42,72.146 90.717,71.506 90.924,70.955 91.203,71.061 92.99,66.318 92.709,66.213 92.916,65.662 94.617,66.303 
			94.41,66.854 93.582,66.541 92.934,68.264 98.525,70.365 98.883,69.408"/>
		<polygon fill="#005287" points="101.199,61.701 100.625,64.639 100.182,64.553 100.338,63.764 97.443,63.197 93.887,64.662 
			93.76,65.326 93.32,65.236 93.893,62.299 94.334,62.389 94.182,63.162 96.77,62.119 94.744,60.275 94.572,61.166 94.131,61.08 
			94.609,58.639 95.047,58.725 94.902,59.479 97.434,61.791 100.602,62.412 100.758,61.615"/>
		<path fill="#005287" d="M94.002,79.818L93.74,80.17c-0.129,0.168-0.281,0.219-0.729,0.191l-2.777-0.172
			c0.352-0.992,0.145-1.758-0.627-2.332c-0.453-0.336-0.926-0.469-1.42-0.402c-0.537,0.082-0.955,0.41-1.504,1.152l-1.879,2.531
			l0.359,0.266l0.486-0.652l4.945,3.672l-0.486,0.652l0.359,0.266l1.785-2.402l-0.359-0.266l-0.479,0.645l-2.162-1.613l0.172-0.227
			l2.973,0.211c0.67,0.047,0.785-0.004,1.164-0.508l0.811-1.09L94.002,79.818z M86.594,79.736l0.398-0.543
			c0.453-0.609,1.111-0.668,1.797-0.16c0.676,0.504,0.848,1.258,0.41,1.852l-0.375,0.508L86.594,79.736z"/>
		<polygon fill="#005287" points="9.289,68.314 8.58,65.408 9.016,65.299 9.205,66.076 11.936,65.412 11.113,62.033 8.379,62.701 
			8.572,63.482 8.135,63.588 7.426,60.682 7.861,60.572 8.053,61.365 14.035,59.9 13.844,59.111 14.279,59.006 14.99,61.912 
			14.553,62.018 14.363,61.24 11.727,61.889 12.549,65.26 15.189,64.615 14.998,63.838 15.434,63.729 16.145,66.639 15.705,66.744 
			15.516,65.955 9.533,67.42 9.729,68.209"/>
		<path fill="#005287" d="M13.367,69.939c1.469-0.668,3.164-0.395,3.609,0.578c0.445,0.98-0.461,2.441-1.932,3.109
			c-1.479,0.676-3.176,0.402-3.623-0.578C10.98,72.072,11.885,70.615,13.367,69.939 M15.672,74.998
			c1.855-0.844,2.674-2.941,1.857-4.734c-0.816-1.789-2.932-2.539-4.787-1.695c-1.859,0.848-2.691,2.941-1.875,4.734
			C11.682,75.088,13.814,75.846,15.672,74.998"/>
		<polygon fill="#005287" points="18.387,85.154 16.521,82.584 16.885,82.318 17.414,83.045 21.15,80.334 15.582,81.471 
			18.176,76.404 14.518,79.061 15.045,79.783 14.682,80.049 13.232,78.053 13.596,77.787 14.123,78.514 19.104,74.896 18.578,74.17 
			18.939,73.908 20.051,75.436 17.518,80.408 22.854,79.291 24.096,81.006 23.734,81.271 23.207,80.545 18.221,84.162 
			18.752,84.893"/>
		<polygon fill="#005287" points="23.947,90.619 20.203,87.174 20.51,86.842 21.109,87.393 25.281,82.865 24.684,82.318 
			24.988,81.986 28.229,84.971 28.428,84.752 28.854,85.143 27.699,86.393 27.285,86.01 27.805,85.443 26.172,83.936 24.463,85.787 
			25.719,86.951 26.213,86.416 26.645,86.795 25.215,88.346 24.783,87.963 25.291,87.412 24.033,86.252 22.244,88.193 
			23.949,89.768 24.486,89.186 24.91,89.576"/>
		<polygon fill="#005287" points="30.314,94.986 26.125,92.17 26.377,91.795 27.051,92.252 30.488,87.143 29.814,86.686 
			30.064,86.318 32.549,87.986 32.297,88.357 31.633,87.912 28.295,92.869 30.186,94.143 30.627,93.486 31.105,93.807"/>
		<path fill="#005287" d="M34.58,94.076l2.092-1.984l-0.186,2.852L34.58,94.076z M38.02,98.264l-0.41-0.188l0.418-7.316l-0.594-0.27
			l-5.34,5.074l-0.602-0.273l-0.188,0.406l2.014,0.918l0.188-0.41l-0.779-0.352l1.35-1.289l2.363,1.074l-0.113,1.852l-0.68-0.309
			l-0.188,0.41l2.373,1.078L38.02,98.264z"/>
		<polygon fill="#005287" points="45.416,100.783 44.688,100.611 42.289,94.65 41.203,99.189 42.025,99.389 41.92,99.826 
			39.57,99.264 39.674,98.826 40.537,99.029 41.844,93.576 41.635,92.963 40.891,92.783 40.994,92.346 43.064,92.846 45.283,98.443 
			46.328,94.088 45.506,93.893 45.611,93.451 47.959,94.014 47.855,94.451 46.982,94.244"/>
		<path fill="#005287" d="M52.355,94.26l-3.334-0.117l-0.016,0.449l0.811,0.023l-0.219,6.156h-0.002l-0.813-0.027l-0.016,0.449
			l3.32,0.117h-0.006h0.008c1.047,0.039,1.816-0.223,2.512-0.84c0.752-0.68,1.18-1.582,1.217-2.566
			C55.889,95.928,54.373,94.334,52.355,94.26 M54.313,97.85c-0.061,1.676-1.121,2.914-2.467,2.867l-0.867-0.035l0.211-5.863
			l0.906,0.031C53.348,94.896,54.365,96.279,54.313,97.85"/>
		<path fill="#005287" d="M88.604,58.396l-2.625,0.809l0.592,0.238l-0.92,0.586c0.102-0.535,0.191-1.074,0.266-1.617l1.439-1.207
			l0.035,0.641l1.621-2.219l-2.496,1.145l0.617,0.164l-1.15,0.961c0.082-0.664,0.141-1.332,0.18-2.004l1.42-1.57l0.117,0.625
			l1.313-2.414l-2.324,1.469l0.637,0.078l-1.135,1.215c0.016-0.418,0.027-0.84,0.027-1.262c0-3.164-0.465-6.219-1.324-9.102
			c-1.439,0.133-2.877-0.328-3.568-0.461c1.84,1.078,2.477,2.246,2.748,3.582c-1.473,0.332-3.441-0.152-4.512-0.996
			c1.051,0.922,1.715,2.367,1.762,3.863c-1.52,0.074-2.918-0.637-3.947-1.664c0.662,0.734,1.496,2.598,1.299,3.922
			c-1.264-0.133-2.758-0.961-3.566-1.953c0.668,1.484,0.992,2.684,0.912,4.012c-1.26-0.234-2.217-0.586-3.342-1.664
			c0.543,1.352,0.744,2.711,0.623,3.828c-1.455-0.512-2.422-1.09-3.238-2.461c0.434,1.207,0.719,2.793,0.418,3.719
			c-1.23-0.371-2.045-1.109-2.684-2.371c0.635,1.336,0.553,2.887,0.34,3.695c-0.518-0.105-1.188-0.461-1.547-0.855
			c-0.016,0.238-0.031,0.477-0.047,0.703c-0.061,0.898-0.242,1.746-0.531,2.52c0.098,0.117,0.34,0.402,0.35,0.414
			c0.648,0.691,1.533,1.355,2.23,1.578c-0.303,0.043-0.715,0.301-1.131,0.348c0.461,0.523,1.4,0.641,1.984,1.234
			c-0.453,0.055-0.563,0.383-1.105,0.32c1.043,0.809,2.004,0.84,2.541,0.898c0.215,0.027,0.92,0.094,1.367,0.023
			c0.547-0.086,1.111,0.141,1.418,0.301l5.738-11.625l-0.631,0.109l1.799-2.074l-0.559,2.691l-0.297-0.57l-5.768,11.68
			c0.105,0.129,0.154,0.297,0.166,0.457c0.016-0.004,0.033-0.004,0.043-0.008l0.219-0.172l-0.002-0.004l9.291-7.336l-0.619-0.168
			l2.514-1.109l-1.654,2.191l-0.025-0.637l-9.215,7.273c0.248,0.047,0.471,0.137,0.535,0.242c0.158,0.25,0.117,0.375-0.029,0.809
			c-0.141,0.418-0.244,0.563-0.52,0.598c-0.076,0.008-0.221,0.027-0.385-0.043c0.084,0.059,0.143,0.105,0.182,0.219
			c0.045,0.109,0.113,0.305-0.229,0.691c-0.301,0.34-0.588,0.469-0.82,0.332c-0.137-0.078-0.18-0.164-0.242-0.23
			c0.031,0.09,0.07,0.195,0.088,0.297c0.055,0.344-0.207,0.473-0.535,0.586c-0.623,0.223-0.93,0.125-1.076-0.094
			c-0.314-0.477-0.141-1.086,0.07-1.188c-0.051,0.188-0.047,0.387-0.012,0.609c0.027,0.184,0.115,0.484,0.453,0.453
			c0.184-0.016,0.518-0.094,0.719-0.223c0.146-0.094,0.15-0.336,0.076-0.543c-0.031-0.105-0.076-0.25-0.199-0.359
			c0.207,0.055,0.33,0.168,0.492,0.301s0.398,0.164,0.543,0.016c0.18-0.188,0.289-0.328,0.35-0.453
			c0.156-0.332-0.268-0.586-0.512-0.727c0.432,0.02,0.5,0.188,0.854,0.133c0.352-0.051,0.451-0.605,0.455-0.793
			c0.004-0.137-0.158-0.273-0.361-0.32c-0.145-0.043-0.33-0.043-0.461-0.039c-0.008,0.043-0.016,0.086-0.025,0.121
			c-0.047,0.164-0.117,0.355-0.406,0.504c-0.17,0.047-0.273,0.063-0.105-0.063c0.15-0.109,0.289-0.785-0.063-1.051
			c-0.256-0.188-0.619-0.344-1.047-0.324c-0.471,0.023-1.193,0.066-1.541,0.031c-0.322-0.035-0.521,0.391-0.57,0.566
			c-0.115,0.422-0.244,0.945-0.854,0.684c-0.746-0.43-1.814-0.395-3.039-0.887c0.176,0.375,0.1,0.703,0.287,1.121
			c-1.09-0.27-1.367-0.824-2.404-1.188c0.172,0.379,0.125,0.672,0.359,1.031c-0.877-0.156-1.693-0.938-2.912-1.266
			c-0.035,0.012-0.072,0.023-0.107,0.035c-0.445,0.137-0.848,0.258-1.219,0.375c0.863,0.977,1.574,2.176,1.904,3.625
			c0,0-0.602,0.016-1.504-0.297c0.258,0.789,0.418,1.641,0.43,2.547c0,0-0.682-0.129-1.613-0.703
			c0.082,0.855,0.053,1.75-0.127,2.672c0,0-0.789-0.324-1.721-1.277c-0.107,0.891-0.328,1.789-0.713,2.68
			c0,0-0.715-0.488-1.457-1.629c-0.305,0.887-0.732,1.762-1.316,2.594c0,0-0.787-0.824-1.318-2.488
			c-0.711,1.066-1.385,1.523-1.385,1.523c-0.381-0.891-0.605-1.789-0.711-2.68c-0.93,0.953-1.721,1.277-1.721,1.277
			c-0.184-0.922-0.209-1.816-0.127-2.672c-0.934,0.574-1.621,0.703-1.621,0.703c0.02-0.906,0.176-1.758,0.436-2.547
			c-0.902,0.313-1.506,0.297-1.506,0.297c0.342-1.48,1.307-3,1.957-3.684c-0.316-0.094-0.66-0.203-1.029-0.316
			c-0.037-0.012-0.072-0.023-0.111-0.035c-1.215,0.328-2.033,1.109-2.908,1.266c0.232-0.359,0.186-0.652,0.357-1.031
			c-1.037,0.363-1.314,0.918-2.4,1.188c0.186-0.418,0.107-0.746,0.285-1.121c-1.01,0.492-2.391,0.836-3.008,0.965
			c-0.674,0.141-0.715-0.867-0.938-1.086c-0.098-0.098-0.643-0.141-0.869-0.102c-0.334,0.055-0.986,0.027-1.479,0.016
			c-0.486-0.008-0.824,0.137-1.08,0.332c-0.354,0.262-0.188,0.965-0.035,1.078c0.168,0.125,0.063,0.109-0.105,0.063
			c-0.287-0.148-0.359-0.344-0.408-0.508c-0.004-0.02-0.01-0.043-0.012-0.07c-0.135-0.012-0.367-0.023-0.553,0.02
			c-0.203,0.047-0.369,0.176-0.371,0.313c0,0.188,0.088,0.746,0.436,0.805c0.35,0.063,0.424-0.102,0.854-0.109
			c-0.248,0.133-0.678,0.379-0.529,0.711c0.057,0.129,0.164,0.273,0.336,0.465c0.141,0.152,0.383,0.125,0.547,0
			c0.164-0.129,0.287-0.238,0.5-0.289c-0.129,0.105-0.174,0.25-0.215,0.355c-0.076,0.203-0.078,0.445,0.064,0.543
			c0.195,0.137,0.529,0.223,0.711,0.246c0.34,0.043,0.434-0.262,0.467-0.441c0.045-0.223,0.051-0.422,0.004-0.609
			c0.211,0.109,0.367,0.719,0.039,1.188c-0.154,0.219-0.463,0.305-1.078,0.066c-0.324-0.129-0.584-0.262-0.518-0.605
			c0.02-0.098,0.059-0.203,0.098-0.293c-0.066,0.066-0.113,0.152-0.248,0.227c-0.24,0.129-0.525-0.008-0.814-0.355
			c-0.328-0.398-0.256-0.59-0.211-0.699s0.102-0.156,0.189-0.211c-0.164,0.063-0.309,0.039-0.385,0.027
			c-0.273-0.039-0.375-0.188-0.502-0.609c-0.135-0.434-0.172-0.563-0.008-0.809c0.123-0.195,0.801-0.309,1.158-0.234
			c0.008-0.246,0.088-0.512,0.334-0.656c0.252-0.148,0.906-0.465,1.537-0.363c0.447,0.066,1.152,0.004,1.367-0.027
			c0.213-0.02,1.791-0.309,2.838-1.117c-0.549,0.063-0.656-0.266-1.111-0.32c0.586-0.594,1.525-0.711,1.986-1.234
			c-0.414-0.047-0.779-0.379-1.08-0.422c0.92-0.516,1.533-0.813,2.18-1.504c0.008-0.012,0.248-0.285,0.348-0.402
			c-0.293-0.777-0.473-1.629-0.535-2.531c-0.014-0.219-0.029-0.445-0.045-0.68c-0.227,0.25-0.691,0.504-1.445,0.773
			c-0.352-0.855-0.182-2.453,0.264-3.688c-0.639,1.258-1.363,2.078-2.596,2.445c-0.301-0.922-0.123-2.535,0.309-3.742
			c-0.818,1.371-1.693,2.063-3.152,2.578c-0.119-1.117-0.004-2.594,0.535-3.945c-1.125,1.078-2.078,1.43-3.34,1.664
			c-0.08-1.328,0.244-2.527,0.912-4.012c-0.807,0.992-2.482,1.668-3.752,1.801c0.1-1.148,0.904-2.723,1.377-3.648
			c-1.193,0.859-2.467,1.469-3.838,1.543c0.172-1.305,0.758-2.723,1.762-3.863c-1.182,0.879-2.99,1.352-4.352,1.168
			c0.332-1.438,1.209-2.832,2.404-3.582c-0.689,0.133-1.947,0.422-3.383,0.289c-0.848,2.84-1.313,5.844-1.326,8.957
			c-0.721-0.563-1.221-0.707-1.713-1.195c0.092,0.672,0.18,1.039,0.256,1.875c0.133,1.5,0.699,2.359,1.639,2.898
			c0.049,0.426,0.1,0.852,0.164,1.27c-0.697-0.449-1.631-0.723-2.865-0.707c0.752,2.441,1.822,2.621,3.262,2.855
			c0.051,0.223,0.1,0.445,0.154,0.668c-0.766-0.199-1.684-0.203-2.73,0.086c0.723,1.121,1.723,1.797,3.328,2.043
			c0.002,0.008,0.004,0.016,0.006,0.023c-0.984-0.078-2.051,0.066-2.9,0.5c1.217,1.043,2.406,1.441,3.547,1.324
			c0.059,0.148,0.117,0.297,0.178,0.449c-0.9,0.238-1.691,0.703-2.139,1.137c0.949,0.301,1.918,0.461,2.799,0.367
			c0.01,0.023,0.018,0.043,0.027,0.066c-0.514,0.391-0.961,1.027-1.24,2.027c0.674-0.172,1.367-0.219,2.059-0.414
			c0.139,0.254,0.279,0.508,0.426,0.758c-0.363,0.691-0.49,1.566-0.275,2.527c0.578-0.133,1.061-0.359,1.451-0.648
			c0.139,0.199,0.275,0.398,0.414,0.598c-0.145,1.109,0.115,2.219,0.775,2.961c0.264-0.297,0.475-0.586,0.656-0.867
			c1.432-2.184,0.566-3.754,0.6-5.172c0.01-0.031,0.021-0.059,0.033-0.09c0.115,1.688,1.582,3.352-0.137,5.387
			c-0.033,0.043-0.063,0.074-0.096,0.113c5.818,6.754,14.43,11.031,24.047,11.031c13.65,0,25.285-8.617,29.76-20.715l1.441-0.625
			l-0.107,0.629l2.074-1.797l-2.691,0.555l0.568,0.297l-1.111,0.453c0.197-0.559,0.381-1.121,0.543-1.695l1.58-0.871L86.5,62.627
			l1.906-1.98l-2.631,0.801l0.592,0.242l-1.262,0.695c0.168-0.617,0.32-1.242,0.449-1.879l1.201-0.758l-0.051,0.633L88.604,58.396z"
			/>
		<path fill="#FFFFFF" d="M74.102,68.439c0.131-0.004,0.316,0,0.461,0.039c0.203,0.051,0.365,0.188,0.361,0.324
			c-0.004,0.184-0.104,0.742-0.455,0.793c-0.354,0.051-0.422-0.113-0.854-0.137c0.244,0.141,0.668,0.395,0.512,0.727
			c-0.061,0.129-0.17,0.266-0.35,0.457c-0.145,0.145-0.383,0.113-0.543-0.02c-0.162-0.133-0.285-0.242-0.492-0.301
			c0.123,0.109,0.168,0.258,0.199,0.359c0.074,0.207,0.07,0.453-0.076,0.543c-0.201,0.129-0.535,0.207-0.719,0.223
			c-0.338,0.035-0.426-0.27-0.453-0.453c-0.035-0.223-0.039-0.422,0.012-0.609c-0.211,0.105-0.385,0.715-0.07,1.188
			c0.146,0.223,0.453,0.316,1.076,0.098c0.328-0.117,0.59-0.246,0.535-0.59c-0.018-0.102-0.057-0.207-0.088-0.297
			c0.063,0.066,0.105,0.152,0.242,0.23c0.232,0.141,0.52,0.012,0.82-0.328c0.34-0.387,0.273-0.582,0.229-0.695
			c-0.039-0.109-0.098-0.16-0.182-0.215c0.164,0.066,0.309,0.051,0.385,0.039c0.275-0.031,0.379-0.18,0.52-0.594
			c0.146-0.434,0.188-0.563,0.029-0.813c-0.064-0.105-0.287-0.195-0.535-0.242l9.215-7.273l0.025,0.641l1.654-2.195l-2.514,1.109
			l0.619,0.168l-9.291,7.34h0.002l-0.219,0.176c-0.01,0-0.027,0.004-0.043,0.004"/>
		<polyline fill="#FFFFFF" points="73.949,67.678 79.717,56.002 80.014,56.568 80.572,53.877 78.773,55.955 79.404,55.842 
			73.664,67.467"/>
		<path fill="#FFFFFF" d="M72.5,68.967c0.166,0.305,0.178,0.824,0.088,1.078c0.609-0.102,0.717-0.68,0.754-0.984
			C73.166,68.842,72.744,68.814,72.5,68.967"/>
		<path fill="#FFFFFF" d="M72.391,69.025c-0.361-0.023-0.49-0.199-0.555-0.375c-0.068-0.172-0.258-0.281-0.262-0.016
			c-0.004,0.262-0.004,0.379,0.141,0.449C71.865,69.158,72.133,69.182,72.391,69.025"/>
		<path fill="#FFFFFF" d="M72.428,70.139c-0.117-0.172-0.188-0.355-0.223-0.547c-0.072,0.133-0.197,0.59-0.242,0.918
			c-0.012,0.074-0.006,0.102,0.191,0.113c0.193,0.012,0.426-0.063,0.594-0.188C72.648,70.354,72.52,70.271,72.428,70.139"/>
		<path fill="#FFFFFF" d="M79.463,57.912l0.639-0.031l-3.604,5.469c-0.422,0.855-0.832,1.684-1.195,2.418
			c0.021-0.023,0.037-0.043,0.059-0.066l5.035-7.625l0.223,0.598l0.883-2.602L79.463,57.912z"/>
		<path fill="#FFFFFF" d="M78.094,62.701l6.547-8.285l0.174,0.617l1.098-2.52l-2.188,1.66l0.639,0.023l-5.928,7.512
			c-0.461,0.703-0.957,1.453-1.42,2.156l0.012,0.008C77.373,63.494,77.732,63.1,78.094,62.701"/>
		<path fill="#FFFFFF" d="M77.314,65.166c0.549-0.434,1.121-0.887,1.684-1.332l5.451-5.047l0.074,0.637l1.475-2.32l-2.416,1.305
			l0.627,0.121L78.74,63.6C78.25,64.139,77.768,64.666,77.314,65.166"/>
		<path fill="#FFFFFF" d="M83.367,63.979l-7.674,3.844c-0.135,0.105-0.244,0.191-0.311,0.246c0.053,0.043,0.098,0.09,0.131,0.141
			c0.018,0.027,0.025,0.051,0.041,0.074l7.973-3.992l-0.107,0.633l2.068-1.813l-2.691,0.574L83.367,63.979z"/>
		<path fill="#FFFFFF" d="M71.768,72.111c-0.113-0.039-0.215-0.098-0.303-0.176l-1.373,2.848l0.008,0.004l-0.504,0.172l-1.627,3.113
			l0.789-0.238l0.285,0.773l1.541-3.16l-0.182-0.512L71.768,72.111z"/>
		<path fill="#FFFFFF" d="M77.119,66.697c0.527-0.266,1.135-0.566,1.752-0.875l5.105-3.336l-0.035,0.637l1.846-2.035l-2.604,0.879
			l0.6,0.223l-5.553,3.633C77.838,66.135,77.463,66.424,77.119,66.697"/>
		<path fill="#FFFFFF" d="M71.143,71.346c-0.039-0.152-0.053-0.309-0.041-0.465l-1.824,1.988l-0.535,0.043l-0.045,0.047h-0.002
			l-2.535,2.539l0.117-0.008l-0.008,0.012l0.029-0.012l0.627-0.031l0.109,0.625l2.102-2.766l0.406-0.086L71.143,71.346z"/>
		<path fill="#FFFFFF" d="M74.504,67.389c0.227-0.18,0.543-0.434,0.93-0.738l8.961-9.797l0.125,0.629l1.281-2.43L83.5,56.549
			l0.633,0.066l-9.377,10.262C74.664,67.061,74.582,67.229,74.504,67.389"/>
		<path fill="#FFFFFF" d="M66.488,74.08l3.338-2.352c0.381-0.414,0.799-0.871,0.947-1.035l-4.17,2.754l0.004,0.008l-0.52-0.109
			l-0.307,0.191l-2.678,1.668l0.752,0.156l0.09,0.566l2.162-1.863L66.488,74.08z"/>
		<path fill="#FFFFFF" d="M63.717,74.393l1.338-0.836l1.248-0.852l0.426,0.082c0,0,3.039-1.871,3.781-2.359
			c0.037-0.023,0.061-0.039,0.061-0.039h0.002c0.008-0.004,0.016-0.008,0.021-0.016l-3.992,1.992l-0.504-0.16l-3.176,1.508
			l0.713,0.262L63.717,74.393z"/>
		<path fill="#FFFFFF" d="M34.572,68.408c-0.357-0.074-1.035,0.039-1.158,0.234c-0.164,0.246-0.127,0.375,0.008,0.809
			c0.127,0.422,0.229,0.57,0.502,0.613c0.076,0.008,0.221,0.031,0.385-0.031c-0.088,0.055-0.145,0.102-0.189,0.211
			s-0.117,0.301,0.211,0.699c0.289,0.352,0.574,0.484,0.814,0.355c0.135-0.074,0.182-0.16,0.248-0.227
			c-0.039,0.09-0.076,0.195-0.098,0.293c-0.064,0.348,0.193,0.477,0.52,0.605c0.613,0.238,0.922,0.152,1.076-0.066
			c0.328-0.465,0.174-1.078-0.039-1.188c0.047,0.188,0.041,0.387-0.004,0.609c-0.031,0.18-0.127,0.484-0.467,0.441
			c-0.182-0.023-0.516-0.109-0.711-0.246c-0.143-0.098-0.141-0.34-0.063-0.543c0.039-0.105,0.084-0.25,0.215-0.355
			c-0.213,0.051-0.338,0.16-0.5,0.289c-0.166,0.125-0.408,0.152-0.547,0c-0.174-0.191-0.281-0.336-0.338-0.465
			c-0.148-0.332,0.281-0.578,0.529-0.707c-0.43,0.004-0.504,0.168-0.854,0.105c-0.348-0.059-0.436-0.617-0.436-0.805
			c0.002-0.137,0.168-0.266,0.371-0.313c0.186-0.043,0.418-0.031,0.553-0.016"/>
		<path fill="#FFFFFF" d="M26.674,64.799c0.08,0.012,0.063,0.004-0.031-0.027c-0.957-0.535-1.635-0.715-2.953-0.539
			C24.928,64.326,25.795,64.494,26.674,64.799"/>
		<path fill="#FFFFFF" d="M27.264,71.545c0.143-0.922,0.75-2.02,1.645-2.754c0.625-0.52,0.98-0.711,0.457-0.16
			C28.574,69.459,27.652,70.803,27.264,71.545"/>
		<path fill="#FFFFFF" d="M29.219,74.049c-0.342-0.867-0.043-2.25,0.328-3.16c0.262-0.629,0.902-1.578,1.104-1.672
			C29.938,70.314,29.18,73.213,29.219,74.049"/>
		<path fill="#FFFFFF" d="M26.35,61.99c-0.066-0.328-0.383-0.543-0.713-0.473c-0.326,0.063-0.537,0.383-0.471,0.711
			s0.383,0.539,0.711,0.473C26.203,62.635,26.416,62.318,26.35,61.99"/>
		<path fill="#FFFFFF" d="M31.609,62.818c0.02-0.906-0.117-1.836-0.012-2.891c-1.801,1.313-2.416,3.617-1.67,5.227
			c-0.074-0.016-0.152-0.016-0.232,0c-0.336,0.066-0.553,0.398-0.488,0.738c0.068,0.34,0.4,0.555,0.736,0.488
			c0.34-0.07,0.561-0.398,0.492-0.734c-0.033-0.172-0.137-0.313-0.271-0.402c-0.301-1.426-0.053-3.199,0.693-3.953
			c-0.234,0.895-0.658,2.762-0.381,4.48c0.293-0.336,0.512-0.66,0.676-0.984c0.033,0.277,0.102,0.555,0.213,0.852
			c0.039-1.371,0.498-2.73,1.92-3.672c-1.043,1.316-1.639,2.863-1.764,4.023c0.756-0.961,2.479-1.246,2.6-5.008
			C33.252,61.24,32.205,61.877,31.609,62.818"/>
		<path fill="#FFFFFF" d="M32.797,66.689c-0.07-0.355-0.416-0.586-0.77-0.516c-0.355,0.074-0.586,0.418-0.512,0.773
			c0.07,0.352,0.414,0.582,0.77,0.512C32.641,67.385,32.869,67.041,32.797,66.689"/>
		<path fill="#FFFFFF" d="M32.57,68.67c-0.072-0.355-0.416-0.586-0.771-0.516c-0.354,0.074-0.584,0.418-0.51,0.773
			c0.07,0.352,0.412,0.582,0.77,0.512C32.414,69.365,32.645,69.021,32.57,68.67"/>
		<path fill="#FFFFFF" d="M28.773,59.006c-1.326,1.113-1.697,2.508-1.559,3.734c-0.049-0.008-0.102-0.008-0.154,0.004
			c-0.277,0.055-0.453,0.324-0.398,0.598c0.055,0.277,0.324,0.457,0.6,0.398c0.063-0.012,0.117-0.039,0.17-0.07
			c0.123,0.355,0.289,0.684,0.484,0.965c-0.119-0.414-0.207-0.871-0.252-1.336c0.008-0.051,0.008-0.105-0.004-0.156
			c-0.002-0.012-0.008-0.023-0.01-0.035c-0.072-1.043,0.092-2.117,0.67-2.891c-0.184,1.133-0.451,3.332-0.195,4.695
			C28.514,63.463,30.607,62.818,28.773,59.006"/>
		<path fill="#FFFFFF" d="M34.098,67.576c-0.057-0.273-0.324-0.453-0.6-0.398c-0.277,0.055-0.455,0.324-0.4,0.598
			c0.057,0.277,0.326,0.457,0.6,0.402C33.975,68.119,34.152,67.85,34.098,67.576"/>
		<path fill="#FFFFFF" d="M31.281,67.479c-0.049-0.25-0.295-0.414-0.549-0.363s-0.416,0.297-0.367,0.551s0.299,0.418,0.551,0.363
			C31.172,67.982,31.334,67.736,31.281,67.479"/>
		<path fill="#FFFFFF" d="M24.863,61.025c-0.033-0.211-0.215-0.359-0.424-0.359c-0.658-0.891-1.604-1.844-3.184-2.008
			c0.863,0.41,2.166,1.207,3.07,2.02c-0.215,0.059-0.357,0.27-0.318,0.492c0.041,0.238,0.264,0.398,0.5,0.355
			C24.744,61.486,24.904,61.26,24.863,61.025"/>
		<path fill="#FFFFFF" d="M24.885,58.033c-0.061-0.297-0.35-0.492-0.646-0.43c-0.014,0.004-0.027,0.008-0.039,0.012
			c-0.359-1.398-0.703-2.492-2.293-3.582c0.795,1.02,1.717,2.504,2.229,3.602c-0.236,0.098-0.381,0.352-0.326,0.617
			c0.059,0.297,0.35,0.488,0.646,0.43C24.752,58.619,24.943,58.33,24.885,58.033"/>
		<path fill="#FFFFFF" d="M26.496,63.533c-0.039-0.234-0.262-0.395-0.5-0.352c-0.115,0.02-0.211,0.082-0.275,0.168
			c-1.406-1.238-2.375-1.246-3.115-1.281c0.445,0.16,2.057,0.621,3.08,1.344c-0.043,0.082-0.063,0.172-0.045,0.27
			c0.041,0.238,0.266,0.395,0.502,0.355C26.379,63.994,26.537,63.775,26.496,63.533"/>
		<path fill="#FFFFFF" d="M27.68,65.295c-0.07-0.34-0.4-0.559-0.738-0.492s-0.557,0.398-0.49,0.734
			c0.068,0.34,0.4,0.559,0.738,0.492C27.529,65.959,27.75,65.627,27.68,65.295"/>
		<path fill="#FFFFFF" d="M28.588,66.365c-0.043-0.234-0.264-0.391-0.502-0.352c-0.15,0.023-0.266,0.121-0.324,0.25
			c-1.223-0.16-2.557,0.008-3.674,0.633c1.258-0.293,2.57-0.559,3.646-0.563h0.004c-0.014,0.055-0.021,0.117-0.01,0.18
			c0.041,0.234,0.268,0.398,0.504,0.352C28.469,66.83,28.627,66.604,28.588,66.365"/>
		<path fill="#FFFFFF" d="M29.848,67.1c-0.063-0.301-0.359-0.504-0.666-0.441c-0.305,0.063-0.502,0.359-0.443,0.664
			c-0.012-0.004-0.025-0.004-0.041-0.004c-0.906-0.039-2.414,0.203-3.34,1.297c0.951-0.555,2.459-1.133,3.363-1.258h0.029
			c0.078,0.289,0.361,0.473,0.654,0.41C29.711,67.705,29.908,67.408,29.848,67.1"/>
		<path fill="#FFFFFF" d="M27.539,55.994c-2.041,0.895-2.99,3.438-1.943,5.305C26.549,59.939,28.352,59.646,27.539,55.994
			 M25.602,61.201c-0.246-1.027,0.396-3.762,1.311-4.32C26.32,58.205,26.076,59.432,25.602,61.201"/>
		<path fill="#FFFFFF" d="M25.463,52.174c-0.652,0.266-1.58,1.176-1.994,2.371c0.16,0.188,0.297,0.383,0.414,0.586
			c0.232-0.875,0.725-1.895,1.225-2.328c-0.328,0.559-0.781,1.789-1.006,2.758c0.23,0.539,0.33,1.105,0.314,1.637
			C25.664,56.057,26.096,54.08,25.463,52.174"/>
		<path fill="#FFFFFF" d="M37.787,69.951c2.584,1.945,4.047,4.641,4.424,6.816c-0.324-0.238-0.934-0.484-1.307-0.414
			c-0.334-2.293-1.533-4.145-3.412-5.652C37.572,70.354,37.684,70.115,37.787,69.951"/>
		<path fill="#FFFFFF" d="M35.363,69.279c0.176-0.215,0.6-0.242,0.84-0.094c-0.164,0.309-0.176,0.828-0.086,1.078
			C35.508,70.166,35.4,69.588,35.363,69.279"/>
		<path fill="#FFFFFF" d="M36.316,69.248c0.357-0.023,0.488-0.199,0.555-0.375c0.064-0.176,0.256-0.281,0.26-0.02
			c0.002,0.262,0.004,0.379-0.143,0.453C36.838,69.377,36.574,69.4,36.316,69.248"/>
		<path fill="#FFFFFF" d="M36.498,69.814c-0.035,0.191-0.102,0.375-0.221,0.547c-0.094,0.133-0.225,0.215-0.32,0.293
			c0.164,0.125,0.398,0.199,0.594,0.188c0.197-0.008,0.203-0.035,0.191-0.109C36.697,70.404,36.574,69.943,36.498,69.814"/>
	</g>
</g>
</svg>
