<?xml version="1.0" encoding="utf-8"?>
<!-- Generator: Adobe Illustrator 13.0.0, SVG Export Plug-In . SVG Version: 6.00 Build 14948)  -->
<!DOCTYPE svg PUBLIC "-//W3C//DTD SVG 1.1//EN" "http://www.w3.org/Graphics/SVG/1.1/DTD/svg11.dtd">
<svg version="1.1" id="Layer_1" xmlns="http://www.w3.org/2000/svg" xmlns:xlink="http://www.w3.org/1999/xlink" x="0px" y="0px"
	 width="720px" height="720px" viewBox="0 0 720 720" enable-background="new 0 0 720 720" xml:space="preserve">
<g>
	<g>
		<g>
			<g>
				<path fill="#FFFFFF" d="M714.656,359.984c0,195.906-158.766,354.672-354.641,354.672S5.344,555.891,5.344,359.984
					c0-195.844,158.797-354.641,354.672-354.641S714.656,164.141,714.656,359.984"/>
				<path fill="#00529F" d="M98.766,184.812l12.656,8.875c3.797-5.406,4.469-7.281-1.375-11.406
					C104.188,178.188,102.562,179.375,98.766,184.812 M127.031,197.219c0,0-2,2.906-3.484,5l3.141,2.203
					c10.031,7.062,11.688,8.594,15.609,3l12.594,8.844L135.734,243.5l-12.562-8.828c3.938-5.578,1.594-6.172-14.719-17.625
					l-3.516-2.469c-16.281-11.453-17.656-13.438-21.562-7.844l-12.578-8.859l17.469-24.891c6.25-8.875,17.609-20.609,34.984-8.391
					C140.609,176.781,130.859,191.828,127.031,197.219z"/>
				<path fill="none" stroke="#FFFFFF" stroke-width="1.7867" d="M98.766,184.812l12.656,8.875
					c3.797-5.406,4.469-7.281-1.375-11.406C104.188,178.188,102.562,179.375,98.766,184.812z M127.031,197.219c0,0-2,2.906-3.484,5
					l3.141,2.203c10.031,7.062,11.688,8.594,15.609,3l12.594,8.844L135.734,243.5l-12.562-8.828
					c3.938-5.578,1.594-6.172-14.719-17.625l-3.516-2.469c-16.281-11.453-17.656-13.438-21.562-7.844l-12.578-8.859l17.469-24.891
					c6.25-8.875,17.609-20.609,34.984-8.391C140.609,176.781,130.859,191.828,127.031,197.219z"/>
				<path fill="#00529F" d="M165.203,200.938l-10.641-11.094c4.25-4.031,2.609-5.422-11.281-19.891l-2.969-3.062
					c-13.859-14.484-15.188-16.172-19.422-12.094l-10.625-11.078l38.609-37.094l22.984,23.953l-10.094,9.656l-2.797-2.922
					c-9.75-10.172-12.219-7.781-19.297-1l11.969,12.453c2.312-2.203,1.125-3.422-3.297-8.047l5.609-5.391l19.5,20.297l-5.609,5.391
					c-4.453-4.625-5.406-5.625-7.719-3.406l13.672,14.25c7.094-6.781,9.766-8.938,0-19.078l-5.391-5.609l10.078-9.703l25.344,26.391
					L165.203,200.938"/>
				<path fill="none" stroke="#FFFFFF" stroke-width="1.7867" d="M165.203,200.938l-10.641-11.094
					c4.25-4.031,2.609-5.422-11.281-19.891l-2.969-3.062c-13.859-14.484-15.188-16.172-19.422-12.094l-10.625-11.078l38.609-37.094
					l22.984,23.953l-10.094,9.656l-2.797-2.922c-9.75-10.172-12.219-7.781-19.297-1l11.969,12.453
					c2.312-2.203,1.125-3.422-3.297-8.047l5.609-5.391l19.5,20.297l-5.609,5.391c-4.453-4.625-5.406-5.625-7.719-3.406l13.672,14.25
					c7.094-6.781,9.766-8.938,0-19.078l-5.391-5.609l10.078-9.703l25.344,26.391L165.203,200.938z"/>
				<path fill="#00529F" d="M203.828,105.453l4.844,13.609l4.953-2.922L203.828,105.453 M230.094,147.547l-7.828-13.219
					c1.828-1.078,4.406-2.594,0.578-6.781l-1.766-1.953l-7.906,4.672l0.938,2.422c2,5.281,4.297,3.906,6.125,2.828l7.797,13.219
					l-22.484,13.312l-7.797-13.25c4.406-2.609,4.422-5.703,1.812-13.078l-18.047-51.641l20.594-12.172l36.188,40.938
					c4.359,4.844,6.188,8.344,11.797,5.031l7.797,13.219L230.094,147.547z"/>
				<path fill="none" stroke="#FFFFFF" stroke-width="1.7867" d="M203.828,105.453l4.844,13.609l4.953-2.922L203.828,105.453z
					 M230.094,147.547l-7.828-13.219c1.828-1.078,4.406-2.594,0.578-6.781l-1.766-1.953l-7.906,4.672l0.938,2.422
					c2,5.281,4.297,3.906,6.125,2.828l7.797,13.219l-22.484,13.312l-7.797-13.25c4.406-2.609,4.422-5.703,1.812-13.078
					l-18.047-51.641l20.594-12.172l36.188,40.938c4.359,4.844,6.188,8.344,11.797,5.031l7.797,13.219L230.094,147.547z"/>
				<path fill="#00529F" d="M283.094,125.094c-12.438,4.219-29.172-0.578-39.25-30.266c-10.047-29.703-0.078-43.453,10.438-47
					c6.234-2.141,10.281,1.453,12.297,0.781c2.031-0.703,1.203-3.797,1.203-3.797l8.781-2.984l10.719,31.609l-15.422,5.25
					c-3.719-10.812-6.156-16.406-9.688-15.188c-3.531,1.203-1.984,7.078,3.016,21.844l1.391,4.031
					c4.969,14.734,7.281,20.156,10.797,18.969c3.547-1.203,2.172-6.938-2.734-21.375l15.453-5.25l3.891,11.531
					C298.75,107.281,295.5,120.891,283.094,125.094"/>
				<path fill="none" stroke="#FFFFFF" stroke-width="1.7867" d="M283.094,125.094c-12.438,4.219-29.172-0.578-39.25-30.266
					c-10.047-29.703-0.078-43.453,10.438-47c6.234-2.141,10.281,1.453,12.297,0.781c2.031-0.703,1.203-3.797,1.203-3.797
					l8.781-2.984l10.719,31.609l-15.422,5.25c-3.719-10.812-6.156-16.406-9.688-15.188c-3.531,1.203-1.984,7.078,3.016,21.844
					l1.391,4.031c4.969,14.734,7.281,20.156,10.797,18.969c3.547-1.203,2.172-6.938-2.734-21.375l15.453-5.25l3.891,11.531
					C298.75,107.281,295.5,120.891,283.094,125.094z"/>
				<path fill="#00529F" d="M300.969,116.938l-2.031-15.219c5.812-0.781,5.297-2.859,2.641-22.75l-0.547-4.203
					c-2.656-19.891-2.719-22.031-8.547-21.25l-2.047-15.219l53.078-7.094l4.391,32.875l-13.844,1.844l-0.531-4
					c-1.875-13.969-5.25-13.531-14.984-12.219l2.297,17.125c3.188-0.422,2.938-2.094,2.094-8.453l7.719-1.047l3.734,27.922
					l-7.734,1.031c-0.844-6.359-1.016-7.703-4.188-7.297l2.625,19.547c9.703-1.281,13.156-1.422,11.281-15.375l-1.031-7.719
					l13.844-1.859l4.844,36.25L300.969,116.938"/>
				<path fill="none" stroke="#FFFFFF" stroke-width="1.7867" d="M300.969,116.938l-2.031-15.219
					c5.812-0.781,5.297-2.859,2.641-22.75l-0.547-4.203c-2.656-19.891-2.719-22.031-8.547-21.25l-2.047-15.219l53.078-7.094
					l4.391,32.875l-13.844,1.844l-0.531-4c-1.875-13.969-5.25-13.531-14.984-12.219l2.297,17.125
					c3.188-0.422,2.938-2.094,2.094-8.453l7.719-1.047l3.734,27.922l-7.734,1.031c-0.844-6.359-1.016-7.703-4.188-7.297
					l2.625,19.547c9.703-1.281,13.156-1.422,11.281-15.375l-1.031-7.719l13.844-1.859l4.844,36.25L300.969,116.938z"/>
				<path fill="#00529F" d="M395.094,114.844c-13.016-1.531-26.062-13.047-22.391-44.203c3.688-31.125,18.609-39.266,29.625-37.969
					c6.562,0.781,8.656,5.781,10.766,6.016c2.141,0.234,2.703-2.906,2.703-2.906l9.234,1.078l-3.906,33.172l-16.234-1.922
					c1.359-11.344,1.531-17.422-2.172-17.891c-3.719-0.406-4.844,5.562-6.656,21.031l-0.531,4.25
					c-1.797,15.438-2.062,21.328,1.641,21.766s4.906-5.312,6.703-20.484l16.219,1.922l-1.438,12.062
					C416.938,105.516,408.141,116.375,395.094,114.844"/>
				<path fill="none" stroke="#FFFFFF" stroke-width="1.7867" d="M395.094,114.844c-13.016-1.531-26.062-13.047-22.391-44.203
					c3.688-31.125,18.609-39.266,29.625-37.969c6.562,0.781,8.656,5.781,10.766,6.016c2.141,0.234,2.703-2.906,2.703-2.906
					l9.234,1.078l-3.906,33.172l-16.234-1.922c1.359-11.344,1.531-17.422-2.172-17.891c-3.719-0.406-4.844,5.562-6.656,21.031
					l-0.531,4.25c-1.797,15.438-2.062,21.328,1.641,21.766s4.906-5.312,6.703-20.484l16.219,1.922l-1.438,12.062
					C416.938,105.516,408.141,116.375,395.094,114.844z"/>
				<path fill="#00529F" d="M457.234,84.906c5.781-17.969,6.609-22.969,3.141-24.078S454.766,64.266,449,82.266l-1.312,4.047
					c-5.484,17.062-6.766,22.031-2.984,23.234c3.75,1.203,5.703-3.531,11.203-20.594L457.234,84.906 M478.281,93.938
					c-7.5,23.328-20.656,36.703-38.516,30.969c-17.875-5.781-20.656-24.25-13.156-47.609c7.531-23.359,20.547-36.641,38.422-30.906
					C482.891,52.141,485.812,70.578,478.281,93.938z"/>
				<path fill="none" stroke="#FFFFFF" stroke-width="1.7867" d="M457.234,84.906c5.781-17.969,6.609-22.969,3.141-24.078
					S454.766,64.266,449,82.266l-1.312,4.047c-5.484,17.062-6.766,22.031-2.984,23.234c3.75,1.203,5.703-3.531,11.203-20.594
					L457.234,84.906z M478.281,93.938c-7.5,23.328-20.656,36.703-38.516,30.969c-17.875-5.781-20.656-24.25-13.156-47.609
					c7.531-23.359,20.547-36.641,38.422-30.906C482.891,52.141,485.812,70.578,478.281,93.938z"/>
				<path fill="#00529F" d="M519.281,88.328l-8.047,13.688c6.156,3.656,7.922,3.578,11.344-2.219
					C526.359,93.359,526,92.297,519.281,88.328 M506.109,156.828c-10.109-5.953-9.375-13.938-4.656-21.938l5.25-8.922
					c4.797-8.172,3.844-8.25-2.516-11.969l-3.219,5.516c-6.281,10.656-5.484,11.625-0.781,14.375l-7.688,13.062l-27.844-16.375
					l7.766-13.266c4.969,2.938,5.094,2.047,16.594-17.453L491.281,96c10.203-17.375,10.75-17.688,5.781-20.609l7.812-13.234
					l29.219,17.203c12.781,7.5,15.359,18.906,9.406,29.031c-6.969,11.859-19.438,9.094-19.438,9.094s6.938,7.547,0.547,18.391
					l-2.484,4.25c-2.016,3.406-3.203,5.031-2.016,5.734c1.125,0.656,2.016-0.922,4.047-4.312l4.688,2.75l-2.953,4.984
					C522.5,155.062,515.578,162.391,506.109,156.828z"/>
				<path fill="none" stroke="#FFFFFF" stroke-width="1.7867" d="M519.281,88.328l-8.047,13.688
					c6.156,3.656,7.922,3.578,11.344-2.219C526.359,93.359,526,92.297,519.281,88.328z M506.109,156.828
					c-10.109-5.953-9.375-13.938-4.656-21.938l5.25-8.922c4.797-8.172,3.844-8.25-2.516-11.969l-3.219,5.516
					c-6.281,10.656-5.484,11.625-0.781,14.375l-7.688,13.062l-27.844-16.375l7.766-13.266c4.969,2.938,5.094,2.047,16.594-17.453
					L491.281,96c10.203-17.375,10.75-17.688,5.781-20.609l7.812-13.234l29.219,17.203c12.781,7.5,15.359,18.906,9.406,29.031
					c-6.969,11.859-19.438,9.094-19.438,9.094s6.938,7.547,0.547,18.391l-2.484,4.25c-2.016,3.406-3.203,5.031-2.016,5.734
					c1.125,0.656,2.016-0.922,4.047-4.312l4.688,2.75l-2.953,4.984C522.5,155.062,515.578,162.391,506.109,156.828z"/>
				<path fill="#00529F" d="M579.922,132.969l-10.625,11.25c4.812,4.547,6.578,5.484,11.469,0.297
					C585.703,139.297,584.734,137.5,579.922,132.969 M563.578,159.188c0,0-2.562-2.406-4.453-4.172l-2.625,2.797
					c-8.406,8.938-10.141,10.344-5.203,15.031L540.766,184l-24.234-22.781l10.562-11.188c4.953,4.688,5.875,2.453,19.547-12.062
					l2.922-3.125c13.688-14.5,15.828-15.547,10.875-20.219l10.516-11.188l22.141,20.859c7.906,7.453,17.875,20.359,3.312,35.781
					C581.875,175.547,568.375,163.719,563.578,159.188z"/>
				<path fill="none" stroke="#FFFFFF" stroke-width="1.7867" d="M579.922,132.969l-10.625,11.25
					c4.812,4.547,6.578,5.484,11.469,0.297C585.703,139.297,584.734,137.5,579.922,132.969z M563.578,159.188
					c0,0-2.562-2.406-4.453-4.172l-2.625,2.797c-8.406,8.938-10.141,10.344-5.203,15.031L540.766,184l-24.234-22.781l10.562-11.188
					c4.953,4.688,5.875,2.453,19.547-12.062l2.922-3.125c13.688-14.5,15.828-15.547,10.875-20.219l10.516-11.188l22.141,20.859
					c7.906,7.453,17.875,20.359,3.312,35.781C581.875,175.547,568.375,163.719,563.578,159.188z"/>
				<path fill="#00529F" d="M568.953,219.375c-4.281-5.844-2.672-11.25-4.047-13.141c-1.375-1.906-3.891-0.484-3.891-0.484
					l-5.875-8.094l26.062-18.953l7.703,10.641c0,0-13.234,10.797-8.547,17.25c1.375,1.906,4.266,3,6.422,1.422
					c8.984-6.516-3.891-30.766,13.359-43.312c16.422-11.891,26.75-5.844,32.016,1.422c5.25,7.266,2.109,9.797,3.531,11.797
					c1.453,1.984,3.469,0.391,3.469,0.391l5.859,8.109l-23.609,17.172l-7.156-9.844c0,0,10.859-9.328,7.172-14.453
					c-1.062-1.469-3.453-1.828-5-0.703c-8.656,6.266,5.484,30.062-13.781,44.016C585.016,235.391,574.078,226.469,568.953,219.375"
					/>
				<path fill="none" stroke="#FFFFFF" stroke-width="1.7867" d="M568.953,219.375c-4.281-5.844-2.672-11.25-4.047-13.141
					c-1.375-1.906-3.891-0.484-3.891-0.484l-5.875-8.094l26.062-18.953l7.703,10.641c0,0-13.234,10.797-8.547,17.25
					c1.375,1.906,4.266,3,6.422,1.422c8.984-6.516-3.891-30.766,13.359-43.312c16.422-11.891,26.75-5.844,32.016,1.422
					c5.25,7.266,2.109,9.797,3.531,11.797c1.453,1.984,3.469,0.391,3.469,0.391l5.859,8.109l-23.609,17.172l-7.156-9.844
					c0,0,10.859-9.328,7.172-14.453c-1.062-1.469-3.453-1.828-5-0.703c-8.656,6.266,5.484,30.062-13.781,44.016
					C585.016,235.391,574.078,226.469,568.953,219.375z"/>
				<path fill="#EF3E42" d="M685.109,211.094c0,0,30.094,46.906,30.969,138.969c0,0-94.703,95.578-146.016,118.578
					c0,0-89.406,52.219-115.078,4.438c0,0-10.609-4.438-17.703-58.406c0,0,0.891-37.188-41.562-39.859c0,0-10.656,0-29.672,9.75
					l6.047-107.391c0,0,57.656,2.953,66.953,58.281c0,0,2.656,43.797,15.516,60.188c0,0,17.703,19.469,51.312,0.859
					c0,0,50.906-24.344,105.312-84.953C611.188,311.547,682.469,233.641,685.109,211.094"/>
				<path fill="#EF3E42" d="M376.656,678.406c0,0,53.562-34.953,63.281,30.531c0,0-17.828,11.344-91.438,10.781l1.625-26.266
					C350.125,693.453,365.594,688.578,376.656,678.406"/>
				<path fill="#EF3E42" d="M355,590.344l6.188-109.75c0,0,35.375-25.203,59.734-3.094c0,0,21.219,14.594,17.25,53.109
					c0,0,1.328,43.359,55.328,46.469c0,0,42.922,5.297,97.344-15.062c0,0,71.688-26.547,91.625-47.359
					c0,0-22.578,56.641-82.766,111.984c0,0-52.672,48.234-92.5,60.172c0,0-49.547-3.094-67.266-46.016
					c0,0-5.312-57.078-43.375-63.281C396.562,577.516,374.891,574.859,355,590.344"/>
				<path fill="#00529F" d="M372.094,277.172L348.5,719.719c0,0-126.281,2.938-221.875-86.453c0,0-88.5-69.031-110.625-168.156
					c0,0,134.531-115.047,216.859-149.594C232.859,315.516,313.969,269.812,372.094,277.172"/>
				<path fill="#FFFFFF" d="M313.375,348.281c0,0-4.422,21.234,4.438,27.438c0,0,7.953,23.891-7.984,31.859
					c0,0,26.562,0.875,8.875,23.906c0,0-15.047,9.75-15.047,34.5c0,0-8.859-12.391-7.984-35.391c0,0-1.766-19.484-27.422-11.5
					c0,0-9.75,0-15.062,14.156c0,0-8.828-16.812-21.219-20.375c0,0,19.469,2.656,32.734-13.266c0,0,12.391-23.891-18.578-27.453
					c0,0-20.359,0-30.109-12.359c0,0,27.438,2.641,38.062-5.328c0,0,23.016-15.938,31,5.328c0,0-1.781,20.344,6.172,16.812
					c0,0,9.75,3.531,4.422-15.047c0,0-2.641-11.5,10.641-13.281C319.578,346.516,309.828,350.922,313.375,348.281"/>
				<path fill="#FFFFFF" d="M157.906,414.672l8.266,31.266c0,0,16.531-0.578,21.234,7.062c0,0,2.359,7.656,14.156,8.859
					l-33.609,21.828l-0.609,37.172L136.656,495.5c0,0-12.391,1.172-20.656,14.141c0,0-5.297,14.156-31.844,17.719
					c0,0,15.328-16.531,12.391-34.219c0,0,1.766-18.891,23.016-27.156c0,0-5.328-3.531-15.359-4.125c0,0-11.781-5.312-11.203-15.344
					c0,0,10.641,1.781,18.297-2.344c0,0,15.328-3.547,24.797,1.766L157.906,414.672"/>
				<polyline fill="#FFFFFF" points="253.484,531.5 267.641,569.25 309.547,575.141 273.562,607.031 280.641,645.375 
					254.078,619.391 221.656,641.812 232.859,594.031 205.109,565.125 241.688,564.516 253.484,531.5 				"/>
				<path fill="#00529F" d="M360.016,714.656c-195.875,0-354.672-158.766-354.672-354.672
					c0-195.844,158.797-354.641,354.672-354.641s354.641,158.797,354.641,354.641C714.656,555.891,555.891,714.656,360.016,714.656
					 M360.016,0C161.188,0,0,161.188,0,359.984C0,558.828,161.188,720,360.016,720C558.828,720,720,558.828,720,359.984
					C720,161.188,558.828,0,360.016,0z"/>
			</g>
		</g>
	</g>
</g>
</svg>
