<?xml version="1.0" encoding="UTF-8" standalone="no"?>
<svg
   xmlns:dc="http://purl.org/dc/elements/1.1/"
   xmlns:cc="http://web.resource.org/cc/"
   xmlns:rdf="http://www.w3.org/1999/02/22-rdf-syntax-ns#"
   xmlns:svg="http://www.w3.org/2000/svg"
   xmlns="http://www.w3.org/2000/svg"
   xmlns:sodipodi="http://sodipodi.sourceforge.net/DTD/sodipodi-0.dtd"
   xmlns:inkscape="http://www.inkscape.org/namespaces/inkscape"
   width="8in"
   height="8in"
   viewBox="0 0 1 1"
   preserveAspectRatio="none"
   id="svg13371"
   sodipodi:version="0.32"
   inkscape:version="0.45.1"
   sodipodi:docname="HHSLogo2.svg"
   sodipodi:docbase="/Users/lindberg/Projects/Wiki/seals"
   inkscape:output_extension="org.inkscape.output.svg.inkscape"
   inkscape:export-filename="/Users/lindberg/Projects/Wiki/seals/HHSLogo.png"
   inkscape:export-xdpi="90"
   inkscape:export-ydpi="90">
  <metadata
     id="metadata16576">
    <rdf:RDF>
      <cc:Work
         rdf:about="">
        <dc:format>image/svg+xml</dc:format>
        <dc:type
           rdf:resource="http://purl.org/dc/dcmitype/StillImage" />
      </cc:Work>
    </rdf:RDF>
  </metadata>
  <defs
     id="defs16574" />
  <sodipodi:namedview
     inkscape:window-height="681"
     inkscape:window-width="818"
     inkscape:pageshadow="2"
     inkscape:pageopacity="0.0"
     guidetolerance="10.0"
     gridtolerance="10.0"
     objecttolerance="10.0"
     borderopacity="1.0"
     bordercolor="#666666"
     pagecolor="#ffffff"
     id="base"
     inkscape:showpageshadow="false"
     inkscape:zoom="0.525"
     inkscape:cx="270.13681"
     inkscape:cy="344.54656"
     inkscape:window-x="316"
     inkscape:window-y="57"
     inkscape:current-layer="svg13371" />
  <title
     id="title13373">SVG drawing</title>
  <desc
     id="desc13375">This was produced by version 4.1 of GNU libplot, a free library for exporting 2-D vector graphics.</desc>
  <g
     id="g24551">
    <path
       d="M 0.93206303,0.19005872 L 0.93206303,0.19019477 L 0.931927,0.19046685 L 0.93165493,0.19087496 L 0.93138284,0.1914192 L 0.93097465,0.19223544 L 0.93043049,0.19305177 L 0.9297502,0.19414013 L 0.92907001,0.19522855 L 0.92825372,0.19658901 L 0.92730143,0.19794953 L 0.92621302,0.199446 L 0.92512464,0.20121463 L 0.92390017,0.20284717 L 0.92253973,0.20475187 L 0.92117922,0.20665652 L 0.91968271,0.20869718 L 0.91805014,0.21087397 L 0.91628157,0.21305079 L 0.91451289,0.21522752 L 0.91260823,0.21754035 L 0.91056748,0.2198532 L 0.90852681,0.22230195 L 0.90635003,0.22475086 L 0.90403727,0.22733575 L 0.90158836,0.22978464 L 0.8991395,0.23236953 L 0.89655458,0.23495448 L 0.89383365,0.23753937 L 0.89111267,0.24012429 L 0.88825568,0.24270916 L 0.88526265,0.24515801 L 0.88213352,0.24774294 C 0.85832517,0.26719773 0.5859576,0.43440039 0.57262494,0.44501213 C 0.55915618,0.45548782 0.53466761,0.48364976 0.51466859,0.56663886 C 0.4984789,0.63357438 0.48800324,0.6085415 0.43453642,0.60650085 C 0.40324548,0.60527641 0.31644707,0.58242037 0.32311345,0.64949188 C 0.32311345,0.64949188 0.3338611,0.63452665 0.4523587,0.65044426 C 0.49902309,0.65683848 0.53711647,0.64160117 0.54813633,0.60650085 C 0.55915618,0.57085635 0.57520983,0.51031504 0.59929025,0.47847992 C 0.61044622,0.46378675 0.82866676,0.32964368 0.88879984,0.29386312 C 0.91070353,0.28093861 0.98117628,0.2383556 0.93206303,0.19005872 z "
       style="font-style:normal;font-variant:normal;font-weight:normal;font-stretch:normal;letter-spacing:normal;word-spacing:normal;text-anchor:start;fill:#000000;fill-opacity:1;fill-rule:nonzero;stroke:#231f20;stroke-width:0;stroke-linecap:butt;stroke-linejoin:miter;stroke-miterlimit:10.43299961;stroke-dasharray:none;stroke-dashoffset:0;stroke-opacity:1"
       id="path16297" />
    <path
       d="M 0.24747086,0.69452373 L 0.24747086,0.69452373 L 0.24774295,0.69438764 L 0.24801502,0.69425161 L 0.24828714,0.69397953 L 0.2488313,0.69370745 L 0.24937546,0.69329932 L 0.25019181,0.69289112 L 0.25100812,0.69261904 L 0.25196039,0.69221091 L 0.2530488,0.69166669 L 0.25427322,0.69125856 L 0.25563371,0.69085045 L 0.25699417,0.69057837 L 0.25862677,0.69017014 L 0.26039531,0.68989805 L 0.26216401,0.68962598 L 0.26420471,0.68935389 L 0.26638149,0.68921785 L 0.26869423,0.68908182 L 0.27100705,0.68908182 L 0.273592,0.68921785 L 0.27631293,0.68935389 L 0.27916994,0.68962598 L 0.28066649,0.68989805 L 0.28229899,0.69017014 L 0.28379562,0.69030629 L 0.28542819,0.6907144 L 0.28706071,0.69098648 L 0.28869328,0.69125856 L 0.29046198,0.69166669 L 0.29223052,0.69221091 L 0.29399916,0.69261904 L 0.29590379,0.69316329 L 0.29767245,0.69370745 L 0.29971315,0.69425161 L 0.30161789,0.69493185 L 0.30365851,0.69561205 L 0.30569929,0.69629234 L 0.30773999,0.69710865 L 0.30991677,0.69778885 L 0.31209347,0.69874125 C 0.35875792,0.71765186 0.48201712,0.77329532 0.51466859,0.79723978 C 0.53466761,0.81193293 0.5904472,0.83710169 0.57480171,0.86444727 C 0.55915618,0.89165683 0.48351362,0.90430934 0.49902309,0.96294592 C 0.51466859,1.0217185 0.59711351,0.99654975 0.6082694,0.98185658 C 0.61928926,0.96716342 0.57153653,0.99042758 0.55480271,0.94838877 C 0.54147002,0.91478496 0.56473412,0.89247316 0.59711351,0.87070553 C 0.61262295,0.86022982 0.6337104,0.85179492 0.63044517,0.82458536 C 0.6282685,0.80567469 0.59493673,0.79098153 0.56146903,0.772207 C 0.52800126,0.75329638 0.39889194,0.69248299 0.3476019,0.66935489 C 0.29644805,0.64636278 0.2408045,0.6546617 0.24747086,0.69452373 z "
       style="font-style:normal;font-variant:normal;font-weight:normal;font-stretch:normal;letter-spacing:normal;word-spacing:normal;text-anchor:start;fill:#000000;fill-opacity:1;fill-rule:nonzero;stroke:#231f20;stroke-width:0;stroke-linecap:butt;stroke-linejoin:miter;stroke-miterlimit:10.43299961;stroke-dasharray:none;stroke-dashoffset:0;stroke-opacity:1"
       id="path16299" />
    <path
       d="M 0.98226469,0.26107562 L 0.98117628,0.26325245 L 0.97995186,0.2654291 L 0.97872738,0.26774197 L 0.97750301,0.27019083 L 0.97614259,0.27277575 L 0.97546228,0.2740001 L 0.97464596,0.27536064 L 0.97382973,0.27672104 L 0.97301339,0.27808156 L 0.97206112,0.27944202 L 0.97110878,0.28080252 L 0.97015643,0.2822991 L 0.96906802,0.28365956 L 0.96784355,0.28515611 L 0.96675523,0.28665258 L 0.96539481,0.2880131 L 0.9640343,0.28964564 L 0.96253779,0.29114218 L 0.96104122,0.29263866 L 0.95940865,0.2941352 L 0.95777609,0.29576774 L 0.95587142,0.29726433 L 0.95396672,0.29889691 L 0.95192605,0.30052947 L 0.94988531,0.30216204 L 0.94757247,0.30365852 L 0.94525967,0.30529109 C 0.89655458,0.33794256 0.70840061,0.45467154 0.66500136,0.48065662 C 0.64051274,0.49521379 0.62092186,0.52269539 0.61493578,0.53507573 C 0.6082694,0.54881653 0.59833799,0.5829646 0.59384841,0.64160117 C 0.59303209,0.65289311 0.56337371,0.67153169 0.567047,0.67983059 C 0.57058417,0.68785744 0.59316815,0.68391199 0.59235181,0.69017014 C 0.59153557,0.69561205 0.58486927,0.70391097 0.58486927,0.70921684 C 0.58486927,0.71547509 0.59820193,0.7097611 0.59493673,0.71656345 C 0.58935879,0.72771935 0.59820193,0.73016824 0.60146707,0.73860317 C 0.60486827,0.74690209 0.60037865,0.75642545 0.60337167,0.76349989 C 0.60881356,0.77574422 0.62813247,0.77805704 0.65901521,0.77737672 C 0.6900341,0.77683256 0.704047,0.79819209 0.69724464,0.81723879 C 0.68840157,0.84240756 0.66772229,0.84199944 0.63561501,0.86363103 C 0.60337167,0.88512659 0.60201123,0.9124722 0.62078581,0.93573636 C 0.63507085,0.95342254 0.68880969,0.96199353 0.72254951,0.92770957 C 0.72948798,0.91995481 0.70731221,0.9304305 0.67506887,0.91356061 C 0.67506887,0.91356061 0.65411755,0.89845925 0.66527344,0.87818821 C 0.6762933,0.85778102 0.69425162,0.84893788 0.71411458,0.83737387 C 0.73384145,0.82567372 0.75982662,0.8192795 0.75860224,0.79424672 C 0.75737777,0.76935002 0.73139268,0.7658127 0.72091699,0.76513248 C 0.71030525,0.76458832 0.69397954,0.76554062 0.67942236,0.7648604 C 0.65738264,0.76377197 0.65071634,0.75329638 0.64935582,0.71125757 C 0.64894771,0.69778885 0.63003704,0.70499939 0.64051274,0.68717712 C 0.6460907,0.67792589 0.63003704,0.68159918 0.61915323,0.6769736 C 0.609902,0.6727561 0.62990101,0.65330122 0.64377788,0.63479876 C 0.64813139,0.6289487 0.64132898,0.62146607 0.64377788,0.59384842 C 0.6460907,0.56976793 0.6572466,0.53834094 0.68948994,0.51630122 C 0.70527147,0.50555344 0.77411163,0.46269836 0.79411068,0.45127038 C 0.82213647,0.43508068 0.95777609,0.34732984 0.98104024,0.32977971 C 1.0249836,0.29658411 0.97804717,0.25821864 0.98226469,0.26107562 z "
       style="font-style:normal;font-variant:normal;font-weight:normal;font-stretch:normal;letter-spacing:normal;word-spacing:normal;text-anchor:start;fill:#000000;fill-opacity:1;fill-rule:nonzero;stroke:#231f20;stroke-width:0;stroke-linecap:butt;stroke-linejoin:miter;stroke-miterlimit:10.43299961;stroke-dasharray:none;stroke-dashoffset:0;stroke-opacity:1"
       id="path16301" />
    <path
       d="M 0.48364975,0.92689322 L 0.48351362,0.92825373 L 0.48174505,0.92798164 C 0.47970436,0.92770957 0.4780717,0.92825373 0.47711941,0.92934208 C 0.47657524,0.93002239 0.47603108,0.93165493 0.47562295,0.93423983 L 0.47167752,0.96403432 C 0.47126934,0.96689129 0.47140544,0.96879597 0.4719496,0.96947623 C 0.47276594,0.97070064 0.47412639,0.97124479 0.47589503,0.97151692 L 0.47766357,0.97165293 L 0.47752754,0.97301336 L 0.45766457,0.97070064 C 0.450318,0.96974825 0.44487607,0.96825182 0.44133883,0.96634704 C 0.43780166,0.96430635 0.43508069,0.96131337 0.43317599,0.95736801 C 0.43140736,0.95342254 0.43072717,0.94920515 0.43140736,0.94430736 C 0.43222372,0.93791307 0.43508069,0.93287939 0.43970626,0.92906999 C 0.44501212,0.92485255 0.4523587,0.92321998 0.4618821,0.9243083 L 0.48364975,0.92689322 z M 0.4693647,0.92866187 L 0.46882054,0.92852583 L 0.46827632,0.92825373 L 0.46773216,0.9281177 L 0.46718787,0.92798164 L 0.46677976,0.92784561 L 0.4662356,0.92770957 L 0.46569141,0.92757354 L 0.4652833,0.92743748 L 0.46473914,0.92743748 L 0.4643309,0.92730145 L 0.46392277,0.92716541 L 0.46351466,0.92716541 L 0.46297042,0.92702925 L 0.46256232,0.92702925 L 0.46215419,0.92689322 L 0.46174598,0.92689322 C 0.45630406,0.92621301 0.45140641,0.92743748 0.44718895,0.93070259 C 0.44310753,0.93396776 0.4405226,0.93872942 0.43970626,0.94512367 C 0.43889003,0.95151796 0.43997835,0.95668764 0.44324358,0.96076912 C 0.44637263,0.9648506 0.45086216,0.96729943 0.45671229,0.96797969 C 0.45875296,0.96825182 0.46133785,0.9681157 0.46419486,0.96784358 L 0.4693647,0.92866187 z "
       style="font-style:normal;font-variant:normal;font-weight:normal;font-stretch:normal;letter-spacing:normal;word-spacing:normal;text-anchor:start;fill:#000000;fill-opacity:1;fill-rule:nonzero;stroke:#231f20;stroke-width:0;stroke-linecap:butt;stroke-linejoin:miter;stroke-miterlimit:10.43299961;stroke-dashoffset:0;stroke-opacity:1"
       id="path16305" />
    <path
       d="M 0.40555832,0.95981683 L 0.41004784,0.94199452 L 0.39957225,0.9395457 C 0.39685127,0.93900151 0.39494657,0.93886547 0.39372213,0.93940964 C 0.39236165,0.94022589 0.3911373,0.94185849 0.39032094,0.94430736 L 0.38909656,0.94403528 L 0.39304192,0.92838977 L 0.39440241,0.92866187 C 0.39413034,0.93097466 0.39413034,0.93247117 0.39426638,0.93315147 C 0.39453846,0.93396776 0.39508262,0.93478399 0.39589891,0.93546428 C 0.39671524,0.93614449 0.39821174,0.93668871 0.40011641,0.93709684 L 0.41072816,0.93940964 L 0.41453748,0.9247165 C 0.41494561,0.92253973 0.41521768,0.92145131 0.41508164,0.92090715 C 0.41508164,0.92049904 0.41480956,0.92009085 0.41440145,0.91968272 C 0.41399326,0.91927461 0.41317702,0.91900253 0.4118165,0.91873033 L 0.4037897,0.91682576 C 0.40106872,0.9162816 0.39902799,0.91600939 0.39780356,0.91600939 C 0.39644307,0.91614544 0.39508262,0.91655367 0.39372213,0.91736992 C 0.39195354,0.91845825 0.38991282,0.92009085 0.38773605,0.92253973 L 0.38610349,0.92213161 L 0.39317797,0.91179195 L 0.43004689,0.92022688 L 0.42977482,0.92145131 L 0.42800619,0.9210432 C 0.42691783,0.92077112 0.42582942,0.92077112 0.42460499,0.92117923 C 0.42378875,0.92131528 0.42310844,0.92158736 0.42270032,0.92240369 C 0.42229218,0.92294785 0.42174802,0.92444442 0.42120386,0.92648509 L 0.41372118,0.95587147 C 0.41290482,0.95872843 0.41290482,0.96063311 0.41331305,0.96144938 C 0.41385721,0.96240167 0.41521768,0.96321805 0.41712238,0.96362608 L 0.41875495,0.96403432 L 0.41848288,0.96525874 L 0.38161395,0.95695976 L 0.3835186,0.94689223 L 0.38501508,0.94716435 C 0.38487904,0.9497493 0.38501508,0.95151796 0.3854232,0.95247025 C 0.38569538,0.95342254 0.38651162,0.95437493 0.3876,0.9551912 C 0.38841637,0.95559934 0.39004886,0.95614349 0.39236165,0.95682375 L 0.40555832,0.95981683 z "
       style="font-style:normal;font-variant:normal;font-weight:normal;font-stretch:normal;letter-spacing:normal;word-spacing:normal;text-anchor:start;fill:#000000;fill-opacity:1;fill-rule:nonzero;stroke:#231f20;stroke-width:0;stroke-linecap:butt;stroke-linejoin:miter;stroke-miterlimit:10.43299961;stroke-dasharray:none;stroke-dashoffset:0;stroke-opacity:1"
       id="path16307" />
    <path
       d="M 0.36501606,0.92621301 L 0.36977777,0.91342447 C 0.37073006,0.9105675 0.37100221,0.90879891 0.37073006,0.90798255 C 0.3701859,0.9067582 0.36896142,0.90580589 0.36732891,0.90526161 L 0.36556028,0.90471745 L 0.36596841,0.90349303 L 0.38583141,0.91002334 L 0.38528716,0.91111176 L 0.3835186,0.9105675 C 0.38161395,0.91002334 0.37998129,0.91015938 0.37875691,0.9109757 C 0.37807669,0.91151986 0.37726035,0.91301636 0.37630806,0.91546523 L 0.36596841,0.94403528 C 0.36488002,0.94662021 0.36460793,0.94852478 0.36501606,0.94934116 C 0.36556028,0.95056557 0.36664872,0.95151796 0.36841726,0.95206211 L 0.3701859,0.95260626 L 0.36977777,0.95383067 L 0.35277174,0.94825276 C 0.3485543,0.94689223 0.34542525,0.94539569 0.34338446,0.94389925 C 0.34134377,0.94226668 0.33971125,0.94022589 0.33875887,0.93777703 C 0.33794256,0.93532825 0.33794256,0.93287939 0.33889491,0.93015843 C 0.34011936,0.92662114 0.34256821,0.92403621 0.34583336,0.92253973 C 0.34909853,0.92117923 0.35304392,0.92117923 0.35753344,0.92267577 C 0.35875792,0.92308393 0.35984631,0.92362809 0.36120671,0.92403621 C 0.36243116,0.9247165 0.36365557,0.92539671 0.36501606,0.92621301 z M 0.36433586,0.92798164 L 0.36419982,0.92784561 L 0.36392765,0.92784561 L 0.3637916,0.92770957 L 0.36351952,0.92757354 L 0.36338349,0.92743748 L 0.36311141,0.92743748 L 0.36297536,0.92730145 L 0.36270328,0.92716541 L 0.36256725,0.92716541 L 0.36243116,0.92702925 L 0.36215907,0.92689322 L 0.36202304,0.92689322 L 0.361887,0.92675717 L 0.36175097,0.92662114 L 0.36147888,0.92662114 L 0.36134284,0.92648509 C 0.3605265,0.92607698 0.35971021,0.9258049 0.35902999,0.92553274 C 0.35671719,0.92485255 0.35440431,0.92498858 0.35195551,0.92621301 C 0.34964269,0.92743748 0.34801014,0.92934208 0.34692171,0.93206306 C 0.3462415,0.93396776 0.34596941,0.93587241 0.3462415,0.93777703 C 0.34651358,0.93968173 0.34719379,0.94131433 0.34841827,0.94253876 C 0.34950665,0.94389925 0.35113922,0.94485154 0.35304392,0.94539569 C 0.35413224,0.94580383 0.35562875,0.94607595 0.35766949,0.94634808 L 0.36433586,0.92798164 z "
       style="font-style:normal;font-variant:normal;font-weight:normal;font-stretch:normal;letter-spacing:normal;word-spacing:normal;text-anchor:start;fill:#000000;fill-opacity:1;fill-rule:nonzero;stroke:#231f20;stroke-width:0;stroke-linecap:butt;stroke-linejoin:miter;stroke-miterlimit:10.43299961;stroke-dashoffset:0;stroke-opacity:1"
       id="path16311" />
    <path
       d="M 0.3157668,0.90090814 L 0.33331694,0.90825475 L 0.33943916,0.90308491 C 0.34093564,0.90172442 0.34188793,0.90063605 0.34229614,0.89981972 C 0.34256821,0.89913951 0.34256821,0.89845925 0.34216011,0.897643 C 0.34175189,0.89696269 0.34052748,0.89601042 0.33835075,0.89492207 L 0.33889491,0.89383364 L 0.35304392,0.89981972 L 0.35249966,0.90104417 C 0.35045903,0.90050001 0.34909853,0.90036398 0.34828221,0.90063605 C 0.34678566,0.90118021 0.34447285,0.90267678 0.34161585,0.90526161 L 0.30910043,0.93328751 L 0.30801207,0.93287939 L 0.30923646,0.89097664 C 0.30923646,0.8875755 0.30896439,0.88526264 0.3082842,0.88403826 C 0.30773999,0.88267773 0.30651553,0.88158935 0.30474694,0.88077312 L 0.3052911,0.87954865 L 0.32297729,0.88716731 L 0.32243313,0.8882557 C 0.32066455,0.8875755 0.31930405,0.88730335 0.31848776,0.8875755 C 0.31753538,0.88771154 0.31699122,0.8882557 0.31658312,0.88893589 C 0.31617493,0.88975223 0.31603888,0.89138475 0.31590284,0.89383364 L 0.3157668,0.90090814 z M 0.31563065,0.90362945 L 0.31508645,0.92403662 L 0.33114009,0.91015975 L 0.31563065,0.90362945 z "
       style="font-style:normal;font-variant:normal;font-weight:normal;font-stretch:normal;letter-spacing:normal;word-spacing:normal;text-anchor:start;fill:#000000;fill-opacity:1;fill-rule:nonzero;stroke:#231f20;stroke-width:0;stroke-linecap:butt;stroke-linejoin:miter;stroke-miterlimit:10.43299961;stroke-dashoffset:0;stroke-opacity:1"
       id="path16315" />
    <path
       d="M 0.26107563,0.85506008 L 0.2725036,0.86131823 L 0.27522457,0.88798363 C 0.27617689,0.88852778 0.27712927,0.88907204 0.27767343,0.88934411 C 0.27794551,0.8896162 0.27821765,0.88975223 0.27862578,0.88988827 C 0.27889785,0.8900243 0.27916994,0.89029639 0.27944201,0.89043248 L 0.28678864,0.87873237 C 0.28828516,0.8762835 0.2891014,0.87451486 0.28882932,0.87356255 C 0.28855724,0.87233808 0.287741,0.87124969 0.28610838,0.87043344 L 0.28447581,0.86948108 L 0.28515611,0.86839271 L 0.30325039,0.87846029 L 0.30257016,0.87954865 L 0.30093757,0.87859633 C 0.29930502,0.87764395 0.29767245,0.87750792 0.29617597,0.87818821 C 0.29535963,0.87859633 0.29427124,0.87982074 0.29277468,0.88213351 L 0.27658502,0.90798255 C 0.27495249,0.91043145 0.27440833,0.91220012 0.27454436,0.91315239 C 0.27481645,0.91437685 0.27563273,0.91560128 0.27740135,0.91641763 L 0.27889785,0.91723386 L 0.27821765,0.91845825 L 0.26284422,0.90975126 C 0.2583547,0.90730236 0.25522558,0.90512558 0.25345693,0.90335699 C 0.25168832,0.90158837 0.25059993,0.8994116 0.25019181,0.89696269 C 0.24964753,0.8943778 0.25019181,0.89206505 0.25168832,0.88975223 C 0.25318485,0.88730335 0.25536163,0.88567075 0.25821864,0.88485449 C 0.26107563,0.88403826 0.26447679,0.88417429 0.26855819,0.88539867 L 0.26692565,0.86893692 C 0.26651752,0.86526363 0.26597327,0.8625427 0.26502099,0.8609101 C 0.26420471,0.8591415 0.26257214,0.85764493 0.26039531,0.85614839 L 0.26107563,0.85506008 z M 0.27835369,0.89233713 L 0.27821765,0.89233713 L 0.27821765,0.89220109 L 0.27808154,0.89220109 L 0.27808154,0.89220109 L 0.27794551,0.89206505 L 0.27794551,0.89206505 L 0.27780946,0.89206505 L 0.27780946,0.89206505 L 0.27767343,0.891929 L 0.27767343,0.891929 L 0.27767343,0.891929 L 0.27753738,0.89179297 L 0.27753738,0.89179297 L 0.27740135,0.89179297 L 0.27740135,0.89179297 L 0.27740135,0.89179297 C 0.27699322,0.8915208 0.27685719,0.89138475 0.27658502,0.89124872 C 0.27263965,0.88907204 0.26910248,0.8882557 0.26610941,0.88879986 C 0.26298025,0.88934411 0.2606675,0.89084059 0.25903489,0.89342551 C 0.25753833,0.89587437 0.25699417,0.89832322 0.25767438,0.90090814 C 0.2583547,0.90335699 0.25998719,0.90526161 0.26270817,0.9067582 C 0.26393263,0.90743839 0.26570119,0.90811871 0.267878,0.90879891 L 0.27835369,0.89233713 z "
       style="font-style:normal;font-variant:normal;font-weight:normal;font-stretch:normal;letter-spacing:normal;word-spacing:normal;text-anchor:start;fill:#000000;fill-opacity:1;fill-rule:nonzero;stroke:#231f20;stroke-width:0;stroke-linecap:butt;stroke-linejoin:miter;stroke-miterlimit:10.43299961;stroke-dashoffset:0;stroke-opacity:1"
       id="path16319" />
    <path
       d="M 0.20135066,0.87111366 L 0.20760888,0.86186249 L 0.2086972,0.86267873 C 0.20774492,0.86444727 0.20720069,0.86567175 0.20706466,0.8666241 C 0.2069286,0.86812064 0.20706466,0.86948108 0.20760888,0.8705695 C 0.20828908,0.87179392 0.20937749,0.87301839 0.21101002,0.87410673 L 0.21672399,0.87791604 L 0.23876384,0.84920997 C 0.24053242,0.84703324 0.24134866,0.84540062 0.24134866,0.84444835 C 0.24107658,0.84308787 0.24026034,0.84199944 0.23876384,0.84091109 L 0.23726724,0.8399587 L 0.23808352,0.83887038 L 0.25508946,0.85043439 L 0.25427322,0.85152284 L 0.25291277,0.85057045 C 0.25114416,0.84934601 0.24964753,0.84907394 0.24815108,0.84948204 C 0.24733483,0.84989023 0.24611036,0.85097868 0.24447781,0.85315534 L 0.22243809,0.88172538 L 0.22719969,0.88512659 C 0.22910438,0.88635106 0.23046483,0.88716731 0.23141721,0.88743938 C 0.23264161,0.88771154 0.23413815,0.88771154 0.23563466,0.88716731 C 0.23713121,0.88662315 0.23849163,0.88567075 0.23998819,0.88403826 L 0.24107658,0.88471845 L 0.23386607,0.89328948 L 0.20135066,0.87111366 z "
       style="font-style:normal;font-variant:normal;font-weight:normal;font-stretch:normal;letter-spacing:normal;word-spacing:normal;text-anchor:start;fill:#000000;fill-opacity:1;fill-rule:nonzero;stroke:#231f20;stroke-width:0;stroke-linecap:butt;stroke-linejoin:miter;stroke-miterlimit:10.43299961;stroke-dasharray:none;stroke-dashoffset:0;stroke-opacity:1"
       id="path16321" />
    <path
       d="M 0.20543205,0.81315737 L 0.19114704,0.85383565 L 0.21345889,0.83111562 C 0.21549961,0.82893884 0.21658796,0.82744233 0.21658796,0.82662609 C 0.21658796,0.8252656 0.21590775,0.8240412 0.21454733,0.82281674 L 0.21332286,0.82172836 L 0.2141391,0.82077597 L 0.22679158,0.83179582 L 0.22583927,0.83261217 L 0.2246148,0.83152375 C 0.22311829,0.83016331 0.22148572,0.82961915 0.22012527,0.83002728 C 0.21917289,0.83016331 0.21781244,0.83125166 0.21590775,0.83315633 L 0.19400408,0.8554682 C 0.19264365,0.85696473 0.19169126,0.85818915 0.19141917,0.8591415 C 0.19114704,0.85982172 0.19128314,0.86063801 0.19155523,0.8615903 C 0.19196333,0.8625427 0.19291573,0.86363103 0.19427616,0.86485551 L 0.19345989,0.86580779 L 0.18312025,0.8568287 L 0.19618083,0.81900742 L 0.15713517,0.83438076 L 0.14693155,0.82540165 L 0.1478839,0.82444931 L 0.14910837,0.82553768 C 0.15060484,0.82689817 0.15223744,0.82744233 0.15373395,0.82717025 C 0.15455028,0.82689817 0.15604676,0.82594581 0.15781538,0.8240412 L 0.17971905,0.80172931 C 0.18175984,0.7995526 0.18271211,0.79805604 0.18271211,0.79710374 C 0.18284816,0.79574323 0.18216795,0.7945188 0.18067139,0.79329434 L 0.17944697,0.79220597 L 0.18039932,0.79138974 L 0.19577272,0.80472242 L 0.19482032,0.80567469 L 0.19359594,0.80458628 C 0.19196333,0.80322584 0.19046682,0.80268168 0.18897031,0.8030898 C 0.18801797,0.80322584 0.18665748,0.8043142 0.18488889,0.80621893 L 0.16244094,0.82893884 L 0.2046158,0.81234104 L 0.20543205,0.81315737 z "
       style="font-style:normal;font-variant:normal;font-weight:normal;font-stretch:normal;letter-spacing:normal;word-spacing:normal;text-anchor:start;fill:#000000;fill-opacity:1;fill-rule:nonzero;stroke:#231f20;stroke-width:0;stroke-linecap:butt;stroke-linejoin:miter;stroke-miterlimit:10.43299961;stroke-dasharray:none;stroke-dashoffset:0;stroke-opacity:1"
       id="path16323" />
    <path
       d="M 0.13400704,0.8071712 L 0.14883618,0.7953351 L 0.14176174,0.78758034 C 0.13985705,0.78553961 0.13836059,0.78431524 0.13713612,0.78417913 C 0.13550358,0.7840431 0.13359888,0.78472337 0.13142215,0.78621993 L 0.1304698,0.78526753 L 0.14339428,0.77492799 L 0.14434666,0.77588025 C 0.14271409,0.77751288 0.14176174,0.77873724 0.14148966,0.77941751 C 0.14108154,0.78023384 0.14108154,0.78118612 0.14135361,0.78213845 C 0.1416257,0.78309082 0.14244201,0.78431524 0.1438025,0.7858118 L 0.15087691,0.79356642 L 0.16312125,0.78363498 C 0.1647538,0.78241053 0.16570617,0.78145824 0.16597825,0.78105009 C 0.16625033,0.78064196 0.16625033,0.78009771 0.1661143,0.77968959 C 0.1661143,0.77914543 0.16557014,0.77832911 0.1647538,0.77737672 L 0.15931189,0.7715267 C 0.1575433,0.76948606 0.15604676,0.76812557 0.1549584,0.7674453 C 0.15386998,0.76690114 0.15250952,0.76635686 0.15087691,0.76635686 C 0.14870014,0.76608478 0.14597919,0.76635686 0.14271409,0.76717323 L 0.14176174,0.76608478 L 0.15386998,0.76159526 L 0.1784946,0.78866878 L 0.17754227,0.78948502 L 0.17631792,0.78826066 C 0.17563762,0.78744431 0.17468527,0.78676409 0.17359695,0.78635596 C 0.1727806,0.78608387 0.17196433,0.78608387 0.17128414,0.78635596 C 0.17046777,0.78662803 0.16924335,0.78758034 0.16733869,0.78894086 L 0.14298617,0.80866775 C 0.14067329,0.81043642 0.13944894,0.81193293 0.13917683,0.81274917 C 0.1390408,0.81397361 0.13958498,0.81533406 0.1409455,0.81669455 L 0.14203382,0.81805502 L 0.14108154,0.81887137 L 0.11632076,0.79166181 L 0.12434758,0.78458732 L 0.1251639,0.78567577 C 0.12353133,0.78758034 0.12257901,0.78907689 0.12217089,0.79016529 C 0.12189881,0.79111765 0.12189881,0.79234202 0.12230694,0.79343038 C 0.12271505,0.79438275 0.12366739,0.79574323 0.12529996,0.79751187 L 0.13400704,0.8071712 z "
       style="font-style:normal;font-variant:normal;font-weight:normal;font-stretch:normal;letter-spacing:normal;word-spacing:normal;text-anchor:start;fill:#000000;fill-opacity:1;fill-rule:nonzero;stroke:#231f20;stroke-width:0;stroke-linecap:butt;stroke-linejoin:miter;stroke-miterlimit:10.43299961;stroke-dasharray:none;stroke-dashoffset:0;stroke-opacity:1"
       id="path16325" />
    <path
       d="M 0.1096545,0.78417913 L 0.10203578,0.77383955 L 0.11536847,0.73098447 L 0.0919683,0.74594974 C 0.089655474,0.74758238 0.08815895,0.74894282 0.08788687,0.74989511 C 0.087614713,0.75111955 0.088022902,0.75248003 0.089111222,0.75397659 L 0.090063602,0.75520097 L 0.088975189,0.75601732 L 0.079179775,0.7425486 L 0.080404188,0.74186828 L 0.081356552,0.74322881 C 0.082580981,0.74486142 0.083805456,0.74567767 0.085437966,0.74567767 C 0.086390238,0.74567767 0.08788687,0.74499746 0.090199634,0.74350091 L 0.12448371,0.72132512 L 0.1251639,0.72241347 L 0.11087895,0.76866973 L 0.13577565,0.75248003 C 0.13836059,0.75084748 0.13972102,0.74962303 0.13985705,0.7486707 C 0.14026518,0.74744625 0.13985705,0.74608577 0.13876872,0.74458922 L 0.13781632,0.74322881 L 0.13890475,0.74241257 L 0.14870014,0.75588129 L 0.14761182,0.75656148 L 0.14652344,0.75520097 C 0.14543503,0.75356846 0.14407458,0.75275211 0.14244201,0.75275211 C 0.1416257,0.75275211 0.13985705,0.75356846 0.13768028,0.75492889 L 0.10938235,0.77329532 C 0.10883819,0.77520006 0.10856611,0.77669653 0.10856611,0.77751288 C 0.10856611,0.77846516 0.10883819,0.77955355 0.10911027,0.78091403 C 0.10938235,0.78145824 0.10992659,0.78241053 0.11074282,0.78349894 L 0.1096545,0.78417913 z "
       style="font-style:normal;font-variant:normal;font-weight:normal;font-stretch:normal;letter-spacing:normal;word-spacing:normal;text-anchor:start;fill:#000000;fill-opacity:1;fill-rule:nonzero;stroke:#231f20;stroke-width:0;stroke-linecap:butt;stroke-linejoin:miter;stroke-miterlimit:10.43299961;stroke-dasharray:none;stroke-dashoffset:0;stroke-opacity:1"
       id="path16327" />
    <path
       d="M 0.055371453,0.70159823 L 0.065302915,0.69588423 L 0.065847075,0.69710865 C 0.064214488,0.69819697 0.063126137,0.69914937 0.062581978,0.69996563 C 0.061629582,0.70118999 0.06122147,0.7025505 0.061357503,0.70377493 C 0.061357503,0.70513542 0.06176563,0.70663192 0.062718025,0.70840059 L 0.066119232,0.71411459 L 0.099042761,0.69710865 C 0.1017637,0.69574808 0.10326024,0.69465977 0.10366835,0.69384348 C 0.10407654,0.69261904 0.1038044,0.69112253 0.10298816,0.68962598 L 0.10203578,0.68812951 L 0.10326024,0.68744919 L 0.11332771,0.70486334 L 0.11210332,0.7055436 L 0.11128708,0.7040471 C 0.11019866,0.70227842 0.10897424,0.70132615 0.10747768,0.70118999 C 0.10652538,0.70118999 0.10489278,0.70173426 0.10244391,0.70295869 L 0.069384329,0.71982856 L 0.072241329,0.72472633 C 0.073329757,0.72663098 0.07428206,0.72799142 0.074962267,0.72853567 C 0.076050694,0.72948796 0.077275123,0.72989615 0.078907695,0.73003218 C 0.08054022,0.73016824 0.08230884,0.72989615 0.084349616,0.7289438 L 0.085029823,0.73016824 L 0.074554139,0.73492989 L 0.055371453,0.70159823 z "
       style="font-style:normal;font-variant:normal;font-weight:normal;font-stretch:normal;letter-spacing:normal;word-spacing:normal;text-anchor:start;fill:#000000;fill-opacity:1;fill-rule:nonzero;stroke:#231f20;stroke-width:0;stroke-linecap:butt;stroke-linejoin:miter;stroke-miterlimit:10.43299961;stroke-dasharray:none;stroke-dashoffset:0;stroke-opacity:1"
       id="path16329" />
    <path
       d="M 0.032651466,0.65398149 L 0.032515418,0.65343727 L 0.032243338,0.65289311 L 0.032107306,0.65234895 L 0.031971258,0.6518047 L 0.031835102,0.65126054 L 0.03169907,0.65085236 L 0.031563022,0.6503082 L 0.03142699,0.64976404 L 0.03142699,0.64921979 L 0.031290943,0.64867563 L 0.031290943,0.64813141 L 0.031290943,0.64758725 L 0.031290943,0.64704309 L 0.03115491,0.64649881 L 0.031290943,0.64595465 L 0.031290943,0.64541048 L 0.031290943,0.64500235 L 0.031290943,0.64445819 L 0.03142699,0.64391392 L 0.03142699,0.64336976 L 0.031563022,0.6428256 L 0.03169907,0.64228137 L 0.031835102,0.64173721 L 0.031971258,0.64119295 L 0.032107306,0.64064879 L 0.032379386,0.64010464 L 0.032515418,0.63956042 L 0.032651466,0.63901626 L 0.032923545,0.63847201 L 0.033195625,0.63792785 L 0.033467767,0.63738369 L 0.033739847,0.63683947 C 0.036596832,0.6312615 0.041494562,0.62718007 0.048296975,0.62473117 C 0.055371453,0.62228232 0.061901786,0.62228232 0.068159916,0.62486722 C 0.074554139,0.62745216 0.078907695,0.63166963 0.08122052,0.63751975 C 0.083533268,0.64350579 0.083261188,0.64935584 0.080404188,0.65493378 C 0.077411171,0.66051182 0.072377362,0.66472927 0.065166883,0.66717811 C 0.05782031,0.669763 0.051017851,0.66949093 0.044487626,0.66649791 C 0.038773625,0.66377692 0.034964306,0.6596955 0.032651466,0.65398149 z M 0.035372418,0.65370941 L 0.035508466,0.65411754 L 0.035644498,0.65438962 L 0.035780546,0.65479773 L 0.035916578,0.65506994 L 0.036188704,0.65547804 L 0.036324752,0.65575013 L 0.036460784,0.6560222 L 0.036732864,0.65643035 L 0.036868911,0.65670243 L 0.037140991,0.65697451 L 0.037413071,0.65724659 L 0.037549196,0.65751867 L 0.037821276,0.65779087 L 0.038093356,0.65806295 L 0.038365436,0.65833503 L 0.038501483,0.65847106 L 0.038773625,0.65874315 L 0.039045705,0.65901522 L 0.039317785,0.65915134 L 0.039589864,0.65942341 L 0.039997992,0.6596955 L 0.04027018,0.65983154 L 0.04054226,0.65996757 L 0.04081434,0.66023966 L 0.041222467,0.6603757 L 0.041494562,0.66051182 L 0.04190269,0.66078391 L 0.04217477,0.66091995 L 0.042582881,0.66105598 L 0.042855085,0.66119204 L 0.043263197,0.66132807 L 0.043671325,0.66146411 C 0.048569055,0.66296059 0.054827216,0.66241643 0.062173866,0.65983154 C 0.069656409,0.65724659 0.074826219,0.65370941 0.077683251,0.64921979 C 0.079860028,0.64581862 0.08026814,0.64228137 0.078771663,0.63847201 C 0.077139091,0.63439061 0.074146027,0.63166963 0.069656409,0.63017309 C 0.065302915,0.62867661 0.059452882,0.62922082 0.052106278,0.63180566 C 0.044215484,0.63452665 0.038773625,0.63806391 0.036188704,0.64241741 C 0.034011926,0.64581862 0.033739847,0.64962801 0.035372418,0.65370941 z "
       style="font-style:normal;font-variant:normal;font-weight:normal;font-stretch:normal;letter-spacing:normal;word-spacing:normal;text-anchor:start;fill:#000000;fill-opacity:1;fill-rule:nonzero;stroke:#231f20;stroke-width:0;stroke-linecap:butt;stroke-linejoin:miter;stroke-miterlimit:10.43299961;stroke-dashoffset:0;stroke-opacity:1"
       id="path16333" />
    <path
       d="M 0.021767639,0.61031019 L 0.040406228,0.60568451 L 0.038093356,0.59752165 C 0.037549196,0.59561704 0.036732864,0.59439258 0.035644498,0.59371231 C 0.034556086,0.59316815 0.032651466,0.59303212 0.029930528,0.59344023 L 0.029658448,0.59207972 L 0.045712086,0.58813435 L 0.046120198,0.58935879 C 0.044215484,0.58976702 0.042991117,0.59031118 0.04217477,0.59099137 C 0.041494562,0.59167159 0.040950387,0.5923518 0.04081434,0.59330419 C 0.04054226,0.5941205 0.04054226,0.59534496 0.040950387,0.59684143 L 0.043263197,0.60500432 L 0.05836447,0.60119499 C 0.060677311,0.60065083 0.062309898,0.60010657 0.062990105,0.59969844 C 0.06353428,0.59929032 0.06380636,0.59874609 0.06407844,0.59792985 C 0.06435052,0.59684143 0.06435052,0.59575307 0.06407844,0.59466466 L 0.063670328,0.59303212 L 0.064894803,0.59276003 L 0.070336693,0.61194277 L 0.068976202,0.61221485 L 0.068568043,0.61071829 C 0.068023884,0.60881368 0.067071504,0.60758921 0.065711043,0.60704501 C 0.064758756,0.60677293 0.062990105,0.60690898 0.060133074,0.60758921 L 0.029250321,0.61534391 C 0.026937465,0.61588813 0.025304893,0.61643229 0.024624639,0.61684042 C 0.02408048,0.61724863 0.023808307,0.61779279 0.023536227,0.61860908 C 0.023264147,0.61969749 0.023264147,0.62078581 0.023536227,0.6218742 L 0.023944447,0.62337076 L 0.022719988,0.6237789 L 0.0133327,0.59044721 L 0.023672275,0.58731812 L 0.023944447,0.58854254 C 0.021903686,0.58963086 0.020543163,0.59071929 0.019590861,0.59180764 C 0.018910669,0.59276003 0.018366386,0.59384842 0.018230354,0.59507279 C 0.018094306,0.59629723 0.018366386,0.59820193 0.018910669,0.60051467 L 0.021767639,0.61031019 z "
       style="font-style:normal;font-variant:normal;font-weight:normal;font-stretch:normal;letter-spacing:normal;word-spacing:normal;text-anchor:start;fill:#000000;fill-opacity:1;fill-rule:nonzero;stroke:#231f20;stroke-width:0;stroke-linecap:butt;stroke-linejoin:miter;stroke-miterlimit:10.43299961;stroke-dasharray:none;stroke-dashoffset:0;stroke-opacity:1"
       id="path16335" />
    <path
       d="M 0.027753704,0.54459908 L 0.025032767,0.52337567 L 0.011019859,0.52487221 C 0.0085710014,0.5251443 0.0069384143,0.52555243 0.0061221748,0.52582452 C 0.0055779379,0.5260966 0.0051698259,0.52677681 0.0047616056,0.52745713 C 0.0043534936,0.52854551 0.004217446,0.52949779 0.0043534936,0.53072224 L 0.0046255734,0.53221873 L 0.0031290803,0.53249081 L 0.00068020722,0.51276393 L 0.0020406682,0.51262789 L 0.0023128408,0.51426049 C 0.0024488885,0.51534882 0.0028570005,0.51630122 0.0035372541,0.51725351 C 0.0039453661,0.51793377 0.0046255734,0.51834189 0.0054419057,0.51847793 C 0.006258207,0.51861396 0.007754762,0.51861396 0.010203511,0.51834189 L 0.04190269,0.51494071 C 0.044351594,0.5146686 0.045984165,0.51426049 0.046664357,0.51385236 C 0.047344611,0.51358028 0.047752723,0.51303601 0.048024803,0.5123558 C 0.048569055,0.51126742 0.048705103,0.51017901 0.048569055,0.50909065 L 0.048296975,0.50759411 L 0.049657452,0.50745808 L 0.052106278,0.527049 L 0.050745771,0.52718504 L 0.050609723,0.52555243 C 0.050337644,0.52364774 0.049521342,0.52242332 0.048296975,0.52160698 C 0.047480643,0.52119887 0.045576038,0.52106282 0.042718929,0.52147095 L 0.027753704,0.52310358 L 0.030474688,0.544327 L 0.045439913,0.54269443 C 0.047752723,0.54242235 0.049385295,0.54215027 0.050201611,0.54174209 C 0.050745771,0.54147002 0.051154007,0.54092586 0.051562119,0.54024557 C 0.051970246,0.53915717 0.052106278,0.53806885 0.051970246,0.53698043 L 0.051834199,0.53534792 L 0.053194629,0.53521176 L 0.055643533,0.5548027 L 0.054283056,0.55507478 L 0.054010976,0.55330616 C 0.053738897,0.55153751 0.053058581,0.55017704 0.051698166,0.54949684 C 0.051017851,0.54895268 0.048977183,0.54895268 0.046120198,0.54922476 L 0.014421066,0.55276196 C 0.011972208,0.55303408 0.010339667,0.55330616 0.0096593516,0.55371428 C 0.009115192,0.55398637 0.0085710014,0.55453062 0.0082989216,0.55521081 C 0.007754762,0.5562992 0.0076187299,0.55738764 0.007754762,0.55847599 L 0.0080268418,0.56010857 L 0.0066663344,0.56024462 L 0.004217446,0.54065368 L 0.0055779379,0.54051765 L 0.0057139855,0.54215027 C 0.0058500176,0.54323859 0.006258207,0.54419095 0.0069384143,0.5451433 C 0.0074825739,0.54568746 0.0080268418,0.54609559 0.0088431122,0.54636777 C 0.0096593516,0.54650383 0.011291939,0.54650383 0.01360478,0.54623174 L 0.027753704,0.54459908 z "
       style="font-style:normal;font-variant:normal;font-weight:normal;font-stretch:normal;letter-spacing:normal;word-spacing:normal;text-anchor:start;fill:#000000;fill-opacity:1;fill-rule:nonzero;stroke:#231f20;stroke-width:0;stroke-linecap:butt;stroke-linejoin:miter;stroke-miterlimit:10.43299961;stroke-dasharray:none;stroke-dashoffset:0;stroke-opacity:1"
       id="path16337" />
    <path
       d="M 0.0029930481,0.4914044 L 0.022311798,0.49113233 L 0.022311798,0.48092883 C 0.022175766,0.47834388 0.021767639,0.47657522 0.020951291,0.47562294 C 0.019862972,0.47453453 0.017958274,0.47385426 0.015101273,0.47385426 L 0.015101273,0.47249375 L 0.032107306,0.4723577 L 0.032107306,0.47358218 C 0.029794481,0.47385426 0.028297925,0.47426245 0.027617656,0.47467058 C 0.026665385,0.47507868 0.026121132,0.47562294 0.025576973,0.47657522 C 0.025168845,0.47752754 0.024896719,0.47902408 0.025032767,0.48092883 L 0.025032767,0.49113233 L 0.041222467,0.4909963 C 0.043399245,0.4909963 0.044759706,0.49086024 0.045167833,0.49072421 C 0.045712086,0.49045214 0.046120198,0.49017998 0.046392277,0.48963582 C 0.046664357,0.4892277 0.046800405,0.48841137 0.046800405,0.48705093 L 0.046664357,0.47929617 C 0.046528325,0.47671126 0.046392277,0.47480661 0.045984165,0.47358218 C 0.045576038,0.47249375 0.044895753,0.47126937 0.043671325,0.47018105 C 0.04217477,0.46882052 0.039861944,0.46746007 0.036868911,0.46596353 L 0.036868911,0.46446696 L 0.049249262,0.4682763 L 0.049657452,0.50405688 L 0.048296975,0.50405688 L 0.048296975,0.50242427 C 0.048296975,0.50133595 0.048024803,0.5003836 0.047480643,0.49943123 C 0.047072531,0.49861499 0.046392277,0.49820682 0.045576038,0.49793474 C 0.044895753,0.49766266 0.043263197,0.49752662 0.040950387,0.49752662 L 0.0088431122,0.49793474 C 0.0057139855,0.49793474 0.003809334,0.49834287 0.0031290803,0.49888707 C 0.0021768087,0.49970331 0.0017685884,0.5010638 0.0017685884,0.50296855 L 0.0017685884,0.50460104 L 0.00040812742,0.50460104 L -3.2761462e-11,0.46882052 L 0.010747779,0.4682763 L 0.010883827,0.46963677 C 0.0081628895,0.470045 0.0063942546,0.47072521 0.0054419057,0.47126937 C 0.0044895258,0.47181354 0.003809334,0.47262979 0.0032651279,0.47385426 C 0.0028570005,0.47480661 0.0027209683,0.47630315 0.0028570005,0.47875201 L 0.0029930481,0.4914044 z "
       style="font-style:normal;font-variant:normal;font-weight:normal;font-stretch:normal;letter-spacing:normal;word-spacing:normal;text-anchor:start;fill:#000000;fill-opacity:1;fill-rule:nonzero;stroke:#231f20;stroke-width:0;stroke-linecap:butt;stroke-linejoin:miter;stroke-miterlimit:10.43299961;stroke-dasharray:none;stroke-dashoffset:0;stroke-opacity:1"
       id="path16339" />
    <path
       d="M 0.035780546,0.42895848 L 0.034011926,0.44691686 L 0.041358499,0.45072611 C 0.043263197,0.45167851 0.044623674,0.45222273 0.045439913,0.45222273 C 0.046256245,0.45235878 0.046936483,0.45208662 0.047616691,0.45140643 C 0.04816085,0.45086214 0.048705103,0.44936569 0.049113215,0.44718893 L 0.050473691,0.44732497 L 0.048977183,0.46188213 L 0.047616691,0.46174597 C 0.047480643,0.45984138 0.047072531,0.4586169 0.046528325,0.45793671 C 0.045576038,0.45671229 0.043263197,0.45521575 0.039861944,0.45344709 L 0.0012244287,0.43358416 L 0.0012244287,0.43249579 L 0.043671325,0.41984336 C 0.047072531,0.41889101 0.049385295,0.41780257 0.050473691,0.41685026 C 0.051562119,0.415898 0.052242326,0.41453747 0.052514421,0.41263276 L 0.053874944,0.41276879 L 0.052106278,0.43099925 L 0.050745771,0.43086322 C 0.050745771,0.42895848 0.050609723,0.4277341 0.050065564,0.42705388 C 0.049657452,0.42637357 0.048977183,0.42596546 0.04816085,0.42582941 C 0.047072531,0.42582941 0.045439913,0.42610149 0.042991117,0.42678181 L 0.035780546,0.42895848 z M 0.03292345,0.42977519 L 0.012380242,0.43576129 L 0.031426925,0.44569278 L 0.03292345,0.42977519 z "
       style="font-style:normal;font-variant:normal;font-weight:normal;font-stretch:normal;letter-spacing:normal;word-spacing:normal;text-anchor:start;fill:#000000;fill-opacity:1;fill-rule:nonzero;stroke:#231f20;stroke-width:0;stroke-linecap:butt;stroke-linejoin:miter;stroke-miterlimit:10.43299961;stroke-dashoffset:0;stroke-opacity:1"
       id="path16343" />
    <path
       d="M 0.049249262,0.36977777 L 0.049793484,0.3688254 L 0.062037818,0.37521968 L 0.054555136,0.41032003 L 0.053194629,0.41004785 L 0.053602741,0.40841531 C 0.053874944,0.40651063 0.053602741,0.40501416 0.052378389,0.40392574 C 0.051834199,0.40338158 0.050065564,0.40270131 0.047344611,0.40229318 L 0.016053638,0.39630701 C 0.01306062,0.39576285 0.011155907,0.39562682 0.010339667,0.39617098 C 0.009115192,0.3968513 0.0082989216,0.39807572 0.0078908097,0.39970829 L 0.0074825739,0.40147685 L 0.006258207,0.40120477 L 0.010611747,0.38066159 L 0.011836176,0.38093368 C 0.011427986,0.38338257 0.011291939,0.38501507 0.011564019,0.38610352 C 0.011836176,0.3871919 0.012380335,0.3878721 0.01306062,0.38841635 C 0.013740827,0.38896051 0.015509385,0.38950467 0.018230354,0.39004888 L 0.048705103,0.39576285 C 0.050609723,0.39617098 0.051970246,0.39617098 0.052922549,0.39603493 C 0.053330661,0.3958989 0.053874944,0.39549077 0.054283056,0.3949466 C 0.054555136,0.39440244 0.055099373,0.39276984 0.055643533,0.3897768 L 0.056459865,0.38651162 C 0.057140057,0.38297445 0.057412136,0.38052555 0.057140057,0.37889298 C 0.057004024,0.37739641 0.056323724,0.37603593 0.055099373,0.37453937 C 0.054010976,0.37317895 0.052106278,0.37154635 0.049249262,0.36977777 z "
       style="font-style:normal;font-variant:normal;font-weight:normal;font-stretch:normal;letter-spacing:normal;word-spacing:normal;text-anchor:start;fill:#000000;fill-opacity:1;fill-rule:nonzero;stroke:#231f20;stroke-width:0;stroke-linecap:butt;stroke-linejoin:miter;stroke-miterlimit:10.43299961;stroke-dasharray:none;stroke-dashoffset:0;stroke-opacity:1"
       id="path16345" />
    <path
       d="M 0.026393212,0.32352155 L 0.037685244,0.32610646 L 0.037277023,0.32733088 C 0.035236386,0.32705873 0.033739847,0.32705873 0.032787498,0.32719484 C 0.031290943,0.32760297 0.029930528,0.32814713 0.028978133,0.32909952 C 0.028025846,0.33005183 0.027209544,0.33154838 0.026665385,0.33331697 L 0.024760687,0.33957522 L 0.060813343,0.34950663 C 0.063670328,0.35018695 0.065574995,0.35045903 0.066527344,0.35005079 C 0.067751804,0.34950663 0.068704122,0.34828221 0.069248281,0.34651361 L 0.069656409,0.34501711 L 0.071016901,0.34542524 L 0.065166883,0.36433587 L 0.06380636,0.36392775 L 0.06435052,0.36243118 C 0.064894803,0.3605265 0.064758756,0.35902999 0.06380636,0.35794158 C 0.063126137,0.35726139 0.06149355,0.3564451 0.05890863,0.35576489 L 0.022856035,0.34583335 L 0.021087323,0.35127527 C 0.020543163,0.35331602 0.020135051,0.35481253 0.020271084,0.35576489 C 0.020407131,0.35712533 0.020815243,0.35821365 0.021903686,0.35943812 C 0.022856035,0.36066254 0.024488607,0.36147889 0.026529337,0.36229513 L 0.026121132,0.36351951 L 0.015237305,0.35998234 L 0.026393212,0.32352155 z "
       style="font-style:normal;font-variant:normal;font-weight:normal;font-stretch:normal;letter-spacing:normal;word-spacing:normal;text-anchor:start;fill:#000000;fill-opacity:1;fill-rule:nonzero;stroke:#231f20;stroke-width:0;stroke-linecap:butt;stroke-linejoin:miter;stroke-miterlimit:10.43299961;stroke-dasharray:none;stroke-dashoffset:0;stroke-opacity:1"
       id="path16347" />
    <path
       d="M 0.055643533,0.31127725 L 0.064214488,0.29141426 L 0.051154007,0.2863805 C 0.048841135,0.2854282 0.047208563,0.28502008 0.046392277,0.28502008 C 0.045712086,0.28502008 0.045031785,0.28515611 0.044351594,0.28570027 C 0.043399245,0.2863805 0.042718929,0.28733278 0.042310802,0.28828518 L 0.041766642,0.28978169 L 0.040406228,0.28923753 L 0.048296975,0.27100707 L 0.049657452,0.27155132 L 0.048977183,0.27304783 C 0.048569055,0.2740001 0.048296975,0.27508855 0.048569055,0.27617688 C 0.048569055,0.27699325 0.048841135,0.27767344 0.049521342,0.27821767 C 0.050065564,0.27862579 0.051562119,0.27930599 0.053738897,0.28025836 L 0.083261188,0.2915503 C 0.085573998,0.29250262 0.087206601,0.29291074 0.088022902,0.29291074 C 0.08870311,0.29291074 0.089383394,0.29263866 0.090063602,0.29223055 C 0.090879887,0.29141426 0.091560079,0.29059802 0.0919683,0.28964564 L 0.092784539,0.28814913 L 0.094008968,0.28855726 L 0.085982126,0.30692376 L 0.084757744,0.30637948 L 0.085437966,0.30488298 C 0.086254206,0.30311436 0.086254206,0.30161788 0.085437966,0.30039342 C 0.085029823,0.29971316 0.083397221,0.29876088 0.080676268,0.29767244 L 0.066799424,0.29236658 L 0.05809239,0.31222961 L 0.072105282,0.31753538 C 0.07428206,0.31835174 0.075914662,0.3188959 0.076730902,0.3188959 C 0.077411171,0.3188959 0.078091363,0.31862382 0.078771663,0.31807966 C 0.079587902,0.31739935 0.080404188,0.3165831 0.0808123,0.31563076 L 0.0814926,0.31399818 L 0.082717029,0.31454234 L 0.074826219,0.33277281 L 0.073465805,0.33236462 L 0.074146027,0.33086806 C 0.074962267,0.32909952 0.074962267,0.32760297 0.074146027,0.32637853 C 0.073737884,0.32556221 0.072105282,0.32474596 0.069384329,0.3236576 L 0.039861944,0.31222961 C 0.037549196,0.31141328 0.035916578,0.31086912 0.035100339,0.31086912 C 0.034420054,0.31086912 0.033739847,0.3111412 0.033059577,0.31168536 C 0.032243338,0.31236566 0.031563022,0.3131819 0.031018863,0.31427027 L 0.03033864,0.31576679 L 0.029114165,0.31522263 L 0.037140991,0.29699221 L 0.038365436,0.2975364 L 0.037685244,0.29903296 C 0.037277023,0.29998531 0.037140991,0.30107363 0.037277023,0.30216204 C 0.037277023,0.30284228 0.037685244,0.30352249 0.038229403,0.30406674 C 0.038773625,0.3046109 0.04027018,0.30529109 0.042446849,0.30610741 L 0.055643533,0.31127725 z "
       style="font-style:normal;font-variant:normal;font-weight:normal;font-stretch:normal;letter-spacing:normal;word-spacing:normal;text-anchor:start;fill:#000000;fill-opacity:1;fill-rule:nonzero;stroke:#231f20;stroke-width:0;stroke-linecap:butt;stroke-linejoin:miter;stroke-miterlimit:10.43299961;stroke-dasharray:none;stroke-dashoffset:0;stroke-opacity:1"
       id="path16349" />
    <path
       d="M 0.096457825,0.22407065 L 0.10434862,0.21196241 L 0.10557309,0.21250657 C 0.1046207,0.21427525 0.10421259,0.21590778 0.10434862,0.21699619 C 0.10448467,0.21822054 0.10557309,0.22053341 0.10761372,0.2242067 C 0.10979054,0.22788 0.11155916,0.23155327 0.11291961,0.23549864 C 0.11632076,0.23495448 0.11876962,0.2342742 0.12053832,0.23345797 C 0.12230694,0.23250557 0.12366739,0.23141722 0.12448371,0.23005671 C 0.12529996,0.22869623 0.12570806,0.22733575 0.12557203,0.2259753 C 0.12543599,0.2246148 0.1247558,0.22325435 0.1233953,0.22202987 L 0.12502787,0.22134966 C 0.12747678,0.22379857 0.1288372,0.22624738 0.12924532,0.2285602 C 0.1295174,0.23100911 0.12897324,0.23332192 0.12761281,0.23536258 C 0.12652438,0.23699516 0.12502787,0.2383556 0.12312323,0.23944401 C 0.12108248,0.24053242 0.11836149,0.24148481 0.11482425,0.242165 C 0.11564056,0.24583829 0.1157766,0.24896735 0.11536847,0.25141623 C 0.11496037,0.25372905 0.11414405,0.25604185 0.11264752,0.25835468 C 0.11060678,0.26148373 0.10802184,0.26352452 0.10502883,0.26434077 C 0.10189975,0.26515702 0.099178809,0.26488494 0.096593857,0.26338848 C 0.094145,0.26189192 0.092240379,0.25957909 0.090879887,0.25645004 C 0.089383394,0.2533209 0.088839142,0.24869527 0.089247362,0.24257312 C 0.086526394,0.242165 0.084349616,0.24175689 0.082853061,0.24134865 C 0.08122052,0.24080449 0.079723981,0.24026033 0.078499583,0.23944401 C 0.074962267,0.23753937 0.073057677,0.23468239 0.072785597,0.23114514 C 0.072649441,0.22842416 0.073329757,0.22583927 0.074962267,0.22339038 C 0.076458822,0.22107759 0.078363535,0.21958102 0.0808123,0.21903686 C 0.083261188,0.21835664 0.085437966,0.21876477 0.087614713,0.21998925 C 0.089791522,0.22121363 0.091287999,0.22298226 0.0919683,0.22543114 C 0.092648491,0.22774387 0.092784539,0.23128119 0.092512459,0.23604289 C 0.098770682,0.23631496 0.1046207,0.23617892 0.1103347,0.23577071 C 0.10829403,0.22978464 0.10584517,0.22583927 0.10285211,0.2242067 C 0.10189975,0.22352642 0.10081138,0.22339038 0.099722969,0.22352642 C 0.098906729,0.22366246 0.098090412,0.22407065 0.097546253,0.22475086 L 0.096457825,0.22407065 z M 0.11210332,0.24257312 L 0.11155916,0.24257312 L 0.11115103,0.24270916 L 0.11060678,0.24270916 L 0.11019866,0.24270916 L 0.1096545,0.24270916 L 0.10924632,0.24270916 L 0.10883819,0.24284522 L 0.10829403,0.24284522 L 0.1078858,0.24284522 L 0.10747768,0.24284522 L 0.10706956,0.24284522 L 0.10666141,0.24298127 L 0.1062533,0.24298127 L 0.10584517,0.24298127 L 0.10557309,0.24298127 L 0.10516486,0.24298127 L 0.10475675,0.24298127 L 0.10448467,0.2431173 L 0.10407654,0.2431173 L 0.1038044,0.2431173 L 0.10353232,0.2431173 L 0.10312419,0.2431173 L 0.10257994,0.2431173 L 0.10203578,0.2431173 L 0.10149162,0.2431173 L 0.10094741,0.2431173 L 0.1005393,0.2431173 C 0.098090412,0.2431173 0.095369475,0.24298127 0.0919683,0.24270916 C 0.0919683,0.24583829 0.092376411,0.24855922 0.093192651,0.25073595 C 0.094145,0.25291278 0.095641555,0.25454529 0.097682301,0.25576976 C 0.099995049,0.2569942 0.10230786,0.2574023 0.10489278,0.2569942 C 0.10734164,0.25672211 0.10938235,0.25536163 0.11087895,0.25304883 C 0.11169519,0.25182435 0.11223935,0.25059992 0.11237545,0.24910338 C 0.11264752,0.24774294 0.11251148,0.2455662 0.11210332,0.24257312 z M 0.089791522,0.23590674 L 0.089927554,0.23536258 L 0.089927554,0.23468239 L 0.089927554,0.23413816 L 0.089927554,0.233594 L 0.090063602,0.23304973 L 0.090063602,0.23250557 L 0.089927554,0.23209744 L 0.089927554,0.23155327 L 0.089927554,0.23100911 L 0.089791522,0.23060098 L 0.089791522,0.23019274 L 0.089655474,0.22964858 L 0.089519442,0.22924048 L 0.089519442,0.22883229 L 0.089383394,0.22842416 L 0.089247362,0.22801604 C 0.08843103,0.22583927 0.087206601,0.22434273 0.085165886,0.2231183 C 0.083805456,0.22230195 0.082172792,0.22202987 0.080676268,0.22230195 C 0.079179775,0.22271019 0.07795533,0.22339038 0.077139091,0.22475086 C 0.076050694,0.22638343 0.075778615,0.22815207 0.076458822,0.22978464 C 0.077139091,0.23128119 0.078091363,0.23236953 0.079315822,0.23318576 C 0.08026814,0.23373004 0.0814926,0.23413816 0.082989109,0.23454629 C 0.084485664,0.23495448 0.086798474,0.23536258 0.089791522,0.23590674 z "
       style="font-style:normal;font-variant:normal;font-weight:normal;font-stretch:normal;letter-spacing:normal;word-spacing:normal;text-anchor:start;fill:#000000;fill-opacity:1;fill-rule:nonzero;stroke:#231f20;stroke-width:0;stroke-linecap:butt;stroke-linejoin:miter;stroke-miterlimit:10.43299961;stroke-dashoffset:0;stroke-opacity:1"
       id="path16355" />
    <path
       d="M 0.13591168,0.18162378 L 0.15087691,0.16557015 L 0.14012914,0.15672695 C 0.13822456,0.1552305 0.13700009,0.1542781 0.13618377,0.15400602 C 0.13550358,0.15386997 0.13482327,0.15386997 0.13400704,0.15414205 C 0.13278263,0.15455028 0.13196631,0.15509444 0.13114999,0.15591072 L 0.13006167,0.15713519 L 0.12897324,0.15631883 L 0.14285012,0.14148965 L 0.1438025,0.14230596 L 0.14271409,0.14353043 C 0.14189777,0.14434667 0.14135361,0.14529897 0.14121758,0.14638742 C 0.1409455,0.14706761 0.14108154,0.14788392 0.14148966,0.14856412 C 0.14176174,0.14924441 0.14298617,0.15033278 0.14475478,0.15169327 L 0.16883523,0.17155621 C 0.17073986,0.17305269 0.17196433,0.17400507 0.1727806,0.17427715 C 0.17346079,0.17441318 0.17414111,0.17441318 0.17495742,0.1741411 C 0.17604574,0.17373299 0.17699811,0.17318873 0.1778144,0.1723725 L 0.17890281,0.17114809 L 0.17999113,0.17196432 L 0.1661143,0.18679352 L 0.16516192,0.18597727 L 0.16625033,0.18475285 C 0.16761078,0.18339235 0.16801891,0.18189587 0.16788285,0.18053537 C 0.16761078,0.17971907 0.16638638,0.17835854 0.16420965,0.17659 L 0.15291763,0.16720266 L 0.13795235,0.18339235 L 0.14924443,0.19264365 C 0.15101297,0.19427617 0.15250952,0.19509241 0.15318979,0.19536458 C 0.15386998,0.19550063 0.15455028,0.19550063 0.15536652,0.19522855 C 0.15645488,0.19495638 0.15740725,0.19427617 0.15822349,0.19345988 L 0.15931189,0.19223544 L 0.16040031,0.19305177 L 0.14652344,0.20788095 L 0.14557106,0.20720068 L 0.14665947,0.20597623 C 0.14801995,0.20447974 0.14856411,0.20298321 0.14829202,0.20162274 C 0.14801995,0.2008065 0.14693155,0.199446 0.14461874,0.19767733 L 0.12053832,0.17781439 C 0.11876962,0.17631793 0.11740919,0.17536553 0.11659295,0.17509345 C 0.11591263,0.17495742 0.11523244,0.17495742 0.11441613,0.1752295 C 0.11332771,0.17563761 0.11237545,0.17631793 0.11169519,0.17699813 L 0.11047075,0.17822251 L 0.1095184,0.17740625 L 0.12325926,0.16257708 L 0.12434758,0.16339332 L 0.12312323,0.16461775 C 0.12244297,0.16543412 0.12189881,0.16638638 0.12162664,0.16747473 C 0.12135456,0.16829108 0.1214906,0.16897129 0.12189881,0.16965156 C 0.12230694,0.17033175 0.1233953,0.17142016 0.1251639,0.17291666 L 0.13591168,0.18162378 z "
       style="font-style:normal;font-variant:normal;font-weight:normal;font-stretch:normal;letter-spacing:normal;word-spacing:normal;text-anchor:start;fill:#000000;fill-opacity:1;fill-rule:nonzero;stroke:#231f20;stroke-width:0;stroke-linecap:butt;stroke-linejoin:miter;stroke-miterlimit:10.43299961;stroke-dasharray:none;stroke-dashoffset:0;stroke-opacity:1"
       id="path16357" />
    <path
       d="M 0.17536554,0.11482427 L 0.17454923,0.11387199 L 0.18733778,0.10298817 L 0.18829005,0.10394046 L 0.18679352,0.10516488 C 0.18543305,0.10625329 0.18488889,0.10774977 0.18516097,0.10951846 C 0.18529701,0.11047075 0.18624936,0.11183125 0.18815402,0.11373595 L 0.20148669,0.12774885 C 0.20475186,0.13114999 0.2069286,0.13414308 0.20815304,0.13672802 C 0.20924145,0.13917682 0.20937749,0.14203381 0.20842511,0.14516294 C 0.20760888,0.14829203 0.20543205,0.15155713 0.20175876,0.15468634 C 0.19781339,0.15795143 0.19414012,0.15985615 0.19087495,0.16040031 C 0.18747381,0.16080843 0.18434462,0.16026428 0.18148764,0.15876774 C 0.17931094,0.15781539 0.17631792,0.1552305 0.17237247,0.15101297 L 0.15958396,0.13754425 C 0.1575433,0.13550358 0.15591072,0.13427911 0.15468631,0.13414308 C 0.15346187,0.13400703 0.15210139,0.13455119 0.15074088,0.13577567 L 0.14938046,0.13686406 L 0.14856411,0.13591171 L 0.1640736,0.12271507 L 0.16502589,0.12353133 L 0.16366541,0.1247558 C 0.16216885,0.12598024 0.16148866,0.12734073 0.16176075,0.12883722 C 0.16189678,0.12978949 0.16284917,0.13114999 0.1647538,0.13319078 L 0.17903885,0.148156 C 0.18039932,0.1495165 0.18189587,0.15101297 0.18380046,0.15250951 C 0.18584124,0.15386997 0.18747381,0.15495841 0.18924238,0.15536653 C 0.19073891,0.1556386 0.19250762,0.1556386 0.19441219,0.1552305 C 0.19631688,0.15468634 0.19822159,0.15373394 0.19999016,0.15210139 C 0.20243904,0.15006066 0.20407164,0.14774787 0.20502394,0.14516294 C 0.20597621,0.14257803 0.20597621,0.14026519 0.20529602,0.1380885 C 0.20447975,0.13604774 0.20230301,0.13319078 0.1989018,0.12951742 L 0.1855691,0.11550453 C 0.18339234,0.11332771 0.18189587,0.11223939 0.18094348,0.11210336 C 0.17944697,0.1119673 0.17808647,0.11251148 0.17672603,0.11359992 L 0.17536554,0.11482427 z "
       style="font-style:normal;font-variant:normal;font-weight:normal;font-stretch:normal;letter-spacing:normal;word-spacing:normal;text-anchor:start;fill:#000000;fill-opacity:1;fill-rule:nonzero;stroke:#231f20;stroke-width:0;stroke-linecap:butt;stroke-linejoin:miter;stroke-miterlimit:10.43299961;stroke-dasharray:none;stroke-dashoffset:0;stroke-opacity:1"
       id="path16359" />
    <path
       d="M 0.24583828,0.12040228 L 0.2069286,0.098226457 L 0.22543115,0.12380341 C 0.22706366,0.12611628 0.22842416,0.12747678 0.22937651,0.12774885 C 0.23073701,0.12802094 0.2322335,0.12761281 0.23373003,0.12666044 L 0.23522654,0.12570809 L 0.23604289,0.12666044 L 0.2217578,0.13591171 L 0.22094152,0.13482327 L 0.22243809,0.13387097 C 0.22420667,0.13278265 0.22502292,0.13155818 0.22502292,0.13006167 C 0.22502292,0.1291093 0.22420667,0.12774885 0.22271016,0.12557205 L 0.2046158,0.10053931 C 0.20339143,0.098770679 0.20230301,0.097682298 0.20135066,0.097138045 C 0.20067035,0.09686596 0.19985412,0.096729918 0.19876575,0.09686596 C 0.19781339,0.09686596 0.19645291,0.097546245 0.19482032,0.098634647 L 0.19400408,0.097546245 L 0.20570413,0.090063609 L 0.24189292,0.11060678 L 0.23481842,0.071425098 L 0.24624639,0.064078463 L 0.24706276,0.065030833 L 0.24570223,0.065983182 C 0.24393355,0.067071501 0.24298128,0.068432019 0.24298128,0.069792433 C 0.24298128,0.070744834 0.24379752,0.072241342 0.24529404,0.074418115 L 0.26338847,0.099450881 C 0.26515703,0.1017637 0.26651752,0.10312421 0.26746987,0.10326025 C 0.26883039,0.10366837 0.27032686,0.10326025 0.27182341,0.10217182 L 0.27331992,0.10135558 L 0.27400011,0.10230786 L 0.25672209,0.11346376 L 0.25590579,0.11237544 L 0.2574023,0.11142314 C 0.25917093,0.11033469 0.25998719,0.10911027 0.25998719,0.10761374 C 0.25998719,0.10679751 0.25917093,0.10530101 0.25767438,0.10312421 L 0.23917194,0.077547195 L 0.24679055,0.11985805 L 0.24583828,0.12040228 z "
       style="font-style:normal;font-variant:normal;font-weight:normal;font-stretch:normal;letter-spacing:normal;word-spacing:normal;text-anchor:start;fill:#000000;fill-opacity:1;fill-rule:nonzero;stroke:#231f20;stroke-width:0;stroke-linecap:butt;stroke-linejoin:miter;stroke-miterlimit:10.43299961;stroke-dasharray:none;stroke-dashoffset:0;stroke-opacity:1"
       id="path16361" />
    <path
       d="M 0.29876086,0.073737882 L 0.28148274,0.081764688 L 0.2820269,0.089655502 C 0.28216296,0.091560077 0.28243514,0.092920594 0.28284327,0.093736901 C 0.28311535,0.094417103 0.28379562,0.094825313 0.28461186,0.094961355 C 0.28556422,0.09523344 0.28706071,0.094825313 0.28923751,0.094008975 L 0.28991772,0.095097387 L 0.27590481,0.1017637 L 0.27536061,0.10053931 C 0.27699322,0.099314839 0.27808154,0.09836249 0.27835369,0.097682298 C 0.27889785,0.096185758 0.27903389,0.093600869 0.27876181,0.089927577 L 0.27644897,0.048433032 L 0.27740135,0.048024801 L 0.31114119,0.075234359 C 0.31386213,0.077411163 0.31590284,0.07877167 0.31739935,0.079043755 C 0.31875985,0.079451883 0.32039246,0.07931583 0.32229709,0.078499596 L 0.32284125,0.079587946 L 0.30556325,0.087886868 L 0.30488299,0.086662434 C 0.30665157,0.085710054 0.30760394,0.084893768 0.30801207,0.084213576 C 0.30842023,0.083397249 0.30842023,0.082717037 0.30801207,0.082036773 C 0.30760394,0.081084496 0.3063795,0.079860021 0.30447486,0.078363564 L 0.29876086,0.073737882 z M 0.29658397,0.071969649 L 0.28025824,0.05863697 L 0.28134662,0.079044127 L 0.29658397,0.071969649 z "
       style="font-style:normal;font-variant:normal;font-weight:normal;font-stretch:normal;letter-spacing:normal;word-spacing:normal;text-anchor:start;fill:#000000;fill-opacity:1;fill-rule:nonzero;stroke:#231f20;stroke-width:0;stroke-linecap:butt;stroke-linejoin:miter;stroke-miterlimit:10.43299961;stroke-dashoffset:0;stroke-opacity:1"
       id="path16365" />
    <path
       d="M 0.30624345,0.035916607 L 0.31889588,0.031699084 L 0.35943812,0.054827213 L 0.35005081,0.029794479 C 0.34896249,0.027073526 0.34801014,0.025576966 0.34705774,0.025168838 C 0.34596941,0.024488616 0.34447285,0.024488616 0.34256821,0.025168838 L 0.34107169,0.025712998 L 0.34052748,0.024488616 L 0.35685322,0.0190467 L 0.35726136,0.02013506 L 0.35562875,0.020815273 C 0.35358808,0.021495557 0.35249966,0.022447906 0.35195551,0.023808424 C 0.35168338,0.024624668 0.35209155,0.02639321 0.35304392,0.028842109 L 0.36692081,0.065711035 L 0.36569633,0.065983182 L 0.32188897,0.041086418 L 0.33209252,0.067887859 C 0.33304487,0.070608802 0.33399715,0.072241342 0.3348135,0.07264947 C 0.33603788,0.073329754 0.33753443,0.073329754 0.33930303,0.07264947 L 0.34107169,0.07210531 L 0.3414798,0.073329754 L 0.32529011,0.07877167 L 0.32474595,0.077547195 L 0.32637855,0.077003036 C 0.32841922,0.076458814 0.32964366,0.075370402 0.33005183,0.074009956 C 0.33018786,0.073057669 0.32991579,0.071425098 0.32896347,0.068976199 L 0.31753538,0.03863754 C 0.31563077,0.03754922 0.31427024,0.036868905 0.31331794,0.036732862 C 0.3125017,0.036460777 0.31127722,0.036324745 0.30978072,0.036324745 C 0.30910043,0.036460777 0.30801207,0.03659683 0.30665157,0.03714099 L 0.30624345,0.035916607 z "
       style="font-style:normal;font-variant:normal;font-weight:normal;font-stretch:normal;letter-spacing:normal;word-spacing:normal;text-anchor:start;fill:#000000;fill-opacity:1;fill-rule:nonzero;stroke:#231f20;stroke-width:0;stroke-linecap:butt;stroke-linejoin:miter;stroke-miterlimit:10.43299961;stroke-dasharray:none;stroke-dashoffset:0;stroke-opacity:1"
       id="path16367" />
    <path
       d="M 0.41793863,0.005169836 L 0.42106781,0.020815273 L 0.41970723,0.02108744 C 0.41875495,0.01809433 0.4175305,0.015917615 0.41603402,0.014285028 C 0.41453748,0.012788442 0.41263273,0.011564091 0.41032003,0.010883822 C 0.40814321,0.010203614 0.40596643,0.010067489 0.4037897,0.010475694 C 0.40120476,0.010883822 0.39930018,0.01210825 0.39793967,0.013740837 C 0.39657919,0.015509379 0.39617098,0.017278096 0.39657919,0.0190467 C 0.39685127,0.020407145 0.39753148,0.0216316 0.39889194,0.022583949 C 0.4006606,0.023944456 0.40460594,0.025576966 0.41072816,0.027345601 C 0.41576194,0.028842109 0.41916307,0.030066554 0.42106781,0.031018892 C 0.42297241,0.031971251 0.42460499,0.033059571 0.42582942,0.034692235 C 0.42705388,0.03605267 0.42787016,0.037821305 0.42827828,0.039589889 C 0.42895848,0.042991116 0.42814225,0.046256259 0.42582942,0.049249275 C 0.42338051,0.052242323 0.41997939,0.054147021 0.4156258,0.054963256 C 0.41412929,0.055235402 0.41290482,0.055371445 0.41154441,0.055371445 C 0.41072816,0.055507477 0.40923161,0.055371445 0.40664669,0.054963256 C 0.40419783,0.054691181 0.40270132,0.054555128 0.40202111,0.054691181 C 0.40147685,0.054827213 0.40106872,0.05509937 0.40079663,0.055507477 C 0.40052454,0.055915605 0.4003885,0.05659592 0.40052454,0.057684239 L 0.39916402,0.057956335 L 0.39589891,0.042310831 L 0.3972594,0.042038746 C 0.39861986,0.045303859 0.39984434,0.047480641 0.40134079,0.04897719 C 0.40270132,0.050473699 0.40446991,0.051562111 0.40691876,0.052106271 C 0.40923161,0.052922556 0.41168047,0.052922556 0.4142654,0.05251445 C 0.41725841,0.051970238 0.41943515,0.050881826 0.42093165,0.04897719 C 0.42229218,0.047208556 0.42283635,0.045303859 0.42242821,0.04326319 C 0.42215613,0.042174778 0.42161197,0.041086418 0.42065958,0.039998006 C 0.41984334,0.039045729 0.41861891,0.03809338 0.41698629,0.037413178 C 0.41589797,0.036868905 0.41317702,0.035916607 0.40855133,0.034556079 C 0.40392575,0.033059571 0.40052454,0.031835126 0.39861986,0.030882839 C 0.39657919,0.029930521 0.39494657,0.028706067 0.39372213,0.027345601 C 0.39249776,0.025849051 0.39168146,0.024216541 0.39127333,0.022311791 C 0.39072907,0.0190467 0.39140938,0.016053662 0.39358608,0.013196678 C 0.39576286,0.010339662 0.39902799,0.0085709961 0.40310943,0.0077547567 C 0.40569435,0.0073465519 0.40855133,0.0074826769 0.41168047,0.0081628841 C 0.41304097,0.008434964 0.41412929,0.0085709961 0.41467353,0.008434964 C 0.41521768,0.0082989163 0.41576194,0.0080268365 0.41617005,0.0076187245 C 0.4163061,0.0072105042 0.41657818,0.0065303124 0.41657818,0.0053058837 L 0.41793863,0.005169836 z "
       style="font-style:normal;font-variant:normal;font-weight:normal;font-stretch:normal;letter-spacing:normal;word-spacing:normal;text-anchor:start;fill:#000000;fill-opacity:1;fill-rule:nonzero;stroke:#231f20;stroke-width:0;stroke-linecap:butt;stroke-linejoin:miter;stroke-miterlimit:10.43299961;stroke-dasharray:none;stroke-dashoffset:0;stroke-opacity:1"
       id="path16369" />
    <path
       d="M 0.4462366,0.0053058837 L 0.44786914,0.023536225 L 0.45875296,0.022583949 C 0.46160994,0.022447906 0.46337861,0.021767632 0.46419486,0.020951305 C 0.46541933,0.019862986 0.46596349,0.017958288 0.46582746,0.015509379 L 0.46718787,0.015373347 L 0.46868451,0.031290967 L 0.46732403,0.031426999 C 0.46691579,0.029114194 0.46637163,0.027753718 0.46596349,0.027209558 C 0.46541933,0.02639321 0.46473914,0.025849051 0.4636507,0.025440923 C 0.46256232,0.025168838 0.46106578,0.025032775 0.45902505,0.025168838 L 0.44814121,0.026121125 L 0.44963775,0.041358492 C 0.44990988,0.043399243 0.45004591,0.044623667 0.450318,0.045031784 C 0.45059007,0.045439911 0.45086216,0.045712099 0.45140641,0.045984174 C 0.45195057,0.046120227 0.45276689,0.046256259 0.45426344,0.046120227 L 0.46256232,0.045439911 C 0.4652833,0.045167826 0.46718787,0.044895752 0.46841235,0.044351592 C 0.46963677,0.043943403 0.47072518,0.043127158 0.47181356,0.041902704 C 0.47317404,0.040406226 0.47453452,0.038229412 0.47589503,0.035236395 L 0.47739149,0.035100363 L 0.47426244,0.047072524 L 0.43644117,0.050201624 L 0.43630512,0.04897719 L 0.43807374,0.048705117 C 0.4391621,0.048705117 0.44025051,0.048297 0.44133883,0.047752716 C 0.44201911,0.047344609 0.44242721,0.046664387 0.4426993,0.045984174 C 0.44283534,0.045167826 0.44283534,0.043671318 0.4426993,0.041494586 L 0.43984229,0.011427981 C 0.43943419,0.008434964 0.43902606,0.0066663446 0.43834581,0.006122185 C 0.43739353,0.0053058837 0.43589693,0.0048977562 0.43385622,0.005169836 L 0.43208767,0.0053058837 L 0.43208767,0.0039453608 L 0.46990886,0.00081631146 L 0.47140544,0.010883822 L 0.46990886,0.011019854 C 0.46922867,0.0087070438 0.46854839,0.0069384244 0.46773216,0.006122185 C 0.46705184,0.0053058837 0.46609955,0.004625568 0.46487517,0.0042174406 C 0.46378674,0.0040814084 0.46215419,0.0040814084 0.45970533,0.0042174406 L 0.4462366,0.0053058837 z "
       style="font-style:normal;font-variant:normal;font-weight:normal;font-stretch:normal;letter-spacing:normal;word-spacing:normal;text-anchor:start;fill:#000000;fill-opacity:1;fill-rule:nonzero;stroke:#231f20;stroke-width:0;stroke-linecap:butt;stroke-linejoin:miter;stroke-miterlimit:10.43299961;stroke-dasharray:none;stroke-dashoffset:0;stroke-opacity:1"
       id="path16371" />
    <path
       d="M 0.53072224,0.047208556 L 0.51752556,0.047072524 L 0.50119985,0.025032775 C 0.50011153,0.025032775 0.49902309,0.025032775 0.49834287,0.025032775 C 0.49793474,0.025032775 0.49766267,0.025032775 0.49739058,0.025032775 C 0.49698235,0.024896743 0.49657424,0.024896743 0.49630216,0.024896743 L 0.49603008,0.038501497 C 0.49589403,0.041358492 0.49616611,0.043127158 0.49684632,0.043943403 C 0.49779871,0.044895752 0.49915913,0.045439911 0.50092776,0.045439911 L 0.50283249,0.045439911 L 0.50283249,0.046800419 L 0.48188109,0.046392302 L 0.48188109,0.045031784 L 0.48364975,0.045167826 C 0.48569042,0.045167826 0.48718696,0.044623667 0.48813927,0.043399243 C 0.48868343,0.042718938 0.48895551,0.040950386 0.48895551,0.038365465 L 0.48949979,0.0082989163 C 0.48963582,0.0054419158 0.48936375,0.0035372488 0.48868343,0.0028570261 C 0.48773116,0.0019046307 0.48637073,0.0013604711 0.48460203,0.0013604711 L 0.48269738,0.0012244234 L 0.48269738,-5.3542297e-09 L 0.50065569,0.00027207445 C 0.50582551,0.00040812209 0.50963483,0.00081631146 0.51208367,0.0016325509 C 0.51453255,0.0023128665 0.51670932,0.003673281 0.51834188,0.0057139956 C 0.52011051,0.0076187245 0.52079074,0.0099314416 0.52079074,0.012516362 C 0.52079074,0.015509379 0.51970239,0.017822255 0.51766161,0.019999028 C 0.51575696,0.022039717 0.51262789,0.023400193 0.50841045,0.024216541 L 0.51834188,0.037685252 C 0.52065468,0.040814333 0.52255937,0.042855084 0.52419191,0.043943403 C 0.52596058,0.045031784 0.52813731,0.045576067 0.53072224,0.045984174 L 0.53072224,0.047208556 z M 0.49630216,0.022719981 L 0.49643819,0.022719981 L 0.49657424,0.022719981 L 0.49671027,0.022719981 L 0.49684632,0.022719981 L 0.49698235,0.022719981 L 0.49698235,0.022719981 L 0.4971184,0.022719981 L 0.4971184,0.022719981 L 0.49725443,0.022719981 L 0.49725443,0.022719981 L 0.49739058,0.022719981 L 0.49739058,0.022719981 L 0.49752664,0.022719981 C 0.49779871,0.022856034 0.4980708,0.022856034 0.49820683,0.022856034 C 0.50283249,0.022856034 0.50636967,0.022039717 0.50881858,0.02013506 C 0.51113138,0.018230362 0.51235581,0.015781583 0.51249186,0.012924598 C 0.51249186,0.0099314416 0.51153951,0.0076187245 0.50977087,0.0057139956 C 0.50786618,0.0039453608 0.50541738,0.0029930583 0.50228824,0.0028570261 C 0.50092776,0.0028570261 0.49902309,0.0031291059 0.49671027,0.0035372488 L 0.49630216,0.022719981 z "
       style="font-style:normal;font-variant:normal;font-weight:normal;font-stretch:normal;letter-spacing:normal;word-spacing:normal;text-anchor:start;fill:#000000;fill-opacity:1;fill-rule:evenodd;stroke:#231f20;stroke-width:0;stroke-linecap:butt;stroke-linejoin:miter;stroke-miterlimit:10.43299961;stroke-dashoffset:0;stroke-opacity:1"
       id="path16375" />
    <path
       d="M 0.58282847,0.0068023922 L 0.58269244,0.0080268365 C 0.58092383,0.0081628841 0.57956338,0.0085709961 0.57861101,0.0091152022 C 0.5771145,0.010067489 0.57575399,0.011700123 0.5745296,0.013876885 L 0.55235385,0.051154004 L 0.55099332,0.050881826 L 0.53793271,0.0091152022 C 0.53725252,0.0069384244 0.53670836,0.0057139956 0.53643623,0.005169836 C 0.53589207,0.0043534882 0.53521177,0.0038093286 0.53439553,0.0032651381 C 0.53357923,0.0027209785 0.53249078,0.0023128665 0.53099433,0.0020407867 L 0.53113037,0.00081631146 L 0.55112938,0.0031291059 L 0.55099332,0.0043534882 C 0.54881653,0.0043534882 0.54732004,0.0044895204 0.5465038,0.0050338039 C 0.54582351,0.0054419158 0.54541539,0.0059860754 0.54527935,0.0068023922 C 0.54514331,0.0080268365 0.54541539,0.0097954094 0.54623172,0.01238033 L 0.55507478,0.040678301 L 0.57004002,0.015509379 C 0.57153653,0.012924598 0.57235285,0.011155901 0.57248888,0.010203614 C 0.57262494,0.0095233296 0.57235285,0.0088431224 0.57167259,0.0081628841 C 0.57112843,0.0074826769 0.56990396,0.0069384244 0.56840748,0.0065303124 C 0.56813541,0.0065303124 0.56799936,0.0063942648 0.56772719,0.0062582326 L 0.56786323,0.0050338039 L 0.58282847,0.0068023922 z "
       style="font-style:normal;font-variant:normal;font-weight:normal;font-stretch:normal;letter-spacing:normal;word-spacing:normal;text-anchor:start;fill:#000000;fill-opacity:1;fill-rule:nonzero;stroke:#231f20;stroke-width:0;stroke-linecap:butt;stroke-linejoin:miter;stroke-miterlimit:10.43299961;stroke-dasharray:none;stroke-dashoffset:0;stroke-opacity:1"
       id="path16377" />
    <path
       d="M 0.60092291,0.056868005 L 0.60051469,0.05822842 L 0.58010754,0.054010969 L 0.58037967,0.052786524 L 0.58201224,0.053058609 C 0.58405291,0.053466716 0.58554946,0.053194641 0.58677384,0.052378397 C 0.58745415,0.051698164 0.58813437,0.050065592 0.58867859,0.047344609 L 0.59534497,0.017958288 C 0.59588913,0.015645535 0.5961612,0.014148965 0.59602516,0.013332726 C 0.59588913,0.012788442 0.595481,0.012244282 0.59493673,0.011700123 C 0.59398444,0.010883822 0.59289606,0.010475694 0.59180765,0.010203614 L 0.59003908,0.0099314416 L 0.5904472,0.0087070438 L 0.61099038,0.012788442 L 0.61058227,0.014012917 L 0.60894971,0.013740837 C 0.60690898,0.013332726 0.60541243,0.013468758 0.60432403,0.01442106 C 0.6035078,0.01496522 0.60282751,0.016733854 0.60228335,0.019318774 L 0.59561704,0.048841158 C 0.59507276,0.051017951 0.59493673,0.052650482 0.59493673,0.053330684 C 0.59507276,0.054010969 0.595481,0.054555128 0.5961612,0.05509937 C 0.59697746,0.055779562 0.5980659,0.056323722 0.59915422,0.05659592 L 0.60092291,0.056868005 z "
       style="font-style:normal;font-variant:normal;font-weight:normal;font-stretch:normal;letter-spacing:normal;word-spacing:normal;text-anchor:start;fill:#000000;fill-opacity:1;fill-rule:nonzero;stroke:#231f20;stroke-width:0;stroke-linecap:butt;stroke-linejoin:miter;stroke-miterlimit:10.43299961;stroke-dasharray:none;stroke-dashoffset:0;stroke-opacity:1"
       id="path16379" />
    <path
       d="M 0.66064788,0.025032775 L 0.65683848,0.040406226 L 0.65575012,0.039998006 C 0.65575012,0.035100363 0.65479774,0.031290967 0.65275707,0.028570035 C 0.65085238,0.025849051 0.64785931,0.023944456 0.6441861,0.022856034 C 0.64105689,0.022039717 0.63806388,0.021903685 0.63507085,0.022719981 C 0.63207783,0.023536225 0.62935685,0.025304891 0.62677194,0.028161907 C 0.62432307,0.031018892 0.62228232,0.03496432 0.62064978,0.039725921 C 0.6194253,0.04380735 0.61901718,0.047480641 0.6194253,0.050745784 C 0.61983355,0.054147021 0.621194,0.057004037 0.62337073,0.059316863 C 0.62554752,0.061629606 0.62840454,0.063398261 0.63194178,0.064350548 C 0.63507085,0.065302907 0.63792785,0.06543896 0.64064879,0.064758748 C 0.64336977,0.064214495 0.64663486,0.062581975 0.65058029,0.05972497 L 0.6515326,0.060677318 C 0.64785931,0.063942421 0.6441861,0.065983182 0.6403767,0.066935469 C 0.63670342,0.067887859 0.63262199,0.067751817 0.62840454,0.066527341 C 0.62051374,0.064350548 0.61547994,0.059861022 0.61289504,0.053194641 C 0.61099038,0.048160844 0.61099038,0.042855084 0.61275901,0.037413178 C 0.61411945,0.032923539 0.61656832,0.029250319 0.61983355,0.026121125 C 0.62309866,0.022992066 0.62690799,0.020951305 0.63126152,0.019999028 C 0.63561501,0.018910668 0.63996857,0.0190467 0.64432213,0.020271113 C 0.64772328,0.021359525 0.65085238,0.022992066 0.65357331,0.025576966 C 0.65438963,0.02639321 0.65493379,0.026801441 0.65547804,0.026937473 C 0.6560222,0.027073526 0.65656641,0.026937473 0.6572466,0.026665399 C 0.65806293,0.026257158 0.65874314,0.025576966 0.65928736,0.024624668 L 0.66064788,0.025032775 z "
       style="font-style:normal;font-variant:normal;font-weight:normal;font-stretch:normal;letter-spacing:normal;word-spacing:normal;text-anchor:start;fill:#000000;fill-opacity:1;fill-rule:nonzero;stroke:#231f20;stroke-width:0;stroke-linecap:butt;stroke-linejoin:miter;stroke-miterlimit:10.43299961;stroke-dasharray:none;stroke-dashoffset:0;stroke-opacity:1"
       id="path16381" />
    <path
       d="M 0.68336779,0.037277146 L 0.67588518,0.054147021 L 0.68581665,0.058092387 C 0.68840157,0.05918081 0.69030617,0.059452895 0.69153064,0.059044654 C 0.69302715,0.058636547 0.6945237,0.05714008 0.69574808,0.054827213 L 0.69697255,0.055371445 L 0.69030617,0.070064642 L 0.68908182,0.069656401 C 0.68962598,0.067479732 0.68989807,0.065983182 0.68989807,0.065302907 C 0.68976201,0.064350548 0.68948994,0.063534304 0.68867365,0.062718018 C 0.68799346,0.062037816 0.68663296,0.061221478 0.68486426,0.060405182 L 0.67479679,0.056459878 L 0.66853854,0.070608802 C 0.66758626,0.072377385 0.66731414,0.073601829 0.66717809,0.07414604 C 0.66717809,0.074554168 0.66731414,0.074962275 0.66772229,0.075506527 C 0.66799438,0.075914654 0.66881071,0.076322772 0.67003508,0.076867003 L 0.67778984,0.079860021 C 0.6802387,0.080812297 0.68227947,0.081356581 0.68350384,0.081492613 C 0.68486426,0.081628655 0.68622477,0.081492613 0.68772128,0.080948453 C 0.68962598,0.080132106 0.69193883,0.07877167 0.69465976,0.076730899 L 0.69602027,0.077275121 L 0.68731316,0.086390359 L 0.65234896,0.072513417 L 0.65289312,0.071288993 L 0.65452566,0.07210531 C 0.65561407,0.072377385 0.65670244,0.072513417 0.6579269,0.072513417 C 0.65874314,0.072513417 0.6594234,0.07210531 0.65996756,0.071561151 C 0.66051184,0.071016908 0.66119204,0.069656401 0.66228038,0.067615784 L 0.67466076,0.039725921 C 0.67588518,0.03714099 0.6762933,0.035372448 0.67602122,0.034420047 C 0.67561311,0.033331728 0.67452471,0.032379379 0.67262001,0.031563052 L 0.67098743,0.031018892 L 0.67153169,0.029794479 L 0.70649586,0.043671318 L 0.70282264,0.053330684 L 0.70146217,0.052786524 C 0.70200633,0.050337667 0.70214236,0.048569085 0.70200633,0.047480641 C 0.70187029,0.046392302 0.70132604,0.045439911 0.70037376,0.044623667 C 0.69955747,0.043943403 0.69806093,0.043127158 0.69588423,0.042174778 L 0.68336779,0.037277146 z "
       style="font-style:normal;font-variant:normal;font-weight:normal;font-stretch:normal;letter-spacing:normal;word-spacing:normal;text-anchor:start;fill:#000000;fill-opacity:1;fill-rule:nonzero;stroke:#231f20;stroke-width:0;stroke-linecap:butt;stroke-linejoin:miter;stroke-miterlimit:10.43299961;stroke-dasharray:none;stroke-dashoffset:0;stroke-opacity:1"
       id="path16383" />
    <path
       d="M 0.74717415,0.06230989 L 0.73914731,0.076458814 L 0.73792293,0.075778612 C 0.73901128,0.072921637 0.73955554,0.070336717 0.73955554,0.068295976 C 0.73941951,0.066255256 0.7387392,0.064214495 0.73737877,0.06230989 C 0.73615429,0.060405182 0.73452175,0.059044654 0.732481,0.057956335 C 0.73030427,0.056868005 0.72799142,0.05659592 0.72581475,0.05714008 C 0.72363792,0.057684239 0.7221414,0.058772579 0.72118906,0.060405182 C 0.72050887,0.061629606 0.72037283,0.062990103 0.72064491,0.06448658 C 0.72118906,0.066663384 0.72309376,0.070336717 0.72663099,0.075370402 C 0.72962401,0.079451883 0.73139268,0.082444962 0.73234497,0.084213576 C 0.73316126,0.086118181 0.73356937,0.0880229 0.73356937,0.089791535 C 0.73343334,0.091696119 0.73302521,0.093600869 0.7320729,0.095097387 C 0.73030427,0.098226457 0.72758329,0.10026723 0.72363792,0.10121952 C 0.71982858,0.10217182 0.71588321,0.10162766 0.71193778,0.099586913 C 0.71071337,0.099042754 0.70948902,0.098226457 0.70853664,0.097546245 C 0.70785636,0.097138045 0.70676805,0.096049726 0.7049994,0.09428106 C 0.7033668,0.09264852 0.70214236,0.091696119 0.7015982,0.091424044 C 0.70105395,0.091151959 0.70064584,0.091015917 0.70010169,0.091287992 C 0.69955747,0.091287992 0.69914935,0.091832275 0.69833302,0.09264852 L 0.69710859,0.09210436 L 0.70527147,0.078091355 L 0.70635981,0.078635638 C 0.70527147,0.08190074 0.70472732,0.084485661 0.70486335,0.086390359 C 0.7049994,0.088294974 0.70567962,0.090335694 0.70704013,0.092240392 C 0.70840061,0.094145028 0.71030525,0.0957776 0.71261807,0.09686596 C 0.71520302,0.098226457 0.71778791,0.098634647 0.71996462,0.098090405 C 0.72227744,0.097546245 0.72404605,0.096321801 0.72513443,0.094553228 C 0.72567859,0.093600869 0.7259508,0.092376435 0.7259508,0.091015917 C 0.7259508,0.089791535 0.72554256,0.088294974 0.72486236,0.086798466 C 0.72431813,0.085846107 0.7228216,0.083397249 0.72023671,0.079587946 C 0.71765175,0.07564258 0.71574718,0.072785595 0.71493093,0.070880876 C 0.71397854,0.068840167 0.71357042,0.066935469 0.71357042,0.065166875 C 0.71357042,0.063262229 0.71397854,0.061629606 0.71493093,0.059861022 C 0.71669948,0.057004037 0.71928442,0.05509937 0.72295764,0.054147021 C 0.72649496,0.053194641 0.73016824,0.053738894 0.73384145,0.055507477 C 0.73615429,0.056731952 0.73833107,0.058500494 0.74037179,0.060949403 C 0.7411881,0.062037816 0.7418683,0.062718018 0.74241255,0.06285405 C 0.74295671,0.063262229 0.74350087,0.063262229 0.74404507,0.063126135 C 0.74458923,0.062990103 0.74526953,0.062581975 0.74594973,0.061765638 L 0.74717415,0.06230989 z "
       style="font-style:normal;font-variant:normal;font-weight:normal;font-stretch:normal;letter-spacing:normal;word-spacing:normal;text-anchor:start;fill:#000000;fill-opacity:1;fill-rule:nonzero;stroke:#231f20;stroke-width:0;stroke-linecap:butt;stroke-linejoin:miter;stroke-miterlimit:10.43299961;stroke-dasharray:none;stroke-dashoffset:0;stroke-opacity:1"
       id="path16385" />
    <path
       d="M 0.82145625,0.11414408 L 0.8222725,0.11305564 L 0.83560523,0.12325925 L 0.83478899,0.12434757 L 0.83342847,0.12325925 C 0.83193187,0.12203487 0.83029934,0.12176279 0.82839469,0.12230695 C 0.82757838,0.12257903 0.82621787,0.12366738 0.82444932,0.12570809 L 0.81193291,0.14026519 C 0.80880383,0.14393856 0.80608289,0.14638742 0.80363399,0.14788392 C 0.8010491,0.14924441 0.79819209,0.14978857 0.79465484,0.1495165 C 0.79125371,0.14938044 0.78758035,0.14774787 0.78377103,0.14475479 C 0.77955354,0.14162568 0.77696862,0.13849663 0.77601628,0.13550358 C 0.77506401,0.13251046 0.77506401,0.12951742 0.77615233,0.1265244 C 0.77696862,0.12448373 0.77914541,0.12121852 0.78295466,0.11686503 L 0.79506297,0.10285214 C 0.79696768,0.10067536 0.79792002,0.098906721 0.79778392,0.09781833 C 0.79778392,0.096593886 0.79710373,0.095505515 0.79560719,0.094417103 L 0.79424673,0.093328784 L 0.79506297,0.092376435 L 0.81138869,0.10475675 L 0.81057244,0.10570913 L 0.8090759,0.10462072 C 0.80757943,0.10353233 0.80608289,0.10312421 0.80458627,0.10353233 C 0.80363399,0.10380441 0.80227357,0.10502884 0.80050486,0.10693354 L 0.78690011,0.12271507 C 0.78581179,0.12407549 0.7844513,0.12570809 0.78322687,0.12774885 C 0.7820024,0.12978949 0.78118612,0.13155818 0.78105009,0.13319078 C 0.78091405,0.13468724 0.78118612,0.13631983 0.7820024,0.1380885 C 0.78268259,0.13972103 0.78417914,0.14135361 0.78608387,0.14271408 C 0.78853273,0.14475479 0.79125371,0.14584313 0.79411068,0.14638742 C 0.79696768,0.14679552 0.79941654,0.14652345 0.80159326,0.14543502 C 0.80363399,0.14448272 0.80635497,0.14203381 0.80962006,0.1380885 L 0.8222725,0.12353133 C 0.82417724,0.12135456 0.82512953,0.11972202 0.82499348,0.11876964 C 0.82499348,0.11740919 0.82431329,0.11632087 0.82281673,0.11509643 L 0.82145625,0.11414408 z "
       style="font-style:normal;font-variant:normal;font-weight:normal;font-stretch:normal;letter-spacing:normal;word-spacing:normal;text-anchor:start;fill:#000000;fill-opacity:1;fill-rule:nonzero;stroke:#231f20;stroke-width:0;stroke-linecap:butt;stroke-linejoin:miter;stroke-miterlimit:10.43299961;stroke-dasharray:none;stroke-dashoffset:0;stroke-opacity:1"
       id="path16387" />
    <path
       d="M 0.86526362,0.14938044 L 0.85315534,0.16067238 L 0.85220302,0.15985615 C 0.85424375,0.15740727 0.85546819,0.15509444 0.85601235,0.15305373 C 0.85655663,0.15101297 0.85655663,0.14897234 0.85587631,0.14679552 C 0.8551961,0.14461875 0.85410772,0.14285012 0.85247515,0.14135361 C 0.85070648,0.139585 0.84866581,0.13876872 0.84635301,0.13876872 C 0.84417618,0.13863266 0.84227153,0.13931288 0.84091108,0.14053727 C 0.83982267,0.14162568 0.83927851,0.14285012 0.83914247,0.14434667 C 0.83887038,0.14652345 0.83982267,0.15060486 0.84159133,0.15631883 C 0.8432239,0.16108051 0.84404013,0.16448172 0.84431229,0.16638638 C 0.84458437,0.16842713 0.84444832,0.17033175 0.84376806,0.17210042 C 0.8432239,0.17400507 0.84213549,0.17550158 0.84077504,0.17686209 C 0.83805409,0.17931095 0.83478899,0.18053537 0.83084355,0.18039934 C 0.82689818,0.18026329 0.82336089,0.17876667 0.82009577,0.17563761 C 0.81914345,0.17468526 0.81819107,0.17373299 0.81751088,0.17278061 C 0.81710275,0.17223645 0.81628644,0.170876 0.815198,0.16869921 C 0.81397362,0.1666585 0.81315738,0.16543412 0.81274914,0.16502588 C 0.81234104,0.16461775 0.81193291,0.16448172 0.81138869,0.16448172 C 0.81084453,0.16448172 0.81016432,0.1647538 0.80921196,0.16543412 L 0.80825962,0.16448172 L 0.82009577,0.15318978 L 0.82104815,0.15414205 C 0.81914345,0.15699904 0.81778295,0.1593119 0.81737483,0.16121659 C 0.8168306,0.16298521 0.81696672,0.16516191 0.81764691,0.16733869 C 0.81846324,0.16951551 0.81968765,0.17155621 0.82159231,0.17332477 C 0.82376913,0.17536553 0.82594578,0.17631793 0.82839469,0.17645397 C 0.83070751,0.17659 0.83274819,0.17577365 0.8342447,0.17427715 C 0.83506107,0.17359694 0.83574126,0.17250853 0.8361494,0.17128413 C 0.83655753,0.16992364 0.83655753,0.16856317 0.83642148,0.16679453 C 0.83628545,0.16570619 0.83546918,0.16298521 0.83410867,0.1586317 C 0.83274819,0.1542781 0.83193187,0.15101297 0.83165978,0.14883619 C 0.83138771,0.14679552 0.83152375,0.14475479 0.832068,0.14312219 C 0.83261216,0.14135361 0.83370054,0.13985708 0.83506107,0.13836059 C 0.83764596,0.13604774 0.84063901,0.13495932 0.84444832,0.13495932 C 0.84812155,0.13509535 0.85152282,0.1365919 0.85451584,0.13931288 C 0.85628442,0.14108152 0.85791704,0.14339427 0.85900536,0.14611521 C 0.85954965,0.14747573 0.86009381,0.14829203 0.86050191,0.14870016 C 0.8609101,0.14910837 0.86145426,0.14938044 0.86199851,0.14938044 C 0.86240664,0.14938044 0.86322293,0.14910837 0.8641752,0.14842808 L 0.86526362,0.14938044 z "
       style="font-style:normal;font-variant:normal;font-weight:normal;font-stretch:normal;letter-spacing:normal;word-spacing:normal;text-anchor:start;fill:#000000;fill-opacity:1;fill-rule:nonzero;stroke:#231f20;stroke-width:0;stroke-linecap:butt;stroke-linejoin:miter;stroke-miterlimit:10.43299961;stroke-dasharray:none;stroke-dashoffset:0;stroke-opacity:1"
       id="path16389" />
    <path
       d="M 0.86961711,0.20298321 L 0.85737286,0.18897029 L 0.84934603,0.19114712 C 0.84730531,0.19169128 0.84594488,0.19223544 0.84526457,0.19277969 C 0.84472041,0.19332385 0.84444832,0.19400409 0.84444832,0.19482032 C 0.84444832,0.19563666 0.84512853,0.19699714 0.84648904,0.19890181 L 0.84540061,0.19958203 L 0.83560523,0.18829007 L 0.83669356,0.18747383 C 0.83819012,0.18883425 0.83941454,0.18937841 0.84023088,0.18951445 C 0.84199945,0.18978664 0.84472041,0.18937841 0.84839374,0.18829007 L 0.89084058,0.17686209 L 0.89152077,0.17767835 L 0.87070553,0.21468336 C 0.86907295,0.21767638 0.86825667,0.2198532 0.86825667,0.22121363 C 0.86812064,0.22271019 0.86866482,0.2242067 0.86988918,0.22570322 L 0.86880086,0.2265195 L 0.85655663,0.21237052 L 0.8575089,0.21155428 C 0.85886933,0.21291476 0.85995775,0.21373099 0.8609101,0.21386703 C 0.86172635,0.21400308 0.86240664,0.21386703 0.86308683,0.21345892 C 0.86390312,0.21277864 0.8648555,0.21141813 0.86607993,0.2093775 L 0.86961711,0.20298321 z M 0.8709775,0.20053476 L 0.88104503,0.18257646 L 0.86022972,0.18829046 L 0.8709775,0.20053476 z "
       style="font-style:normal;font-variant:normal;font-weight:normal;font-stretch:normal;letter-spacing:normal;word-spacing:normal;text-anchor:start;fill:#000000;fill-opacity:1;fill-rule:nonzero;stroke:#231f20;stroke-width:0;stroke-linecap:butt;stroke-linejoin:miter;stroke-miterlimit:10.43299961;stroke-dashoffset:0;stroke-opacity:1"
       id="path16393" />
    <path
       d="M 0.94675623,0.39875591 L 0.9466202,0.39889196 L 0.9466202,0.39889196 L 0.94648415,0.399028 L 0.94634811,0.39916404 L 0.94607592,0.39930016 L 0.94580383,0.39957225 L 0.94553176,0.39984432 L 0.94512364,0.40011641 L 0.94430737,0.40079666 L 0.94335497,0.40174893 L 0.94213062,0.40270131 L 0.9409062,0.40378969 L 0.93940961,0.40501416 L 0.93791309,0.40623855 L 0.93614449,0.40773511 L 0.93437586,0.40923162 L 0.93247116,0.41072816 L 0.93043049,0.41236068 L 0.92838975,0.41412928 L 0.92621302,0.415898 L 0.92390017,0.41766654 L 0.92158734,0.41957121 L 0.91913855,0.42147593 L 0.91682573,0.42338054 L 0.91179195,0.42718994 L 0.90662211,0.43099925 L 0.90158836,0.4348086 L 0.89641854,0.43834582 L 0.89396968,0.44011449 L 0.89138474,0.44174703 L 0.88893589,0.4433796 L 0.88662314,0.44501213 C 0.85982172,0.46174597 0.73955554,0.52568846 0.71289014,0.54772821 C 0.68608873,0.56976793 0.68717712,0.58854254 0.68717712,0.58854254 L 0.68282363,0.64309768 C 0.68282363,0.64309768 0.66608977,0.65996757 0.66391298,0.66622582 C 0.6617362,0.67248397 0.67506887,0.67357233 0.6850003,0.67874214 C 0.69506788,0.68404804 0.68309571,0.6888097 0.68717712,0.69357141 C 0.69506788,0.70241447 0.70119,0.69520393 0.69588423,0.71030526 C 0.69506788,0.71261809 0.70255049,0.71969253 0.70173426,0.72363795 C 0.70037376,0.72989615 0.69697255,0.73411364 0.70282264,0.73969158 C 0.70948902,0.74594974 0.73098448,0.75656148 0.78023385,0.74649396 C 0.83370054,0.73547411 0.86880086,0.77710464 0.89546622,0.78417913 C 0.90458143,0.786492 0.93478398,0.79601531 0.98240072,0.75901037 C 1.0029439,0.74309276 0.9697483,0.75751383 0.92213162,0.73751481 C 0.87138581,0.71629138 0.85614839,0.71493093 0.82200041,0.72132512 C 0.79275018,0.72676703 0.77111856,0.73152874 0.75969056,0.72812748 C 0.74989509,0.72513446 0.75805798,0.71057734 0.75071145,0.70812852 C 0.73601826,0.70323077 0.74608577,0.69615631 0.73737877,0.69139461 C 0.72853569,0.68649691 0.73370542,0.6845922 0.73343334,0.67479678 C 0.73329729,0.66799437 0.72581475,0.66989905 0.71506697,0.66391297 C 0.70676805,0.65915134 0.72649496,0.65044426 0.72935192,0.64350579 C 0.7326171,0.63493479 0.72853569,0.62296263 0.7307124,0.60541244 C 0.73465779,0.57452959 0.78077801,0.552898 0.80526659,0.53929322 C 0.832068,0.52473618 0.90852681,0.4780717 0.92662115,0.46596353 C 0.96893199,0.43766563 0.94675623,0.39875591 0.94675623,0.39875591 z "
       style="font-style:normal;font-variant:normal;font-weight:normal;font-stretch:normal;letter-spacing:normal;word-spacing:normal;text-anchor:start;fill:#000000;fill-opacity:1;fill-rule:nonzero;stroke:#231f20;stroke-width:0;stroke-linecap:butt;stroke-linejoin:miter;stroke-miterlimit:10.43299961;stroke-dasharray:none;stroke-dashoffset:0;stroke-opacity:1"
       id="path16395" />
    <path
       d="M 0.75547306,0.10380441 L 0.75574513,0.10380441 L 0.75615334,0.10380441 L 0.75656147,0.10366837 L 0.75683355,0.10366837 L 0.75724174,0.10353233 L 0.75764985,0.10353233 L 0.75792193,0.1033963 L 0.75819401,0.10326025 L 0.75860224,0.10312421 L 0.75887433,0.10298817 L 0.7591464,0.10285214 L 0.75955453,0.10257993 L 0.75982662,0.1024439 L 0.76009871,0.10217182 L 0.76037079,0.10203577 L 0.76050684,0.1017637 L 0.76077891,0.10149161 L 0.761051,0.10135558 L 0.76118715,0.10108347 L 0.76145923,0.10081139 L 0.76159526,0.10053931 L 0.76173131,0.10026723 L 0.76200339,0.099995154 L 0.76213942,0.099586913 L 0.76227547,0.099314839 L 0.76227547,0.099042754 L 0.76241151,0.098634647 L 0.76254755,0.09836249 L 0.76254755,0.097954373 L 0.76268366,0.097682298 L 0.76268366,0.09727417 L 0.76268366,0.097001993 C 0.76268366,0.093192741 0.75941849,0.090199662 0.75547306,0.090199662 C 0.75139164,0.090199662 0.74826259,0.093192741 0.74826259,0.097001993 C 0.74826259,0.10067536 0.75139164,0.10380441 0.75547306,0.10380441 z "
       style="font-style:normal;font-variant:normal;font-weight:normal;font-stretch:normal;letter-spacing:normal;word-spacing:normal;text-anchor:start;fill:#000000;fill-opacity:1;stroke:#231f20;stroke-width:0;stroke-linecap:butt;stroke-linejoin:miter;stroke-miterlimit:10.43299961;stroke-dasharray:none;stroke-dashoffset:0;stroke-opacity:1"
       id="path16397" />
  </g>
</svg>
