<?xml version="1.0" encoding="UTF-8" standalone="no"?>
<!-- Generator: Adobe Illustrator 15.0.2, SVG Export Plug-In . SVG Version: 6.00 Build 0)  -->
<!DOCTYPE svg  PUBLIC '-//W3C//DTD SVG 1.1//EN'  'http://www.w3.org/Graphics/SVG/1.1/DTD/svg11.dtd'>
<svg id="National_Archives_Logo" xmlns="http://www.w3.org/2000/svg" xml:space="preserve" height="894px" viewBox="0 0 994 894" width="994px" version="1.1" y="0px" x="0px" xmlns:xlink="http://www.w3.org/1999/xlink" enable-background="new 0 0 994 894">
<g id="Eagle_Logo_Rania">
	<g id="National_Archives">
		<g fill="#989482">
			<path d="m146.59 695.79c0.233 9.586 1.401 12.624 4.559 13.56 2.222 0.584 4.791 0.702 5.845 0.702 0.584 0 0.935 0.233 0.935 0.701 0 0.7-0.702 0.936-2.105 0.936-6.664 0-11.338-0.35-12.391-0.35s-5.963 0.35-11.223 0.35c-1.168 0-1.871-0.117-1.871-0.936 0-0.468 0.351-0.701 0.935-0.701 0.936 0 3.041-0.118 4.792-0.702 2.924-0.817 3.508-4.207 3.508-14.847l0.119-66.983c0-4.559 0.351-5.845 1.285-5.845 0.935 0 2.922 2.573 4.092 3.741 1.754 1.987 19.172 20.808 37.174 40.097 11.575 12.392 24.314 26.654 28.056 30.51l-1.285-59.385c-0.118-7.599-0.936-10.17-4.56-11.105-2.104-0.467-4.793-0.584-5.729-0.584-0.817 0-0.934-0.351-0.934-0.818 0-0.702 0.934-0.817 2.336-0.817 5.261 0 10.873 0.352 12.157 0.352 1.288 0 5.145-0.352 9.938-0.352 1.285 0 2.105 0.115 2.105 0.817 0 0.468-0.469 0.818-1.287 0.818-0.584 0-1.403 0-2.806 0.35-3.857 0.819-4.325 3.39-4.325 10.406l-0.235 68.503c0 7.716-0.233 8.3-1.052 8.3-0.935 0-2.338-1.286-8.532-7.482-1.287-1.168-18.12-18.354-30.512-31.679-13.56-14.613-26.771-29.342-30.51-33.551l1.49 55.98z"/>
			<path d="m283.47 626.23c1.403-3.856 1.871-4.559 2.571-4.559 0.702 0 1.168 0.584 2.573 4.209 1.752 4.441 20.107 52.721 27.239 70.49 4.207 10.404 7.597 12.275 10.054 12.976 1.752 0.584 3.505 0.702 4.675 0.702 0.702 0 1.168 0.117 1.168 0.701 0 0.7-1.052 0.936-2.338 0.936-1.753 0-10.287 0-18.354-0.235-2.22-0.114-3.505-0.114-3.505-0.816 0-0.468 0.348-0.703 0.817-0.817 0.702-0.236 1.403-1.287 0.702-3.157l-10.872-28.758c-0.233-0.468-0.47-0.702-1.054-0.702h-25.131c-0.584 0-0.936 0.351-1.172 0.936l-7.013 20.69c-1.052 2.925-1.636 5.73-1.636 7.834 0 2.337 2.457 3.39 4.442 3.39h1.168c0.819 0 1.17 0.233 1.17 0.701 0 0.7-0.701 0.936-1.754 0.936-2.806 0-7.832-0.35-9.117-0.35-1.286 0-7.715 0.35-13.21 0.35-1.521 0-2.222-0.235-2.222-0.936 0-0.468 0.467-0.701 1.052-0.701 0.82 0 2.455-0.118 3.39-0.232 5.378-0.702 7.717-5.146 9.819-10.991l26.52-72.6zm12.16 46.76c0.582 0 0.582-0.352 0.466-0.819l-11.104-31.562c-0.584-1.756-1.172-1.756-1.756 0l-10.287 31.562c-0.233 0.586 0 0.819 0.349 0.819h22.33z"/>
			<path d="m380.88 677.78c0 11.224 0 20.458 0.584 25.368 0.352 3.39 1.052 5.963 4.559 6.429 1.638 0.236 4.209 0.469 5.261 0.469 0.702 0 0.935 0.352 0.935 0.701 0 0.586-0.584 0.936-1.868 0.936-6.431 0-13.795-0.35-14.379-0.35-0.585 0-7.95 0.35-11.457 0.35-1.286 0-1.87-0.235-1.87-0.936 0-0.35 0.234-0.701 0.934-0.701 1.053 0 2.456-0.232 3.508-0.469 2.338-0.466 2.924-3.039 3.39-6.429 0.584-4.91 0.584-14.145 0.584-25.368v-49.447l-17.301 0.234c-7.246 0.114-10.052 0.934-11.924 3.741-1.285 1.985-1.637 2.804-1.987 3.623-0.352 0.936-0.701 1.168-1.169 1.168-0.349 0-0.585-0.351-0.585-1.052 0-1.17 2.34-11.222 2.572-12.157 0.235-0.702 0.702-2.222 1.169-2.222 0.818 0 1.988 1.168 5.144 1.403 3.391 0.35 7.832 0.586 9.235 0.586h43.837c7.482 0 10.64-1.172 11.575-1.172 0.584 0 0.584 0.702 0.584 1.404 0 3.507-0.35 11.571-0.35 12.858 0 1.053-0.352 1.52-0.818 1.52-0.585 0-0.819-0.35-0.936-1.987l-0.1-1.27c-0.468-3.508-3.155-6.196-14.379-6.429l-14.729-0.234v49.44z"/>
			<path d="m458.24 677.78c0 11.224 0 20.458 0.584 25.368 0.351 3.39 1.052 5.963 4.56 6.429 1.636 0.236 4.207 0.469 5.259 0.469 0.702 0 0.938 0.352 0.938 0.701 0 0.586-0.586 0.936-1.871 0.936-6.431 0-13.795-0.35-14.38-0.35s-7.949 0.35-11.455 0.35c-1.287 0-1.871-0.235-1.871-0.936 0-0.35 0.235-0.701 0.936-0.701 1.052 0 2.456-0.232 3.508-0.469 2.339-0.466 2.921-3.039 3.391-6.429 0.584-4.91 0.584-14.145 0.584-25.368v-20.573c0-18.236 0-21.509-0.234-25.25-0.235-3.976-1.401-5.963-3.975-6.547-1.286-0.351-2.806-0.468-3.625-0.468-0.467 0-0.934-0.234-0.934-0.7 0-0.702 0.585-0.936 1.869-0.936 3.857 0 11.222 0.352 11.807 0.352s7.949-0.352 11.458-0.352c1.284 0 1.869 0.233 1.869 0.936 0 0.466-0.467 0.7-0.934 0.7-0.819 0-1.521 0.117-2.923 0.35-3.157 0.586-4.093 2.573-4.327 6.665-0.232 3.741-0.232 7.014-0.232 25.25v20.57z"/>
			<path d="m539.27 621.67c26.3 0 45.938 16.6 45.938 43.838 0 26.187-18.466 47.812-46.64 47.812-32.033 0-45.36-24.898-45.36-45.941 0-18.94 13.79-45.71 46.06-45.71zm2.45 87.21c10.521 0 32.267-6.079 32.267-40.096 0-28.058-17.068-43.137-35.538-43.137-19.523 0-34.137 12.859-34.137 38.462 0 27.25 16.37 44.78 37.41 44.78z"/>
			<path d="m625.95 695.79c0.233 9.586 1.401 12.624 4.559 13.56 2.222 0.584 4.795 0.702 5.845 0.702 0.584 0 0.936 0.233 0.936 0.701 0 0.7-0.702 0.936-2.104 0.936-6.662 0-11.339-0.35-12.392-0.35-1.051 0-5.964 0.35-11.221 0.35-1.172 0-1.874-0.117-1.874-0.936 0-0.468 0.352-0.701 0.938-0.701 0.936 0 3.039-0.118 4.792-0.702 2.924-0.817 3.508-4.207 3.508-14.847l0.114-66.983c0-4.559 0.352-5.845 1.287-5.845s2.921 2.573 4.092 3.741c1.753 1.987 19.172 20.808 37.176 40.097 11.571 12.392 24.314 26.654 28.056 30.51l-1.286-59.385c-0.118-7.599-0.936-10.17-4.562-11.105-2.101-0.467-4.792-0.584-5.727-0.584-0.817 0-0.936-0.351-0.936-0.818 0-0.702 0.936-0.817 2.34-0.817 5.261 0 10.869 0.352 12.155 0.352 1.287 0 5.143-0.352 9.938-0.352 1.286 0 2.104 0.115 2.104 0.817 0 0.468-0.466 0.818-1.283 0.818-0.588 0-1.404 0-2.806 0.35-3.859 0.819-4.325 3.39-4.325 10.406l-0.236 68.503c0 7.716-0.233 8.3-1.054 8.3-0.933 0-2.337-1.286-8.529-7.482-1.29-1.168-18.122-18.354-30.514-31.679-13.561-14.613-26.77-29.342-30.511-33.551l1.51 55.98z"/>
			<path d="m762.82 626.23c1.401-3.856 1.871-4.559 2.573-4.559s1.168 0.584 2.569 4.209c1.756 4.441 20.107 52.721 27.238 70.49 4.211 10.404 7.601 12.275 10.056 12.976 1.752 0.584 3.505 0.702 4.676 0.702 0.699 0 1.169 0.117 1.169 0.701 0 0.7-1.054 0.936-2.34 0.936-1.753 0-10.288 0-18.352-0.235-2.222-0.114-3.509-0.114-3.509-0.816 0-0.468 0.352-0.703 0.817-0.817 0.702-0.236 1.405-1.287 0.702-3.157l-10.872-28.758c-0.233-0.468-0.466-0.702-1.05-0.702h-25.135c-0.585 0-0.936 0.351-1.169 0.936l-7.013 20.69c-1.054 2.925-1.638 5.73-1.638 7.834 0 2.337 2.455 3.39 4.443 3.39h1.168c0.817 0 1.169 0.233 1.169 0.701 0 0.7-0.702 0.936-1.753 0.936-2.806 0-7.833-0.35-9.12-0.35-1.286 0-7.715 0.35-13.209 0.35-1.52 0-2.222-0.235-2.222-0.936 0-0.468 0.47-0.701 1.054-0.701 0.817 0 2.455-0.118 3.391-0.232 5.375-0.702 7.715-5.146 9.818-10.991l26.52-72.6zm12.16 46.76c0.584 0 0.584-0.352 0.466-0.819l-11.105-31.562c-0.584-1.756-1.168-1.756-1.753 0l-10.288 31.562c-0.232 0.586 0 0.819 0.352 0.819h22.33z"/>
			<path d="m853.47 678.02c0 17.186 0.47 24.667 2.573 26.771 1.871 1.87 4.909 2.688 14.029 2.688 6.196 0 11.339-0.117 14.145-3.507 1.52-1.87 2.688-4.793 3.039-7.013 0.118-0.938 0.351-1.521 1.054-1.521 0.584 0 0.698 0.47 0.698 1.754 0 1.287-0.816 8.3-1.752 11.689-0.817 2.689-1.168 3.157-7.364 3.157-16.832 0-24.551-0.7-31.331-0.7-1.05 0-7.948 0.35-11.456 0.35-1.283 0-1.867-0.235-1.867-0.936 0-0.35 0.232-0.701 0.935-0.701 1.051 0 2.455-0.232 3.505-0.469 2.34-0.466 2.925-3.039 3.391-6.429 0.584-4.91 0.584-14.145 0.584-25.368v-20.573c0-18.236 0-21.509-0.233-25.25-0.232-3.976-1.168-5.846-5.027-6.665-0.936-0.232-2.921-0.35-3.975-0.35-0.469 0-0.935-0.234-0.935-0.7 0-0.702 0.584-0.936 1.87-0.936 5.261 0 12.625 0.352 13.209 0.352 0.588 0 9.12-0.352 12.625-0.352 1.286 0 1.874 0.233 1.874 0.936 0 0.466-0.47 0.7-0.938 0.7-0.817 0-2.451 0.117-3.856 0.35-3.39 0.586-4.325 2.573-4.559 6.665-0.236 3.741-0.236 7.014-0.236 25.25v20.81z"/>
			<path d="m162.73 756.22c1.492-4.109 1.992-4.857 2.738-4.857s1.244 0.623 2.738 4.482c1.867 4.733 21.419 56.162 29.015 75.091 4.484 11.081 8.093 13.073 10.71 13.821 1.868 0.623 3.736 0.748 4.98 0.748 0.747 0 1.246 0.125 1.246 0.746 0 0.748-1.121 0.996-2.49 0.996-1.869 0-10.958 0-19.552-0.248-2.367-0.125-3.734-0.125-3.734-0.873 0-0.496 0.373-0.746 0.871-0.871 0.746-0.25 1.492-1.371 0.746-3.361l-11.582-30.634c-0.25-0.499-0.496-0.747-1.119-0.747h-26.79c-0.621 0-0.996 0.373-1.244 0.996l-7.471 22.04c-1.121 3.113-1.746 6.103-1.746 8.345 0 2.49 2.617 3.611 4.732 3.611h1.246c0.873 0 1.246 0.248 1.246 0.746 0 0.748-0.748 0.996-1.869 0.996-2.988 0-8.344-0.373-9.713-0.373s-8.22 0.373-14.071 0.373c-1.621 0-2.367-0.248-2.367-0.996 0-0.498 0.5-0.746 1.121-0.746 0.871 0 2.617-0.125 3.613-0.25 5.727-0.746 8.217-5.479 10.459-11.706l28.27-77.33zm12.95 49.81c0.622 0 0.622-0.375 0.498-0.871l-11.83-33.624c-0.621-1.867-1.246-1.867-1.867 0l-10.958 33.624c-0.25 0.621 0 0.871 0.373 0.871h23.79z"/>
			<path d="m246.71 789.22c0-19.425 0-22.913-0.249-26.896-0.25-4.234-1.246-6.227-5.355-7.098-0.996-0.25-3.111-0.375-4.234-0.375-0.498 0-0.996-0.25-0.996-0.746 0-0.748 0.623-0.996 1.992-0.996 5.604 0 13.451 0.373 14.072 0.373 1.371 0 10.835-0.373 14.695-0.373 7.847 0 16.187 0.746 22.788 5.479 3.113 2.242 8.593 8.343 8.593 16.935 0 9.215-3.863 18.431-15.068 28.767 10.209 13.075 18.677 24.157 25.901 31.879 6.725 7.098 12.08 8.467 15.191 8.965 2.366 0.375 4.11 0.375 4.858 0.375 0.621 0 1.119 0.373 1.119 0.746 0 0.748-0.748 0.996-2.988 0.996h-8.841c-6.975 0-10.088-0.621-13.326-2.365-5.354-2.865-9.711-8.966-16.812-18.306-5.23-6.85-11.082-15.191-13.57-18.429-0.5-0.498-0.873-0.747-1.621-0.747l-15.317-0.249c-0.623 0-0.87 0.373-0.87 0.996v2.988c0 11.954 0 21.792 0.621 27.021 0.375 3.611 1.121 6.352 4.855 6.848 1.746 0.25 4.484 0.5 5.605 0.5 0.746 0 0.996 0.373 0.996 0.746 0 0.623-0.623 0.996-1.992 0.996-6.851 0-14.695-0.373-15.318-0.373-0.123 0-7.97 0.373-11.705 0.373-1.371 0-1.992-0.248-1.992-0.996 0-0.373 0.25-0.746 0.996-0.746 1.121 0 2.615-0.25 3.734-0.5 2.492-0.496 3.113-3.236 3.613-6.848 0.622-5.229 0.622-15.067 0.622-27.021v-21.91zm9.97 10.83c0 0.623 0.247 1.121 0.87 1.494 1.869 1.121 7.599 1.992 13.076 1.992 2.99 0 6.476-0.371 9.339-2.365 4.359-2.99 7.597-9.713 7.597-19.177 0-15.566-8.219-24.905-21.544-24.905-3.736 0-7.099 0.375-8.342 0.746-0.625 0.25-0.996 0.748-0.996 1.496v40.72z"/>
			<path d="m350.89 835.54c-12.08-10.834-15.068-25.03-15.068-36.86 0-8.344 2.863-22.913 13.947-33.996 7.472-7.471 18.804-13.324 37.98-13.324 4.98 0 11.955 0.373 18.057 1.494 4.731 0.871 8.718 1.619 12.7 1.867 1.371 0.125 1.621 0.625 1.621 1.371 0 0.996-0.375 2.49-0.625 6.973-0.248 4.108-0.248 10.958-0.371 12.827-0.127 1.867-0.375 2.613-1.123 2.613-0.871 0-0.996-0.871-0.996-2.613 0-4.857-1.99-9.963-5.229-12.702-4.359-3.734-13.948-7.098-24.905-7.098-16.562 0-24.284 4.855-28.642 9.09-9.091 8.718-11.208 19.8-11.208 32.502 0 23.784 18.306 45.576 44.955 45.576 9.34 0 16.686-1.121 21.667-6.227 2.615-2.739 4.234-8.218 4.607-10.46 0.248-1.369 0.498-1.867 1.244-1.867 0.625 0 0.873 0.871 0.873 1.867 0 0.871-1.494 11.706-2.738 15.94-0.748 2.365-0.998 2.613-3.238 3.609-4.982 1.992-14.444 2.865-22.415 2.865-18.67 0.01-31.25-4.6-41.09-13.44z"/>
			<path d="m534.48 811.13c0 11.954 0 21.792 0.622 27.021 0.371 3.611 1.117 6.352 4.854 6.848 1.743 0.25 4.484 0.5 5.605 0.5 0.746 0 0.996 0.373 0.996 0.746 0 0.623-0.625 0.996-1.992 0.996-6.851 0-14.694-0.373-15.315-0.373-0.625 0-8.472 0.373-12.206 0.373-1.368 0-1.992-0.248-1.992-0.996 0-0.373 0.249-0.746 0.996-0.746 1.12 0 2.616-0.25 3.734-0.5 2.491-0.496 3.116-3.236 3.612-6.848 0.621-5.229 0.621-15.067 0.621-27.021v-13.076c0-0.498-0.371-0.748-0.746-0.748h-52.8c-0.373 0-0.746 0.125-0.746 0.748v13.076c0 11.954 0 21.792 0.623 27.021 0.373 3.611 1.119 6.352 4.855 6.848 1.744 0.25 4.484 0.5 5.604 0.5 0.748 0 0.996 0.373 0.996 0.746 0 0.623-0.621 0.996-1.992 0.996-6.85 0-14.693-0.373-15.316-0.373-0.622 0-8.468 0.373-12.204 0.373-1.369 0-1.992-0.248-1.992-0.996 0-0.373 0.25-0.746 0.996-0.746 1.123 0 2.615-0.25 3.736-0.5 2.492-0.496 3.113-3.236 3.611-6.848 0.623-5.229 0.623-15.067 0.623-27.021v-21.918c0-19.425 0-22.913-0.248-26.896-0.25-4.234-1.246-6.227-5.357-7.098-0.994-0.25-3.111-0.375-4.232-0.375-0.498 0-0.996-0.25-0.996-0.746 0-0.748 0.623-0.996 1.992-0.996 5.604 0 13.449 0.373 14.071 0.373 0.623 0 8.467-0.373 12.203-0.373 1.369 0 1.994 0.248 1.994 0.996 0 0.496-0.498 0.746-0.996 0.746-0.873 0-1.619 0.125-3.113 0.375-3.363 0.621-4.359 2.738-4.609 7.098-0.248 3.983-0.248 7.472-0.248 26.896v2.615c0 0.623 0.373 0.748 0.746 0.748h52.8c0.375 0 0.746-0.125 0.746-0.748v-2.615c0-19.425 0-22.913-0.246-26.896-0.25-4.234-1.246-6.227-5.355-7.098-0.996-0.25-3.113-0.375-4.234-0.375-0.499 0-0.995-0.25-0.995-0.746 0-0.748 0.621-0.996 1.991-0.996 5.603 0 13.449 0.373 14.074 0.373 0.621 0 8.465-0.373 12.202-0.373 1.371 0 1.992 0.248 1.992 0.996 0 0.496-0.5 0.746-0.996 0.746-0.871 0-1.62 0.125-3.113 0.375-3.362 0.621-4.358 2.738-4.608 7.098-0.247 3.983-0.247 7.472-0.247 26.896v21.91z"/>
			<path d="m596.15 811.13c0 11.954 0 21.792 0.621 27.021 0.375 3.611 1.121 6.352 4.858 6.848 1.742 0.25 4.484 0.5 5.602 0.5 0.75 0 0.996 0.373 0.996 0.746 0 0.623-0.621 0.996-1.992 0.996-6.847 0-14.69-0.373-15.315-0.373-0.621 0-8.469 0.373-12.203 0.373-1.37 0-1.992-0.248-1.992-0.996 0-0.373 0.25-0.746 0.996-0.746 1.121 0 2.614-0.25 3.734-0.5 2.492-0.496 3.113-3.236 3.613-6.848 0.621-5.229 0.621-15.067 0.621-27.021v-21.918c0-19.425 0-22.913-0.25-26.896-0.249-4.234-1.492-6.352-4.23-6.973-1.371-0.375-2.991-0.5-3.862-0.5-0.5 0-0.996-0.25-0.996-0.746 0-0.748 0.624-0.996 1.992-0.996 4.108 0 11.956 0.373 12.577 0.373 0.625 0 8.469-0.373 12.203-0.373 1.37 0 1.995 0.248 1.995 0.996 0 0.496-0.5 0.746-0.996 0.746-0.874 0-1.621 0.125-3.116 0.375-3.36 0.621-4.356 2.738-4.605 7.098-0.25 3.983-0.25 7.472-0.25 26.896v21.91z"/>
			<path d="m681.51 832.06c7.223-16.688 23.909-60.146 26.651-69.114 0.621-1.867 1.117-3.609 1.117-4.73 0-0.996-0.371-2.242-1.617-2.863-1.492-0.5-3.359-0.5-4.73-0.5-0.75 0-1.371-0.125-1.371-0.746 0-0.748 0.746-0.996 2.742-0.996 4.977 0 10.706 0.373 12.202 0.373 0.746 0 6.102-0.373 9.711-0.373 1.371 0 2.117 0.248 2.117 0.871 0 0.621-0.496 0.871-1.492 0.871-0.871 0-3.613 0-5.98 1.496-1.617 1.121-3.484 3.237-6.847 11.704-1.371 3.486-7.598 18.43-13.945 33.747-7.598 18.179-13.202 31.63-16.065 37.732-3.488 7.471-3.984 9.463-5.23 9.463-1.496 0-2.117-1.744-4.484-7.721l-30.51-76.336c-2.738-6.973-4.605-8.342-8.965-9.586-1.867-0.5-3.984-0.5-4.73-0.5s-0.996-0.373-0.996-0.871c0-0.748 1.246-0.871 3.238-0.871 5.977 0 13.073 0.373 14.569 0.373 1.246 0 6.848-0.373 11.581-0.373 2.242 0 3.36 0.248 3.36 0.871 0 0.621-0.375 0.871-1.246 0.871-1.367 0-3.609 0.125-4.73 0.623-1.371 0.623-1.617 1.619-1.617 2.49 0 1.62 1.492 5.479 3.359 10.335l23.91 63.78z"/>
			<path d="m762.25 789.22c0-19.425 0-22.913-0.246-26.896-0.25-4.234-1.246-6.227-5.355-7.098-0.996-0.25-3.113-0.375-4.234-0.375-0.499 0-0.996-0.25-0.996-0.746 0-0.748 0.625-0.996 1.992-0.996 5.603 0 13.449 0.373 14.07 0.373 0.871 0 25.655 0 28.519-0.125 2.366-0.125 4.358-0.373 5.354-0.623 0.622-0.125 1.121-0.621 1.743-0.621 0.374 0 0.496 0.496 0.496 1.119 0 0.873-0.621 2.367-0.996 5.854-0.122 1.246-0.372 6.724-0.621 8.218-0.125 0.623-0.375 1.371-0.871 1.371-0.747 0-0.996-0.623-0.996-1.62 0-0.871-0.125-2.988-0.747-4.482-0.871-1.991-2.116-3.486-8.843-4.232-2.117-0.25-15.69-0.375-17.059-0.375-0.499 0-0.746 0.375-0.746 1.246v34.369c0 0.871 0.122 1.246 0.746 1.246 1.618 0 16.934 0 19.797-0.25 2.992-0.25 4.734-0.498 5.855-1.744 0.871-0.996 1.37-1.619 1.867-1.619 0.374 0 0.621 0.25 0.621 0.996 0 0.748-0.621 2.865-0.996 6.975-0.247 2.49-0.496 7.1-0.496 7.971 0 0.996 0 2.365-0.871 2.365-0.622 0-0.872-0.498-0.872-1.121 0-1.244 0-2.49-0.499-4.109-0.497-1.744-1.617-3.861-6.477-4.357-3.359-0.375-15.688-0.625-17.808-0.625-0.621 0-0.868 0.375-0.868 0.873v10.959c0 4.233-0.128 18.679 0 21.292 0.372 8.593 2.239 10.214 14.441 10.214 3.238 0 8.719 0 11.957-1.371 3.237-1.37 4.73-3.859 5.604-8.966 0.247-1.369 0.496-1.867 1.118-1.867 0.749 0 0.749 0.994 0.749 1.867 0 0.996-0.996 9.464-1.62 12.079-0.872 3.238-1.867 3.238-6.723 3.238-18.805 0-27.147-0.748-30.761-0.748-0.621 0-8.468 0.373-12.203 0.373-1.37 0-1.991-0.248-1.991-0.996 0-0.373 0.249-0.746 0.995-0.746 1.121 0 2.617-0.25 3.735-0.5 2.491-0.496 3.116-3.236 3.612-6.848 0.621-5.229 0.621-15.067 0.621-27.021v-21.91z"/>
			<path d="m837.67 845.63c-1.742-0.873-1.867-1.371-1.867-4.734 0-6.226 0.5-11.206 0.625-13.198 0.124-1.371 0.371-1.992 0.996-1.992 0.746 0 0.871 0.373 0.871 1.371 0 1.119 0 2.863 0.371 4.605 1.87 9.214 10.089 12.702 18.433 12.702 11.953 0 17.808-8.593 17.808-16.562 0-8.594-3.613-13.574-14.323-22.415l-5.602-4.607c-13.199-10.835-16.188-18.554-16.188-27.022 0-13.324 9.961-22.415 25.776-22.415 4.855 0 8.469 0.498 11.578 1.244 2.367 0.5 3.367 0.623 4.362 0.623 0.996 0 1.243 0.25 1.243 0.873 0 0.621-0.496 4.73-0.496 13.198 0 1.992-0.25 2.865-0.875 2.865-0.746 0-0.867-0.623-0.996-1.619-0.121-1.495-0.871-4.856-1.617-6.226-0.746-1.371-4.109-6.602-15.565-6.602-8.594 0-15.316 5.355-15.316 14.446 0 7.098 3.484 11.332 15.191 20.919l3.487 2.742c14.695 11.58 18.18 19.3 18.18 29.263 0 5.105-1.992 14.569-10.586 20.671-5.352 3.736-12.077 5.23-18.8 5.23-5.84 0.01-11.57-0.86-16.68-3.35z"/>
		</g>
	</g>
	<path id="Eagle" d="m636 470.72c-7.68 3.439-18.875 2.949-23.867 0.528 1.491 1.199 1.7 3.68 2.868 5.198 7.8-1.11 18.45 0.63 21-5.73zm-53.44-18.13c5.288-0.439 6.801-4.653 8.59-8.59-8.022 3.572-16.909 0.79-22.906-2.863 1.209 8.938 9.394 6.756 17.18 7.634-0.28 1.95-2.58 1.87-2.86 3.82zm-148.35-281.98c6.688-26.837 16.231-36.045 22.327-43.16 7.91-9.23 12.944-14.731 21.034-21.316 1.813-1.474 7.232-2.193 5.727-5.727-22.503 9.607-40.177 37.755-48.527 59.767-3.554 6.904-5.671 16.281-7.783 25.176-2.199 9.266-5.996 20.536-1.907 29.587 4.997-4.402 2.762-12.676 3.817-19.088 1.39-8.46 3.8-17.21 5.31-25.24zm135.94 250.49c2.016 5.43 14.326 10.315 15.271 10.497-4.58-4.01-8.86-8.33-15.27-10.5zm17.18 31.49c-0.041 4.177 2.384 5.889 3.818 8.59 8.469 2.138 20.661 1.448 20.043-6.683-6.03 6.03-19.08 5.12-23.86-1.91zm-211.88-191.84c-2.935 23.919 5.112 55.392 12.409 70.627 3.019 6.3 5.716 16.479 12.406 16.225-3.783-15.928-19.402-39.819-20.996-65.855-1.936-31.6 10.847-57.055 43.902-50.584 5.373 3.536 7.645 10.171 12.407 14.316 3.646-6.535 7.813-12.547 10.498-20.043-30.75-19.46-66.55 2.05-70.63 35.31zm182.29 149.85c0.904 2.948 4.562 8.114 7.634 5.727-3.52-0.93-4.86-4.05-7.63-5.73zm-187.06-310.19c-22.272 29.145-30.184 82.172-25.771 131.71 8.583-2.86 4.142-17.473 3.819-24.814-1.151-26.145 2.441-49.404 7.634-69.672 3.74-14.62 11.09-25.68 14.32-37.23zm272.96 433.31c16.167 28.329 71.91-6.077 46.769-27.677 14.93 21.82-26.83 40.78-46.77 27.68zm-261.51-139.35c15.579 24.658 42.734 38.914 79.217 41.996 13.821 1.165 22.514-0.138 31.496 4.771 3.999 0.183 2.949-4.687 7.634-3.819 18.966 1.469 29.728-5.267 41.994-10.497-11.034 1.07-23.724 3.961-31.496-1.908-1.145 6.554 5.317 5.501 7.638 8.59-17.043 5.045-30.263-1.303-41.042-7.638-2.731 1.482 1.989 4.454-0.954 5.727-43.848-4.271-95.976-16.855-93.533-63.944-1.411 2.724-1.953 6.317-3.816 8.59-21.955-15.57-55.196-52.8-59.174-91.625-3.664-35.774 18.165-49.382 50.584-45.812 4.981 1.677 4.608 5.57 6.682 8.59 1.867-4.176 4.761-7.329 5.725-12.407-35.009-14.396-70.149 14.323-69.673 46.766 0.723 48.963 40.848 80.758 64.9 103.08-1.641 4.918-1.52 7.855-1.907 12.407 2.7 2.57 2.63-2.99 5.73-2.88zm161.29 32.45c4.549-0.54 8.594-1.587 8.591-6.683-7.004 0.959-10.863-1.229-16.225-1.907-0.148 5.871 7.772 3.677 11.449 5.727 0.31 2.53-5.33-0.89-3.81 2.86zm67.77 43.9c0.284 0.186 0.602 0.361 0.947 0.528-0.28-0.22-0.58-0.41-0.95-0.53zm122.16-53.44c0.092-2.451 3.725-1.364 3.815-3.815-1.219-1.307-4.504-1.307-5.727 0-0.25 2.18 0.24 3.59 1.92 3.82zm116.44 119.3c0.827 3.944 4.207 5.339 7.638 6.683-1.17-3.61-5.45-4.1-7.64-6.68zm23.86-112.62c4.163 1.557 5.902-4.193 7.634-1.908-7.249 5.7-14.691 11.953-23.858 16.225-9.296 4.332-20.326 5.514-27.681 12.408 10.031-0.584 20.047-6.311 29.589-11.453 9.123-4.919 19.435-9.643 26.722-15.271 3.552-2.742 5.206-7.398 9.545-8.59 14.219-3.9 25.354 4.234 35.315 9.545-6.273-7.786-22.478-16.261-36.271-13.364-3.049 0.642-5.338 4.41-8.59 5.727-4.91 1.98-13.82-0.15-12.41 6.67zm-216.65 59.17c-3.863 4.926-15.58 2.789-20.044 0-2.204 2.9 3.066 4.703 1.908 9.545 8.57-0.03 20.79-1.47 18.13-9.55zm217.6-71.55c-3.237-0.257-7.735 0.739-9.542-0.952 1.324-1.223 0.093-3.16 1.908-5.727 0.003-0.01 0.003-0.019 0.005-0.028l0.005 0.002v-0.021c0.644-2.229 0.444-4.17 0-5.637v-0.068c-4.265-7.521-8.397-10.662-16.224-15.271-10.218-6.017-18.008-9.036-35.315-7.635-35.136 2.844-85.376 8.09-110.71 26.722-16.64 12.24-23.362 30.612-32.451 42.949-43.018-27.019-108.62-53.186-139.34-92.577-15.704-20.133-29.068-50.468-17.18-82.08 3.251-2.792 4.626-7.461 7.634-10.499 0.456-4.226-1.313-4.746 0-7.635 15.866-14.673 27.729-33.355 49.629-41.995 6.557 6.262 19.017 4.317 27.681-1.909 17.617-12.66 38.812-51.276 28.299-76.926-1.533-4.792-6.632-17.389-19.905-26.178-1.445-0.957-2.477-1.47-3.221-1.706-2.251-1.125-4.653-2.095-7.084-3.038 1.578 1.604 3.392 2.975 5.284 4.264 0.005 0.021 0.008 0.035 0.008 0.035s0.178 0.106 0.49 0.308c0.267 0.177 0.53 0.356 0.799 0.531 3.66 2.499 14.213 10.561 19.242 23.47 2.854 11.416 3.402 26.923-2.917 34.384-2.391-9.698-2.843-14.779-6.94-25.249-3.869-10.699-8.406-17.382-13.103-23.426-19.169-24.678-74.365-14.715-92.578 2.863 24.149-9.019 55.72-19.896 79.217-6.681 11.798 6.636 20.191 24.345 20.995 39.131 1.438 26.375-18.243 41.044-37.219 50.583 1.948-3.648 0.192-7.297 0-11.453-4.94-4.544-17.211-4.672-24.818-2.863-19.138 4.554-32.495 25.44-38.175 40.086 1.072 3.096 8.32 4.997 6.683 7.635-2.05-1.768-6.993-0.644-10.501-0.955-16.228 9.598-6.397 30.249-9.542 49.63-0.5 3.068-2.837 5.175-2.863 7.635-0.055 4.613 4.339 8.846 2.863 12.407 3.893 2.15 7.14 4.949 11.453 6.681 8.718 24.598 17.977 46.569 34.355 62.037 36.349 27.299 91.437 54.814 135.53 79.216 8.188 4.532 16.637 12.68 24.817 15.272 11.953 3.785 16.769-3.4 23.858-6.682 7.297 4.798 17.751 11.514 28.634 9.545-11.197-2.9-27.073-4.798-24.814-18.136-5.389 0.291-9.141 7.648-15.272 7.635-5.79-0.01-11.672-5.078-11.453-10.498 0.517-12.686 19.614-8.931 25.77-16.224-3.649 0.804-7.661 1.246-12.405 0.955-2.512-1.944-1.171-7.738-2.863-10.501-7.05 0.686-12.158-0.567-13.364-5.727 2.337-6.888 6.97-11.483 14.316-13.36 3.961 2.721 5.977 7.384 9.546 10.497 3.221-1.682-0.027-4.889 0.955-9.542-0.888-2.296-6.941 0.577-5.727-3.818 17.833-14.267 67.703-20.852 102.05-22.901l0.062 0.021c22.386-1.33 37.023 11.659 42.949 25.77-21.961-12.213-57.276-11.199-84.943-8.59-14.077 1.327-26.614 0.112-36.268 5.727 11.798-0.661 36.659 0.71 41.042 0.956 11.53 0.28 18.273-0.503 27.678 1.907h0.952c5.581 12.555 18.469 17.802 24.817 29.589-14.32 17.494-50.723 17.993-52.495 44.857 11.207-22.836 42.25-25.834 57.266-44.857 8.367-6.271 19.368-9.903 24.814-19.091h6.695c0.004 0.01 0.005 0.019 0.005 0.028-0.008 1.49 5.715 1.49 5.71 0 0-0.01 0.002-0.019 0.005-0.028h0.945c0.016-0.009 0.022-0.016 0.036-0.023 0.015 0.001 0.03 0.002 0.047 0.003 2.134 0.247 3.521-0.255 3.746-1.913-1.807-1.695-6.304-0.695-9.545-0.956l-0.06 0.04zm-38.16 11.48c-8.097-1.766-9.994-9.728-15.271-14.316 9.7-3.58 18.57 4.63 15.27 14.32zm-158.44 22.85l3.818-8.59c4.184-6.631 10.079-11.551 13.361-19.087 3.707 4.244 6.604 9.302 16.224 7.634 3.566 15.178-10.092 18.393-24.813 18.136 0.158 7.796 7.972 5.004 14.316 4.771-1.007 4.825 2.175 5.46 1.907 9.546 7.317 4.322 13.868 2.678 20.043-0.955-12.628 16.693-32.86-2.897-44.856-9.543v-1.91zm256.73-15.27c13.517 12.514 2.685 57.273-14.316 51.536v-0.952c7.54-30.713-18.817-24.625-44.857-25.77-14.766-0.648-32.698-2.374-43.901-0.956-9.407 1.192-25.726 5.491-24.814 14.317 11.13 2.674 22.496-6.098 37.22-6.683 18.118-0.72 41.994 2.863 41.994 2.863 10.369 1.722 20.836 3.347 31.496 4.774 2.936 1.412-0.813 2.415-2.863 2.863s-23.119-2.469-43.864-5.494c-11.777-1.837-30.974-3.137-42.031 0.72-7.466 2.606-11.015 7.952-18.136 6.683-4.824-0.861-6.188-6.038-10.497-6.683-5.413 13.668 9.525 17.112 17.18 22.906 15.785 11.95 24.716 35.443 41.038 44.857 16.1-21.124 43.186-31.257 62.992-48.673 1.389 1.476 4.887 0.841 7.635 0.952 11.71-10.19 22.64-50.11 5.73-57.27zm-192.79 84.94c6.122 1.195 4.673 9.965 8.59 13.361 6.736-9.975 23.359 2.485 31.496 0-9.947-3.097-18.888-7.199-30.54-8.59-2.661-1.793-0.979-7.932-5.727-7.635 1.53 3.76-4.12 0.33-3.82 2.86zm53.45 13.36c-1.381-3.394-5.797-3.748-8.59-5.727 0.95 3.83 5.37 4.18 8.59 5.73zm-3.82-8.59c0.195-2.742-0.243-4.849-1.908-5.727-0.67 2.26-2.19 6.06 1.91 5.73zm-18.13-18.13c7.236 0.233 15.157 4.366 18.136 5.727-1.16-6.18-11.19-8.53-18.14-5.73zm-492.48-217.61c16.17-9.223-2.445-28.554-8.59-44.857-10.802-28.66-13.955-70.107-5.727-96.396-21.12 43.03-4.57 105.74 14.32 141.26zm557.38 276.78c-4.95-3.637-9.097-8.08-15.269-10.497 3.88 4.08 9.75 11.23 15.27 10.5zm-10.5-28.63c-1.65 4.156-2.927 8.914 0.956 11.453-1.128 0.466-2.164 1.02-2.863 1.911 3.572 1.462 8.981 9.296 12.405 4.771-7.89-2.42-7.72-13.09-10.5-18.13zm-44.86 0.96c1.81 3.255 5.834 8.401 4.771 11.453-11.973 1.776-28.518 2.485-33.403-5.727-8.29-0.705-22.6 2.631-30.541-1.907-3.012 3.032-7.668 4.42-9.546 8.59 4.072 1.8 7.584-4.244 12.409-4.774 9.245 2.715 21.093 6.604 27.678 1.911 6.972 7.229 19.047 3.846 25.77 10.498-0.391 4.121 0.493 6.969 2.266 8.931 0.19 0.213 0.385 0.422 0.598 0.613-0.018-0.21-0.021-0.407-0.034-0.613-0.521-8.602 2.986-13.17 7.668-16.565 7.651 6.29 18.909 7.513 29.589 8.59-8.944-5.058-20.33-7.668-29.589-12.409-2.53-2.27-4.72-9.89-7.65-8.58zm57.91 28.97h3.165c-1.52-1.749-3.09-3.468-4.759-5.112 0.32 1.8 0.89 3.49 1.59 5.11zm-160.03-5.11c-16.697 5.518-50.628 4.454-53.447-15.272-1.098-7.681 3.495-23.075 8.59-28.633 1.972-2.15 12.969-9.88 20.043-12.405 8.37-2.991 20.938-1.988 27.678 0-11.876-32.664-48.315-45.854-78.262-57.266 24.615 15.789 56.415 24.392 70.627 50.584-20.85 0.783-33.961 9.309-44.857 20.043-4.015-2.668-9.876-3.484-13.364-6.683-1.114 9.069 6.375 9.532 13.364 10.501-11.183 13.317-6.81 35.646 2.74 44.243h57.665c8.093-3.502 15.721-8.01 21.675-14.658-12.33-3.3-21.65 5.97-32.46 9.55zm-104.03-25.77c0.757 3.299-1.061 4.028-1.907 5.727-14.017 9.039-35.64 16.288-57.267 9.542 0.739-2.238 1.179-6.801 3.819-9.542 19.732-3.586 31.236-15.738 56.311-11.453-0.199-2.742 0.239-4.849 1.907-5.727 16.019-8.479 34.978-14.017 48.676-24.814-10.524 2.32-20.312 2.259-28.633-1.911-1.104 7.469 5.818 6.908 8.59 10.501-14.735 5.986-36.223 21.235-52.494 8.59-0.747 3.931 1.465 4.896 0.955 8.587-17.639 9.515-46.264 18.702-68.718 7.638 0.409-3.41 2.397-5.24 4.773-6.683 23.831-0.996 38.722-18.908 62.989-13.36 1.455-2.364 1.961-5.676 4.774-6.683 14.572-2.921 22.2-12.79 40.086-12.405-1.162-5.294 4.277-3.991 4.771-7.638-6.438 1.517-13.529 2.377-21.95 1.911-10.12-10.934 8.924-12.726 12.405-19.091-8.56 6.308-20.688 6.466-34.359 5.727 0.357 9.269-9.441 8.374-13.361 13.364 9.427-2.414 19.813-8.729 31.496-5.727-1.476 4.082 0.706 10.028 3.819 12.405-10.197 6.595-26.901 11.646-41.042 8.59-2.657-0.429 0.75 5.203-1.908 4.774-22.98 7.088-50.808 22.519-79.216 12.405-1.181 3.09 3.087 0.729 1.907 3.819-8.685 1.617-12.03-8.222-6.681-12.409 32.614-0.473 51.193-14.981 83.989-15.269 1.074-3.41 6.99-6.969 5.727-9.545-5.196 3.586-17.004 5.702-23.861 1.907 1.198 2.907 0.729 3.711-0.952 5.727-24.085 6.104-49.477 15.039-80.173 11.453-3.71-4.305-10.818-7.911-15.27-8.59 0.336-2.843 0.552-5.811 2.863-6.679 36.9 2.86 60.343-7.739 93.531-8.59 11.288-15.755 43.438-10.646 57.266-23.862-12.321 2.054-22.144 8.77-35.315 4.771-6.645 11.909-29.261 16.123-40.082 5.727-3.041 4.045 4.224 5.564 1.907 8.59-38.793 7.324-102.27 21.468-114.53-20.995 1.363-0.229 1.609-1.573 2.863-1.908 30.357 16.883 71.644 11.228 109.76 9.543 2.827-0.673 1.513-5.487 4.771-5.728 12.041-1.319 19.463-7.263 34.359-5.727 7.054-4.717 16.113-7.428 25.771-9.542-0.129-2.354-0.146-4.599 0.952-5.727-7.959 0.321-15.367 0.099-20.044-2.863 0.922 6.078 10.225 3.775 13.365 7.635-10.906 3.785-27.627 7.482-38.179 0.955-3.16 2.86 4.994 5.96 2.863 7.635-8.8 4.298-24.331 6.976-34.358 1.907-2 0.865-0.339 5.39-2.863 5.727-50.994 4.444-110.9 5.689-116.44-46.765-4.355-1.175 0.088 6.449-2.863 6.679-39.147-14.219-71.403-38.931-89.716-74.443-2.013-3.902-3.459-9.583-4.773-15.27-1.226-5.31-1.19-13.912-4.771-14.316-2.863 21.544 3.076 40.29 15.271 54.402 2.429 2.811 10.155 11.043 11.451 12.408 19.584 20.601 50.165 34.34 72.538 46.766-2.668 11.372 5.189 16.923 4.771 22.906-38.413-4.302-84.498-19.607-109.76-42.949-9.956-9.199-13.82-22.416-15.272-38.177-0.108 1.164-0.284 2.26-1.908 1.909-3.262-2.566-11.445-8-13.361-9.545-15.82-12.745-33.343-33.583-46.768-56.31-16.825-28.487-45.276-87.254-7.634-108.8 1.395 49.073 22.319 89.72 42.949 122.17 8.384 13.188 17.14 28.183 31.495 33.405 0.147-3.036 2.165-4.199 1.91-7.636-46.63-44.057-99.44-161.27-49.63-236.7 20.796-31.491 56.114-50.995 103.08-42.949 8.75 0.927 4.678 2.843 2.864 6.681-7.729 13.905-15.259 28.008-19.088 45.812-5.338 4.526-12.887 6.84-16.226 13.362 5.533-1.323 9.784-8.432 16.226-5.727-6.28 39.369-4.322 87.204 3.815 122.17 1.96 8.415 1.371 19.412 8.59 23.86 1.579-1.437 3.233-0.585 3.819-1.908-10.599-36.601-22.298-84.186-14.316-132.66 8.636-52.446 50.729-97.264 103.08-103.08 21.474-2.385 44.326 4.029 57.265 17.179-15.769 3.545-28.825 20.624-44.857 25.77-9.434 3.028-19.23 2.52-26.724 7.635-6.643 4.537-9.675 11.226-14.314 19.088 12.078-10.964 24.912-27.08 46.765-20.043 11.771-10.818 25.028-20.509 38.739-29.385l0.392-0.202c3.13-1.642 7.645-1.902 8.59-5.727-16.983-11.583-36.581-19.482-60.128-19.088-34.33 0.573-59.816 14.2-77.307 28.633-0.465 0.351-0.755 0.706-0.755 0.706-14.022-4.271-26.386-8.901-42.195-6.433-45.021 7.028-81.732 45.861-96.396 82.08-70.215 9.5-111.12 87.263-86.851 162.25-18.401 16.35-37.91 29.33-43.929 56.29-0.886 3.971-1.125 6.041-1.489 8.881-7.526 58.731 37.423 106.42 66.389 137.14 2.826-2.266 4.729-5.453 8.59-6.683 10.133 8.638 18.485 19.058 30.542 25.77 1.04 3.954 3.373 7.797 5.727 9.546 30.284 22.491 104.23 26.725 156.52 21.95 3.646 9.083 16.081 13.803 25.086 17.521h27.196c-0.89-0.407-2.056-0.804-2.647-1.564-2.283-5.579-7.56-4.264-7.641-10.229 30.396-5.237 60.676-10.589 87.807-19.088 7.229 8.286 25.437 0.327 32.452 5.727 1.323 6.726-8.04 7.58-13.363 9.542-12.083 4.456-27.115 11.118-42.815 15.613h18.144c7.167-2.011 14.147-4.273 20.855-7.023 5.527-2.266 11.03-7.084 17.18-7.635 8.653-0.772 18.797 5.143 28.633 0.956 0.773 4.315 3.356 6.824 3.815 11.453-1.376 0.757-2.774 1.504-4.179 2.249h28.302c-2.648-1.624-4.737-3.906-5.988-7.023 14.401-2.779 26.935-7.422 37.224-14.316 19.121 9.35 30.361-9.09 41.038-17.18-12 4.11-24.65 20.09-39.12 7.63zm-168.93-38.18c6.246 2.32 13.965 0.378 17.18 5.727-3.783 7.081-13.095 5.247-20.043 6.683-34.146 7.05-79.744 14.66-104.03-7.635-6.152-5.648-9.903-14.097-12.409-22.906 0.506-0.77 0.996-1.55 0.956-2.863 20.097 8.006 41.987 13.188 66.808 14.316 11.933 0.54 26.216-2.65 39.131 0 4.57 0.94 7.68 4.93 12.4 6.68zm-143.01-81.37c1.023 0.055 2.185 0.324 2.706 1.202 18.038 17.937 45.702 28.697 75.4 35.312 10.099 2.249 23.564 2.029 32.448 5.727 4.946 2.057 8.173 7.679 13.362 9.546-0.535 7.216 5.284 8.076 5.727 14.316-48.708 3.623-128.69-0.074-130.75-62.992 0.16-3.59 0.72-2.9 1.1-3.12zm-79.37-274.63c-1.052 12.718-5.914 34.688-2.864 51.539-49.235 29.208-15.564 103.15 7.636 136.48 6.473 9.297 15.146 18.194 23.86 26.723 11.33 11.092 22.253 21.469 37.221 24.816-0.87 6.142-4.842 9.153-5.727 14.314-3.218 18.82 9.714 30.529 13.362 41.041-50.72-14.759-87.744-51.007-116.44-90.67-13.06-18.05-31.43-42.344-36.267-69.672-11.8-66.66 17.11-123.2 79.22-134.57zm-31.5 346.46c-25.306-11.095-48.544-28.886-64.9-50.584-14.566-19.323-30.598-44.881-25.77-80.172 2.838-20.753 16.148-47.855 42.949-42.949 5.597 13.808 8.654 30.158 16.224 41.994 0.811 0.176 0.9-0.372 0.954-0.953 0.045-4.728 3.776-5.769 4.772-9.545 32.195 44.479 70.928 82.414 129.8 100.22-0.743 6.149 1.418 9.397 0.954 15.27-4.625 0.969-26.649-7.017-33.404-9.543-31.488-11.79-62.792-30.027-83.034-55.357-8.181-10.237-11.034-23.266-18.135-36.268-9.447 12.589-0.054 35.301 8.59 46.765 24.423 32.401 80.745 55.952 125.03 62.993 3.596 14.535 13.398 22.869 25.77 28.633 0.712 10.423 6.793 15.475 9.544 23.861-35.138-3.126-74.64-12.989-103.08-22.906-12.05-4.2-25.42-6.7-36.25-11.44zm148.89 58.21c-32.038 1.561-59.684-4.747-89.714-12.408-19.56-4.987-44.209-15.012-49.631-29.585 0.773-0.183 0.952-0.959 1.911-0.956 26.896 9.644 58.1 18.396 91.622 22.906 26.263 3.535 49.095 5.031 68.719 15.272-4.94 5.17-14.92 4.4-22.91 4.78zm74.45 0.96c-19.721 1.151-35.575-6.155-48.676-17.18 2.667-9.694 13.499-5.439 20.043-5.727 25.273-1.111 54.983-6.541 75.397-12.409 4.568 3.093 11.013 7.709 18.136 9.546 4.254 1.098 10.251-2.029 12.405 3.815-19.62 10.1-50.18 20.37-77.3 21.96zm363.63 14.32c-2.132 1.742-4.661 3.623-7.703 5.112h6.343c2.559-3.097 4.524-6.789 5.176-11.794-3.95-0.45-2.54 4.46-3.82 6.68zm-361.72-387.5c-2.408 17.155-8.497 40.286-3.819 58.219 7.598-5.229 4.7-18.627 4.774-28.632 0.065-9 0.183-16.735 0.598-23.684 0.581-9.757 4.991-34.523 9.954-48.824 6.079-17.517 18.498-32.478 24.76-46.794-21.403 23.974-32.281 60.308-36.241 89.714-0.01-0.01-0.01-0.01-0.02-0.01zm99.25 50.59c-11.101-1.432-22.259 1.617-28.634 5.727-17.24 20.639-23.291 69.464-9.545 99.259 1.408-13.096-4.454-29.292-3.815-45.812 1.099-28.55 13.645-53.672 44.857-50.584 7.388 0.73 11.375 5.087 17.18 8.59 4.69-9.34-9.45-15.83-20.04-17.19zm3.34 97.41c-1.71-0.135-1.688 0.712-0.655 1.274 23.967 6.448 30.602 39.222 30.602 39.222s0.598 1.384 0.933 0.258c0.179-0.605-0.331-4.585-0.331-4.585s-5.96-40.83-30.54-36.16zm110.24 235.68c0.51 3.376-0.811 4.916-2.863 5.727-2.548 1.057-5.744 2.185-9.293 3.204h26.66c1.254-1.114 2.189-2.745 2.672-5.112-7.72 0.71-11.24-2.76-17.18-3.82zm-125.03-230.02c-5.926-4.182-10.12 9.494-14.317 13.361-1.546-2.907-2.938-5.968-6.682-6.68 1.158 4.888 5.291 6.798 6.682 11.453 2.188 13.898 5.781 24.18 13.361 32.45 4.413 4.813 10.579 11.162 16.226 10.498-9.301-12.968-21.663-22.876-26.724-40.085 1.91-8.9 5.2-16.43 11.45-21zm19.09 47.72c-3.687 11.742 6.435 17.67 14.316 20.997-6.15-5.62-12.84-10.71-14.32-21zm-6.68 45.82c2.689-0.169 1.19-4.534 4.773-3.815 19.621-1.404 29.259 4.737 45.812-1.911-15.729 4.244-26.145-8.194-35.315-12.405 1.094 5.902 5.763 8.235 9.546 11.453-15.588 3.025-28.633-4.346-35.315-13.363-3.572 4.72 3.998 8.542 1.909 11.452-28.077-11.721-64.304-34.132-51.537-71.58-23.75 40.44 26.62 72.47 60.13 80.18zm-352.18 93.53c-1.259-3.549 1.263-8.435-3.817-10.497-1.899 9.282-0.686 17.423 1.909 23.858 5.644 13.998 14.565 26.905 24.875 38.52h46.983c-18.525-5.196-34.902-12.426-44.18-22.292-9.85-8.06-21.05-16.31-25.76-29.59zm437.12-420.9c-11.899 2.416-22.725 5.909-34.356 8.59-3.762-1.67-10.163-5.717-14.316-3.817 3.434 1.975 8.928 1.887 10.497 5.726-15.726 9.484-36.394 18.062-49.63 34.359-15.767 19.412-32.075 46.371-34.357 72.536-0.375 4.269-2.096 13.837 3.815 14.316 1.864-26.958 8.394-44.545 19.089-62.992 21.5-37.088 55.961-62.72 111.67-62.037 4.302 0.052 15.231 3.783 10.498-4.772 0 0-6.61-7.91-16.225-18.134-13.756-15.624-34.998-27.391-63.944-29.587-10.157-0.771-22.438-1.399-29.589 4.772 43.44-4.474 75.29 10.48 86.85 41.03zm-21.95 304.46c-5.365-6.088-9.509-13.396-14.316-20.042-4.909 5.643 0.813 9.339 3.818 11.454 5.82 4.1 5.39 11.78 10.5 8.59zm1.91 2.86c-5.111 9.265-17.646 6.654-23.858 0 1.364 11.533 17.747 13.222 23.858 4.773 2.907 1.547 4.116 4.791 7.639 5.727-0.64-5.83-7.64-6.75-7.64-10.5z" fill="#989482"/>
</g>
</svg>
